<svg width="251" height="180" viewBox="0 0 251 180" fill="none" xmlns="http://www.w3.org/2000/svg">
<g clip-path="url(#clip0)">
<path d="M123.531 180C158.731 180 187.266 176.433 187.266 172.032C187.266 167.632 158.731 164.064 123.531 164.064C88.3319 164.064 59.7971 167.632 59.7971 172.032C59.7971 176.433 88.3319 180 123.531 180Z" fill="#3F3D56"/>
<path d="M231.345 103.903L206.706 115.521L228.512 99.2762C224.968 93.7647 220.987 88.5449 216.606 83.6668L109.751 110.128L206.271 73.4451C201.861 69.5679 197.176 66.0109 192.255 62.8014L29.4333 88.9305C12.1457 110.468 2.72174 137.222 2.70844 164.8H247.799C247.79 143.412 242.113 122.406 231.345 103.903Z" fill="#F2F2F2"/>
<path d="M178.929 55.2584C162.212 47.1352 143.853 42.9259 125.254 42.9522C87.3997 42.9522 53.5562 60.0531 31.0771 86.9224C69.5703 78.5194 136.59 63.9735 178.929 55.2584Z" fill="#F2F2F2"/>
<path opacity="0.4" d="M203.034 66.999C205.062 66.999 206.706 65.3613 206.706 63.3411C206.706 61.3209 205.062 59.6832 203.034 59.6832C201.007 59.6832 199.363 61.3209 199.363 63.3411C199.363 65.3613 201.007 66.999 203.034 66.999Z" fill="#2F80ED"/>
<path opacity="0.4" d="M196.239 67.6542C197.662 67.6542 198.815 66.5053 198.815 65.0882C198.815 63.671 197.662 62.5222 196.239 62.5222C194.817 62.5222 193.664 63.671 193.664 65.0882C193.664 66.5053 194.817 67.6542 196.239 67.6542Z" fill="#2F80ED"/>
<path opacity="0.4" d="M29.2223 80.6954C33.4691 80.6954 36.9118 77.2655 36.9118 73.0344C36.9118 68.8034 33.4691 65.3735 29.2223 65.3735C24.9756 65.3735 21.5329 68.8034 21.5329 73.0344C21.5329 77.2655 24.9756 80.6954 29.2223 80.6954Z" fill="#2F80ED"/>
<path opacity="0.4" d="M14.9911 82.0675C17.9702 82.0675 20.3852 79.6614 20.3852 76.6934C20.3852 73.7254 17.9702 71.3193 14.9911 71.3193C12.0121 71.3193 9.59705 73.7254 9.59705 76.6934C9.59705 79.6614 12.0121 82.0675 14.9911 82.0675Z" fill="#2F80ED"/>
<path d="M251 164.555H0V165.045H251V164.555Z" fill="#2F2E41"/>
<path d="M222.563 164.555L203.015 135.625C203.015 135.625 232.62 145.922 229.26 164.555H222.563Z" fill="#3F3D56"/>
<path d="M223.331 164.555L242.879 135.625C242.879 135.625 213.274 145.922 216.634 164.555H223.331Z" fill="#2F80ED"/>
<path d="M51.1843 32.5509C51.1843 30.9581 48.9047 29.6669 46.0926 29.6669C46.037 29.6669 45.9819 29.6682 45.9267 29.6692C45.0784 27.0785 41.0683 25.1165 36.2487 25.1165C32.1481 25.1165 28.6336 26.5369 27.1537 28.5562C26.0602 28.2679 24.9334 28.1242 23.8024 28.1287C19.4905 28.1287 15.9951 30.1086 15.9951 32.5509C15.9951 34.7695 18.8796 36.6061 22.6401 36.9241C25.3727 37.4218 29.6411 37.7422 34.4383 37.7422C42.5827 37.7422 48.5421 36.1943 48.6915 35.0309C50.1839 34.528 51.1843 33.6058 51.1843 32.5509Z" fill="#F2F2F2"/>
<path d="M174.224 33.7767C174.224 32.1839 171.944 30.8927 169.132 30.8927C169.076 30.8927 169.021 30.8941 168.966 30.8951C168.118 28.3043 164.108 26.3423 159.288 26.3423C155.187 26.3423 151.673 27.7627 150.193 29.7821C149.099 29.4938 147.973 29.35 146.842 29.3546C142.53 29.3546 139.034 31.3344 139.034 33.7767C139.034 35.9953 141.919 37.8319 145.679 38.1499C148.412 38.6477 152.68 38.968 157.478 38.968C165.622 38.968 171.581 37.4202 171.731 36.2567C173.223 35.7539 174.224 34.8317 174.224 33.7767Z" fill="#F2F2F2"/>
<path d="M242.879 13.0492C242.879 10.2534 238.878 7.987 233.942 7.987C233.845 7.987 233.748 7.9894 233.651 7.99116C232.162 3.44376 225.123 -7.62939e-06 216.664 -7.62939e-06C209.466 -7.62939e-06 203.297 2.49303 200.7 6.03753C198.78 5.53149 196.803 5.2792 194.817 5.28716C187.249 5.28716 181.114 8.76234 181.114 13.0492C181.114 16.9433 186.177 20.167 192.777 20.7251C197.574 21.5989 205.066 22.1611 213.486 22.1611C227.781 22.1611 238.242 19.4443 238.504 17.4021C241.123 16.5196 242.879 14.9008 242.879 13.0492Z" fill="#F2F2F2"/>
<path d="M140.307 71.0755C135.216 62.5068 125.146 62.1074 125.146 62.1074C125.146 62.1074 115.333 60.8572 109.039 73.9074C103.171 86.0713 95.0735 97.8158 107.735 100.663L110.022 93.5715L111.438 101.191C113.241 101.32 115.049 101.351 116.856 101.283C130.415 100.847 143.328 101.411 142.912 96.5635C142.359 90.1193 145.204 79.3202 140.307 71.0755Z" fill="#2F2E41"/>
<path d="M107.012 146.116C106.862 147.058 106.645 147.989 106.363 148.9C106.044 149.793 105.552 150.618 105.261 151.519C104.333 154.393 105.62 157.597 107.675 159.815C109.458 161.731 111.758 163.092 114.3 163.734C116.154 164.199 118.082 164.266 119.993 164.33C125.284 164.509 130.712 164.669 135.726 162.975C137.31 162.427 138.84 161.734 140.297 160.906C140.756 160.688 141.162 160.37 141.483 159.976C141.865 159.433 141.914 158.73 141.911 158.067C141.899 155.832 141.445 153.609 141.553 151.377C141.612 150.14 141.845 148.905 141.73 147.672C141.572 146.272 140.983 144.955 140.045 143.901C139.107 142.847 137.864 142.108 136.488 141.785C135.065 141.481 133.59 141.647 132.142 141.785C128.383 142.145 124.609 142.313 120.833 142.289C116.974 142.265 113.14 141.678 109.301 141.617C108.166 141.598 108.189 141.947 107.827 143.042C107.494 144.049 107.222 145.076 107.012 146.116Z" fill="#2F2E41"/>
<path d="M117.961 90.9322C117.776 91.8994 117.575 92.902 116.992 93.6968C116.321 94.6113 115.226 95.1338 114.504 96.009C113.417 97.3263 113.355 99.18 113.35 100.885C113.346 102.456 113.378 104.132 114.258 105.436C114.828 106.282 115.697 106.875 116.545 107.445C119.843 109.659 123.406 111.913 127.382 111.986C129.029 112.016 130.795 111.592 131.879 110.356C132.347 109.775 132.715 109.121 132.968 108.421C133.985 105.924 134.601 103.284 134.794 100.596C134.885 99.3319 134.876 98.0307 134.447 96.8376C133.964 95.4959 132.987 94.392 132.342 93.12C131.579 91.6075 131.3 89.8982 131.542 88.2227C131.574 88.1047 131.564 87.9793 131.514 87.8678C131.461 87.8081 131.395 87.7615 131.321 87.7315C131.246 87.7016 131.166 87.6891 131.086 87.6951L123.203 87.1297C122.469 87.0934 121.738 87.0101 121.014 86.8803C120.589 86.7942 119.467 86.1929 119.062 86.3528C118.312 86.6487 118.115 90.1301 117.961 90.9322Z" fill="#FFB8B8"/>
<path opacity="0.1" d="M117.961 90.9322C117.776 91.8994 117.575 92.902 116.992 93.6968C116.321 94.6113 115.226 95.1338 114.504 96.009C113.417 97.3263 113.355 99.18 113.35 100.885C113.346 102.456 113.378 104.132 114.258 105.436C114.828 106.282 115.697 106.875 116.545 107.445C119.843 109.659 123.406 111.913 127.382 111.986C129.029 112.016 130.795 111.592 131.879 110.356C132.347 109.775 132.715 109.121 132.968 108.421C133.985 105.924 134.601 103.284 134.794 100.596C134.885 99.3319 134.876 98.0307 134.447 96.8376C133.964 95.4959 132.987 94.392 132.342 93.12C131.579 91.6075 131.3 89.8982 131.542 88.2227C131.574 88.1047 131.564 87.9793 131.514 87.8678C131.461 87.8081 131.395 87.7615 131.321 87.7315C131.246 87.7016 131.166 87.6891 131.086 87.6951L123.203 87.1297C122.469 87.0934 121.738 87.0101 121.014 86.8803C120.589 86.7942 119.467 86.1929 119.062 86.3528C118.312 86.6487 118.115 90.1301 117.961 90.9322Z" fill="black"/>
<path d="M125.5 91.9854C131.888 91.9854 137.066 86.8264 137.066 80.4626C137.066 74.0987 131.888 68.9398 125.5 68.9398C119.112 68.9398 113.934 74.0987 113.934 80.4626C113.934 86.8264 119.112 91.9854 125.5 91.9854Z" fill="#FFB8B8"/>
<path d="M119.583 106.271C120.186 106.899 120.825 107.52 121.615 107.888C122.419 108.219 123.282 108.383 124.152 108.37C126.237 108.428 128.497 108.047 129.948 106.554C131.817 104.629 131.756 101.524 133.221 99.2788C133.339 99.0751 133.5 98.8996 133.693 98.7642C133.939 98.6309 134.217 98.5673 134.496 98.5803C136.347 98.563 137.959 99.7589 139.414 100.899C140.066 101.409 140.734 101.938 141.145 102.655C141.433 103.215 141.63 103.816 141.729 104.436C142.451 107.948 142.685 111.538 142.917 115.115C143.045 117.091 143.173 119.069 143.164 121.049C143.132 127.571 141.611 133.985 140.097 140.331C139.902 141.149 139.636 142.063 138.889 142.455C138.557 142.604 138.199 142.69 137.835 142.711C133.501 143.218 129.157 143.726 124.794 143.793C123.091 143.819 121.389 143.778 119.687 143.67C119.395 143.666 119.104 143.615 118.827 143.52C118.451 143.34 118.128 143.067 117.89 142.727C115.529 139.763 115.39 135.667 115.405 131.884C115.442 122.635 115.774 113.393 116.4 104.159C116.452 103.397 116.463 102.471 115.912 101.872C116.904 103.455 118.285 104.919 119.583 106.271Z" fill="#D0CDE1"/>
<path d="M117.133 92.9661C116.743 93.6705 113.863 95.4199 113.307 96.0037C110.2 99.266 104.531 99.1436 101.69 102.638C100.69 103.867 100.171 105.412 99.7888 106.947C99.2486 109.119 98.9601 111.488 99.865 113.536C100.736 115.506 102.569 116.869 103.813 118.629C105.18 120.562 105.794 122.908 106.383 125.198C106.818 126.889 107.256 128.622 107.087 130.36C106.894 132.335 105.935 134.144 105.368 136.046C104.802 137.949 104.704 140.215 106.014 141.71C106.976 142.809 108.485 143.244 109.928 143.489C111.776 143.766 113.639 143.928 115.507 143.973C117.156 144.046 118.974 144.06 120.242 143.007C121.242 142.176 121.677 140.827 121.733 139.53C121.79 138.234 121.519 136.949 121.349 135.662C121.173 134.328 121.106 132.983 121.049 131.639C120.796 125.608 120.761 119.573 120.946 113.535C120.984 112.278 121.031 111.006 120.762 109.778C120.408 108.163 119.532 106.719 118.801 105.235C117.349 102.289 116.663 99.4275 116.887 96.1532C117.109 92.9214 118.523 90.4592 117.133 92.9661Z" fill="#2F80ED"/>
<path d="M133.374 93.2112C133.969 93.8205 135.991 94.0213 136.748 94.4137C137.46 94.7413 138.203 94.9976 138.966 95.1787C141.727 95.9722 144.353 97.1729 146.757 98.7411C147.256 99.0322 147.698 99.4123 148.059 99.8623C148.483 100.449 148.637 101.181 148.78 101.89C149.151 103.719 149.523 105.57 149.44 107.434C149.352 109.413 148.753 111.329 148.16 113.219L145.942 120.282C144.287 125.554 142.621 130.878 142.156 136.383C141.898 139.433 142.013 142.504 142.497 145.527C142.546 145.831 142.586 146.18 142.385 146.413C142.239 146.557 142.047 146.645 141.842 146.662C140.772 146.829 139.736 146.285 138.766 145.804C135.803 144.334 132.64 143.303 129.377 142.743C130.652 140.907 131.636 138.887 132.293 136.754C132.667 135.399 132.961 134.023 133.174 132.634L134.206 126.69C134.626 124.518 134.921 122.323 135.091 120.117C135.169 119.289 135.121 118.454 134.947 117.641C134.71 116.867 134.394 116.119 134.005 115.408C132.305 111.885 131.507 107.864 132.176 104.012C132.469 102.327 133.038 100.639 132.801 98.9443C132.573 97.3153 132.81 96.0492 132.39 94.437C130.668 87.8176 132.255 92.065 133.374 93.2112Z" fill="#2F80ED"/>
<path d="M101.66 108.208C100.885 109.81 99.5894 111.175 99.1484 112.899C98.9768 113.705 98.9033 114.528 98.9294 115.351C98.9189 116.591 98.9122 117.857 99.2945 119.037C99.5406 119.798 99.9411 120.498 100.23 121.244C100.632 122.285 100.811 123.398 100.755 124.512C100.678 126.055 100.151 127.554 100.11 129.099C100.046 131.528 101.173 133.812 102.274 135.981C102.551 135.297 102.974 134.682 103.515 134.179C104.055 133.676 104.7 133.296 105.403 133.067C106.106 132.838 106.851 132.764 107.585 132.852C108.32 132.939 109.026 133.185 109.655 133.573C109.946 133.306 109.977 132.867 109.988 132.474C110.069 129.655 110.148 126.837 110.223 124.018C110.342 119.659 110.456 115.241 109.449 110.997C108.995 109.081 108.288 107.172 106.992 105.686C106.309 104.904 103.992 102.842 102.871 103.719C102.367 104.113 102.485 105.186 102.405 105.73C102.285 106.589 102.034 107.425 101.66 108.208Z" fill="#2F80ED"/>
<path d="M149.666 103.591C150.033 104.728 150.055 105.943 150.062 107.137C150.077 109.574 150.045 112.01 149.965 114.446C149.924 115.693 149.868 116.957 149.489 118.146C149.238 118.93 148.852 119.666 148.594 120.447C147.819 122.789 148.242 125.329 148.309 127.794C148.355 128.592 148.287 129.393 148.106 130.171C147.697 131.699 146.598 132.934 145.831 134.319C145.103 135.634 144.664 137.108 143.794 138.335C142.924 139.562 141.418 140.534 139.959 140.157C138.853 139.872 138.067 138.897 137.524 137.896C136.338 135.695 135.932 133.16 136.373 130.701C136.918 127.709 138.682 125.054 139.319 122.08C140.192 117.996 138.864 113.782 138.904 109.606C138.886 108.952 138.975 108.299 139.168 107.673C139.502 106.719 140.218 105.957 140.88 105.192C141.708 104.236 142.476 103.231 143.182 102.183C143.656 101.479 144.299 99.6673 145.14 99.5167C147.016 99.1805 149.201 102.146 149.666 103.591Z" fill="#2F80ED"/>
<path d="M91.9252 144.299C90.8877 144.039 89.8187 143.926 88.7496 143.963C87.6263 144.025 86.5291 144.324 85.531 144.841C84.5328 145.358 83.6565 146.081 82.9605 146.962C82.2644 147.842 81.7645 148.86 81.494 149.948C81.2234 151.036 81.1884 152.169 81.3914 153.271C81.6504 154.466 82.0739 155.618 82.6497 156.697C83.4918 158.4 84.5019 160.099 86.061 161.19C86.973 161.828 88.0285 162.226 89.0716 162.618L97.2829 165.7C98.4908 166.153 99.699 166.606 100.919 167.027C107.048 169.137 113.438 170.403 119.911 170.788C121.882 170.905 123.884 170.938 125.807 170.491C126.264 170.385 126.751 170.226 127.015 169.841C127.171 169.569 127.264 169.265 127.285 168.953L127.79 165.429C127.861 164.932 127.93 164.41 127.747 163.943C127.516 163.351 126.935 162.978 126.382 162.662C120.984 159.572 114.681 157.868 110.137 153.629C109.067 152.63 108.172 151.048 106.872 150.37C105.398 149.602 103.663 149.163 102.139 148.454C98.809 146.906 95.5346 145.126 91.9252 144.299Z" fill="#2F2E41"/>
<path opacity="0.1" d="M100.123 149.05C103.025 149.956 115.279 156.234 117.379 158.425C117.098 158.526 107.546 153.193 107.259 153.107C104.654 152.328 102.034 151.544 99.5598 150.404C99.0621 150.175 96.3262 149.097 96.4501 148.471C96.5899 147.765 99.6077 148.889 100.123 149.05Z" fill="black"/>
<path d="M136.332 172.616C136.496 172.628 136.66 172.58 136.792 172.481C136.85 172.407 136.892 172.322 136.917 172.232C136.942 172.141 136.948 172.047 136.936 171.954C136.931 170.353 136.927 168.753 136.922 167.153C135.536 166.495 133.986 166.284 132.465 166.081L125.366 165.136C125.529 165.158 124.256 168.182 124.451 168.586C124.795 169.298 127.424 169.928 128.166 170.264C130.746 171.433 133.426 172.717 136.332 172.616Z" fill="#FFB8B8"/>
<path d="M114.059 167.136C112.718 167.349 111.222 167.537 110.354 168.576C109.253 169.894 109.722 171.86 110.247 173.493C110.325 173.823 110.482 174.13 110.704 174.387C111.062 174.739 111.611 174.791 112.114 174.823C113.336 174.9 114.637 174.96 115.705 174.363C116.189 174.044 116.654 173.699 117.1 173.33C117.888 172.808 118.753 172.413 119.665 172.161C121.341 171.636 123.066 171.282 124.814 171.104C125.502 171.073 126.184 170.953 126.842 170.748C127.486 170.506 128.083 170.027 128.27 169.366C128.518 168.494 128.009 167.604 127.521 166.839C126.913 165.886 126.268 164.882 125.362 164.181C124.039 163.157 123.384 163.943 122.052 164.598C119.53 165.838 116.836 166.693 114.059 167.136Z" fill="#FFB8B8"/>
<path d="M110.556 168.339L102.045 165.833C101.01 165.528 99.9572 165.22 98.8779 165.221C97.7985 165.222 96.6693 165.575 95.9693 166.393C95.3093 167.165 95.1204 168.219 94.9559 169.22L94.6039 171.36C94.4251 172.448 94.2459 173.556 94.4069 174.647C94.5679 175.737 95.1266 176.826 96.0976 177.354C97.2754 177.994 98.7188 177.682 100.033 177.414C102.688 176.873 105.389 176.585 108.098 176.552C109.117 176.54 110.186 176.553 111.086 176.077C112.156 175.512 112.796 174.318 112.906 173.116C113.074 171.288 112.462 168.9 110.556 168.339Z" fill="#2F2E41"/>
<path d="M139.677 166.155C140.78 165.962 141.754 165.337 142.811 164.969C144.299 164.45 145.912 164.45 147.489 164.455C148.067 164.458 148.684 164.47 149.165 164.79C149.86 165.251 150.038 166.172 150.156 166.995L150.868 171.96C151.002 172.894 151.136 173.852 150.927 174.772C150.718 175.692 150.088 176.579 149.172 176.817C148.059 177.105 146.968 176.397 145.917 175.931C143.291 174.768 140.238 175.066 137.499 174.196C136.991 174.035 136.447 173.788 136.24 173.299C136.146 173.023 136.112 172.731 136.142 172.441C136.188 170.845 135.851 168.666 136.333 167.141C136.767 165.77 138.446 166.155 139.677 166.155Z" fill="#2F2E41"/>
<path d="M157.688 142.301C159.388 141.876 161.151 141.756 162.894 141.947C164.286 142.099 165.72 142.485 166.736 143.445C167.973 144.613 168.37 146.42 168.404 148.118C168.458 151.499 167.332 154.794 165.219 157.44C164.703 158.11 164.089 158.698 163.398 159.187C162.653 159.651 161.858 160.033 161.029 160.324L142.64 167.55C137.803 169.451 132.948 171.358 127.902 172.611C127.764 172.678 127.614 172.716 127.461 172.724C127.308 172.731 127.155 172.709 127.011 172.657C126.867 172.604 126.735 172.524 126.622 172.421C126.51 172.317 126.419 172.192 126.356 172.053C124.745 169.76 123.393 167.297 122.326 164.708C122.275 164.646 122.24 164.573 122.224 164.496C122.208 164.418 122.21 164.337 122.232 164.261C122.253 164.184 122.293 164.114 122.348 164.056C122.402 163.998 122.47 163.954 122.545 163.927L135.552 156.482C136.484 155.949 137.426 155.408 138.199 154.665C138.761 154.122 139.222 153.483 139.558 152.779C139.828 152.218 139.853 150.894 140.198 150.48C140.535 150.074 141.688 150.041 142.221 149.882C142.972 149.652 143.708 149.375 144.424 149.052C147.333 147.755 149.924 145.871 152.713 144.353C154.277 143.462 155.949 142.772 157.688 142.301Z" fill="#2F2E41"/>
<path opacity="0.1" d="M150.314 147.861C148.08 149.533 145.186 151.07 142.972 152.787C142.216 153.372 129.615 160.43 129.437 161.367C131.503 161.714 144.665 152.541 146.548 151.625C148.432 150.71 150.101 149.419 151.755 148.138C152.177 147.811 153.963 146.829 152.753 146.465C152.071 146.259 150.818 147.527 150.314 147.861Z" fill="black"/>
<path d="M138.056 70.2494L128.107 65.0575L114.368 67.1814L111.526 79.6895L118.602 79.4184L120.578 74.823V79.3426L123.843 79.2173L125.738 71.9016L126.923 79.6895L138.53 79.4534L138.056 70.2494Z" fill="#2F2E41"/>
<path d="M135.835 95.908H114.426V121.65H135.835V95.908Z" fill="#3F3D56"/>
<path d="M104.263 140.681C104.755 141.412 105.331 142.127 106.12 142.522C106.624 142.751 107.173 142.862 107.726 142.847C108.28 142.832 108.822 142.692 109.312 142.436C110.292 141.913 111.094 141.112 111.616 140.135C112.698 138.233 112.921 135.957 112.787 133.775C112.652 131.593 112.184 129.444 111.977 127.268C111.827 125.686 111.814 124.094 111.802 122.505C111.765 122.171 111.835 121.834 112.003 121.542C112.243 121.216 112.681 121.126 113.07 121.011C115.252 120.365 116.7 118.328 117.739 116.309C118.432 114.962 119.035 113.488 118.901 111.98C118.768 110.471 117.679 108.951 116.167 108.798C114.92 108.671 113.769 109.46 112.87 110.329C110.601 112.536 109.143 115.439 108.73 118.572C108.533 120.106 108.589 121.681 108.171 123.17C107.277 126.35 104.479 128.299 103.085 131.16C101.549 134.313 102.397 137.892 104.263 140.681Z" fill="#FFB8B8"/>
<path d="M145.43 128.534C145.112 129.271 144.649 129.938 144.068 130.494C143.487 131.05 142.8 131.484 142.048 131.772C141.113 132.146 140.082 132.209 139.108 131.951C138.625 131.818 138.179 131.575 137.806 131.242C137.432 130.909 137.141 130.495 136.954 130.032C136.805 129.565 136.723 129.08 136.711 128.59C136.572 126.446 136.626 124.236 137.407 122.234C137.709 121.462 138.115 120.729 138.353 119.935C138.587 119.018 138.707 118.075 138.709 117.129L138.966 111.279C139.009 110.854 138.979 110.425 138.879 110.01C138.623 109.164 137.829 108.614 137.1 108.109C135.341 106.89 133.602 105.467 132.749 103.508C132.456 102.918 132.351 102.253 132.448 101.602C132.689 100.441 133.866 99.6887 135.029 99.4353C135.79 99.2695 136.576 99.2589 137.342 99.4042C138.107 99.5494 138.835 99.8475 139.481 100.28C140.128 100.713 140.679 101.272 141.103 101.923C141.527 102.574 141.815 103.304 141.948 104.069C142.063 104.729 142.061 105.404 142.129 106.07C142.272 107.485 142.722 108.848 143.004 110.241C143.699 113.673 143.339 117.221 144.025 120.653C144.6 123.522 146.765 125.394 145.43 128.534Z" fill="#FFB8B8"/>
<path d="M12.9513 164.314L12.4592 164.305C12.6495 158.853 13.2334 153.422 14.2062 148.053C16.3344 136.56 19.8732 129.011 24.7244 125.618L25.007 126.019C13.6747 133.946 12.9571 164.011 12.9513 164.314Z" fill="#2F2E41"/>
<path d="M19.1033 164.197L18.6111 164.187C18.6217 163.644 18.9293 150.847 23.9862 147.31L24.2688 147.711C19.4159 151.105 19.1057 164.066 19.1033 164.197Z" fill="#2F2E41"/>
<path d="M27.8069 126.063C29.1659 126.063 30.2676 124.966 30.2676 123.612C30.2676 122.258 29.1659 121.16 27.8069 121.16C26.4478 121.16 25.3461 122.258 25.3461 123.612C25.3461 124.966 26.4478 126.063 27.8069 126.063Z" fill="#2F80ED"/>
<path d="M26.5882 147.148C27.9473 147.148 29.049 146.05 29.049 144.696C29.049 143.342 27.9473 142.244 26.5882 142.244C25.2292 142.244 24.1274 143.342 24.1274 144.696C24.1274 146.05 25.2292 147.148 26.5882 147.148Z" fill="#2F80ED"/>
<path d="M17.9563 127.533C18.4187 130.476 17.2134 133.108 17.2134 133.108C17.2134 133.108 15.2582 130.969 14.7957 128.026C14.3333 125.083 15.5386 122.451 15.5386 122.451C15.5386 122.451 17.4938 124.59 17.9563 127.533Z" fill="#2F2E41"/>
<path d="M25.9999 134.681C23.1717 135.647 20.36 134.923 20.36 134.923C20.36 134.923 22.1338 132.632 24.9619 131.666C27.7901 130.699 30.6018 131.423 30.6018 131.423C30.6018 131.423 28.828 133.714 25.9999 134.681Z" fill="#2F2E41"/>
<path d="M26.0907 153.353C24.8107 153.753 23.4475 153.812 22.1376 153.523C22.9694 152.468 24.0895 151.675 25.3632 151.24C26.6368 150.804 28.0097 150.745 29.3162 151.07C28.4603 152.099 27.348 152.886 26.0907 153.353Z" fill="#2F2E41"/>
</g>
<defs>
<clipPath id="clip0">
<rect width="251" height="180" fill="white"/>
</clipPath>
</defs>
</svg>
