<svg width="928" height="682" viewBox="0 0 928 682" fill="none" xmlns="http://www.w3.org/2000/svg">
<path opacity="0.46" d="M449.59 87.29C329.41 87.29 222.16 144.75 151.82 234.64L620 128.71C567.333 101.458 508.89 87.253 449.59 87.29V87.29Z" fill="#F2F2F2"/>
<path opacity="0.46" d="M833.19 485.93C833.308 424.16 819.46 363.163 792.68 307.5L719.68 330.25L784.6 291.7C772.845 269.84 759.082 249.121 743.49 229.81L458.67 285.43L707.92 191.24C696.346 180.293 684.113 170.064 671.29 160.61L148.65 238.74C96.9 306.69 66 392.61 66 485.93C66 486.72 66 487.51 66 488.29H833.13C833.16 487.51 833.19 486.72 833.19 485.93Z" fill="#F2F2F2"/>
<path opacity="0.4" d="M908.11 531.5H19.89C8.89001 531.5 0 523.93 0 514.58C0 505.23 8.90001 497.66 19.89 497.66H908.11C919.11 497.66 928 505.23 928 514.58C928 523.93 919.1 531.5 908.11 531.5Z" fill="#2F7FEA"/>
<path d="M144.407 387.954H63.6887V442.607H158.421V476.38H21.6477V272.341H158.141V306.394H63.6887V355.022H144.407V387.954ZM258.619 401.687H225.126V476.38H183.085V272.341H258.899C283.003 272.341 301.594 277.713 314.674 288.457C327.753 299.2 334.293 314.382 334.293 334.001C334.293 347.921 331.256 359.553 325.184 368.895C319.205 378.144 310.096 385.525 297.857 391.037L342 474.418V476.38H296.876L258.619 401.687ZM225.126 367.634H259.039C269.596 367.634 277.771 364.971 283.563 359.646C289.356 354.227 292.252 346.8 292.252 337.364C292.252 327.742 289.496 320.174 283.984 314.662C278.565 309.15 270.204 306.394 258.899 306.394H225.126V367.634ZM441.918 401.687H408.425V476.38H366.384V272.341H442.198C466.302 272.341 484.893 277.713 497.972 288.457C511.052 299.2 517.592 314.382 517.592 334.001C517.592 347.921 514.555 359.553 508.483 368.895C502.503 378.144 493.395 385.525 481.156 391.037L525.299 474.418V476.38H480.175L441.918 401.687ZM408.425 367.634H442.338C452.895 367.634 461.07 364.971 466.862 359.646C472.654 354.227 475.551 346.8 475.551 337.364C475.551 327.742 472.795 320.174 467.282 314.662C461.864 309.15 453.502 306.394 442.198 306.394H408.425V367.634ZM717.286 378.985C717.286 399.071 713.736 416.682 706.636 431.817C699.536 446.951 689.352 458.629 676.086 466.851C662.913 475.072 647.779 479.183 630.682 479.183C613.772 479.183 598.684 475.119 585.418 466.991C572.151 458.863 561.875 447.278 554.588 432.237C547.301 417.102 543.61 399.725 543.517 380.106V370.016C543.517 349.93 547.114 332.273 554.307 317.045C561.594 301.723 571.824 289.998 584.997 281.87C598.264 273.649 613.398 269.538 630.402 269.538C647.405 269.538 662.493 273.649 675.666 281.87C688.932 289.998 699.162 301.723 706.356 317.045C713.643 332.273 717.286 349.883 717.286 369.876V378.985ZM674.685 369.736C674.685 348.342 670.854 332.086 663.194 320.968C655.533 309.851 644.602 304.292 630.402 304.292C616.295 304.292 605.411 309.804 597.75 320.828C590.089 331.759 586.212 347.828 586.118 369.035V378.985C586.118 399.819 589.949 415.981 597.61 427.472C605.27 438.963 616.295 444.709 630.682 444.709C644.789 444.709 655.626 439.197 663.194 428.173C670.761 417.055 674.591 400.893 674.685 379.686V369.736ZM823.37 401.687H789.877V476.38H747.836V272.341H823.65C847.754 272.341 866.345 277.713 879.425 288.457C892.504 299.2 899.044 314.382 899.044 334.001C899.044 347.921 896.007 359.553 889.935 368.895C883.956 378.144 874.847 385.525 862.608 391.037L906.751 474.418V476.38H861.627L823.37 401.687ZM789.877 367.634H823.79C834.347 367.634 842.522 364.971 848.314 359.646C854.107 354.227 857.003 346.8 857.003 337.364C857.003 327.742 854.247 320.174 848.735 314.662C843.316 309.15 834.955 306.394 823.65 306.394H789.877V367.634Z" fill="#2F7FEA"/>
<path d="M292.91 74.52V117.21" stroke="#262525" stroke-width="3" stroke-miterlimit="10"/>
<path d="M374.03 3.28999H211.79V86.47H374.03V3.28999Z" fill="#49D77B"/>
<path d="M597.79 283.66C599.51 285.39 600.43 288.32 601.16 290.38C602.59 294.47 603.94 298.59 605.28 302.71C606.62 306.83 608 311.22 607.28 315.53C607.197 316.396 606.924 317.234 606.479 317.982C606.035 318.731 605.431 319.372 604.71 319.86C603.692 320.381 602.518 320.512 601.41 320.23C598.5 319.57 596.41 316.95 595.27 314.23C594.13 311.51 593.66 308.49 592.59 305.71C590.72 300.82 586.96 295.82 581.59 295.23C578.81 294.93 575.21 294.65 573.28 292.32C571.35 289.99 571.16 284.67 573.91 282.83C574.825 282.262 575.846 281.884 576.91 281.72C580.36 281.07 583.78 281.42 587.25 281.72C590.25 281.96 593.51 281.38 596.35 282.66C596.884 282.908 597.371 283.247 597.79 283.66V283.66Z" fill="white" stroke="black" stroke-miterlimit="10"/>
<path d="M302.25 131.83C302.79 129.39 303.307 126.947 303.8 124.5C304.85 119.32 307.68 113.96 303.66 109.39C300.1 105.39 292.66 106.74 288.46 109.19C284.26 111.64 281.46 116.56 282.46 121.26C282.946 123.279 284.068 125.088 285.659 126.422C287.25 127.756 289.227 128.544 291.3 128.67C290.18 132.283 289.157 135.92 288.23 139.58C286.9 144.81 290.11 146.65 294.79 145.66C295.982 145.494 297.121 145.06 298.12 144.39C299.51 143.3 300.02 141.45 300.44 139.73C301.067 137.103 301.67 134.47 302.25 131.83Z" fill="white" stroke="black" stroke-miterlimit="10"/>
<path d="M581.38 277.37C580.68 277.22 579.98 277.06 579.28 276.93C557.19 272.85 533.16 266.08 510.59 268.16C505.74 268.6 500.93 269.53 496.06 269.83C479.62 270.83 463.86 265.04 448.06 261.59C441.61 260.18 435.18 259.43 428.75 258.1C420.9 256.47 412.75 258.1 404.87 257.1C397.95 256.2 391.18 253.2 384.25 254.1C375.25 255.22 367.38 260.77 365.03 269.65C363.86 274.1 364.42 278.82 365.46 283.3C366.46 287.5 368.11 291.96 371.85 294.1C379.67 298.56 394.44 295.68 403.11 295.82C414.85 296.02 426.59 296.41 438.32 296.82C461.44 297.59 484.58 298.39 507.72 297.82C531.53 297.22 555.35 297.82 579.17 298.63C579.94 291.51 580.7 284.44 581.38 277.37Z" fill="#062146"/>
<path d="M190.22 323.77C186.75 327.48 184.98 332.43 183.69 337.27C182.821 340.105 182.741 343.123 183.46 346C184.52 349.54 187.8 352.82 191.74 352C192.997 351.659 194.109 350.919 194.908 349.891C195.707 348.862 196.15 347.602 196.17 346.3C196.144 345.602 195.974 344.917 195.671 344.287C195.368 343.657 194.939 343.097 194.41 342.64C194.523 341.44 194.707 340.248 194.96 339.07C195.025 338.626 195.208 338.209 195.49 337.86C196.62 336.74 196.96 338.49 196.89 339.26C196.82 340.03 195.99 342.26 196.99 342.72C197.65 342.97 198.17 342.13 198.35 341.44C198.903 338.971 199.238 336.458 199.35 333.93L199.89 327C199.99 326.247 199.99 325.483 199.89 324.73C199.642 323.605 199.004 322.604 198.089 321.903C197.174 321.202 196.041 320.847 194.89 320.9C193.061 321.319 191.42 322.327 190.22 323.77V323.77Z" fill="white" stroke="black" stroke-miterlimit="10"/>
<path opacity="0.31" d="M660.09 205.49L658.35 206.32C658.098 206.43 657.816 206.453 657.549 206.384C657.283 206.315 657.047 206.159 656.88 205.94C655.443 203.988 653.631 202.343 651.55 201.1C651.325 200.954 651.154 200.737 651.065 200.484C650.977 200.23 650.975 199.955 651.06 199.7L651.91 197.19C652.01 196.895 651.99 196.574 651.856 196.293C651.721 196.013 651.482 195.796 651.19 195.69L646.09 193.84C645.796 193.733 645.471 193.747 645.186 193.878C644.902 194.009 644.68 194.247 644.57 194.54L643.57 197.05C643.479 197.292 643.312 197.497 643.093 197.634C642.875 197.771 642.617 197.833 642.36 197.81C639.913 197.603 637.448 197.768 635.05 198.3C634.771 198.374 634.476 198.361 634.204 198.262C633.933 198.164 633.697 197.985 633.53 197.75L632.42 195.4C632.14 194.81 631.67 193.94 631.08 194.22L626.16 196.55C625.862 196.793 625.649 197.124 625.552 197.497C625.454 197.869 625.478 198.262 625.62 198.62L626.73 200.97C626.859 201.199 626.903 201.466 626.854 201.725C626.804 201.983 626.665 202.215 626.46 202.38C624.721 203.8 623.219 205.488 622.01 207.38C621.871 207.61 621.656 207.784 621.402 207.871C621.148 207.959 620.871 207.955 620.62 207.86L618.27 206.99C618.123 206.934 617.966 206.909 617.809 206.914C617.652 206.92 617.498 206.957 617.356 207.023C617.213 207.089 617.085 207.183 616.98 207.3C616.874 207.416 616.792 207.552 616.74 207.7L614.96 212.7C614.859 212.991 614.874 213.309 615.003 213.589C615.131 213.869 615.363 214.088 615.65 214.2L618.23 215.2C618.476 215.296 618.683 215.47 618.819 215.697C618.955 215.923 619.011 216.188 618.98 216.45C618.635 218.856 618.767 221.306 619.37 223.66C619.434 223.926 619.406 224.206 619.292 224.454C619.178 224.702 618.983 224.905 618.74 225.03L616.54 226.08C616.238 226.199 615.991 226.428 615.85 226.721C615.709 227.014 615.684 227.349 615.78 227.66L618.12 232.59C618.4 233.18 619.12 233.16 619.76 232.88L621.95 231.88C622.205 231.784 622.485 231.772 622.747 231.846C623.01 231.919 623.242 232.075 623.41 232.29C624.881 234.089 626.613 235.656 628.55 236.94C628.775 237.093 628.943 237.317 629.026 237.576C629.11 237.835 629.104 238.115 629.01 238.37L628.22 240.47C628.164 240.619 628.139 240.777 628.145 240.936C628.151 241.095 628.189 241.251 628.256 241.396C628.323 241.54 628.418 241.669 628.535 241.777C628.653 241.884 628.79 241.966 628.94 242.02L633.94 243.76C634.089 243.813 634.247 243.836 634.405 243.827C634.563 243.818 634.717 243.777 634.859 243.707C635.001 243.637 635.127 243.539 635.23 243.419C635.333 243.3 635.412 243.161 635.46 243.01L636.14 240.92C636.228 240.657 636.405 240.434 636.641 240.288C636.876 240.142 637.156 240.082 637.43 240.12C639.707 240.398 642.014 240.304 644.26 239.84C644.516 239.794 644.78 239.837 645.008 239.963C645.236 240.088 645.413 240.289 645.51 240.53L646.58 242.78C646.86 243.38 647.64 243.34 648.23 243.06L653.15 240.72C653.75 240.44 653.66 240.15 653.38 239.56L652.32 237.31C652.242 237.031 652.251 236.736 652.346 236.462C652.44 236.189 652.616 235.951 652.85 235.78C654.789 234.237 656.476 232.402 657.85 230.34C658.005 230.116 658.228 229.949 658.485 229.862C658.743 229.776 659.022 229.775 659.28 229.86L661.55 230.63C661.85 230.733 662.178 230.714 662.464 230.578C662.75 230.441 662.971 230.198 663.08 229.9L664.89 224.9C664.943 224.749 664.966 224.589 664.956 224.429C664.947 224.27 664.905 224.113 664.834 223.97C664.764 223.826 664.665 223.699 664.544 223.594C664.423 223.489 664.282 223.41 664.13 223.36L662.13 222.73C661.868 222.654 661.641 222.488 661.489 222.261C661.337 222.034 661.27 221.761 661.3 221.49C661.534 219.152 661.413 216.792 660.94 214.49C660.883 214.224 660.912 213.946 661.021 213.697C661.13 213.447 661.316 213.239 661.55 213.1L663.29 212.27C663.88 211.99 663.78 211.7 663.5 211.1L661.17 206.18C660.92 205.61 660.69 205.21 660.09 205.49ZM644.73 229.29C642.684 230.26 640.396 230.602 638.155 230.272C635.915 229.942 633.822 228.955 632.143 227.436C630.463 225.917 629.272 223.934 628.72 221.738C628.167 219.541 628.278 217.231 629.039 215.097C629.8 212.964 631.176 211.105 632.994 209.754C634.812 208.403 636.99 207.622 639.251 207.509C641.513 207.396 643.758 207.956 645.701 209.118C647.645 210.281 649.2 211.994 650.17 214.04C650.815 215.398 651.187 216.871 651.262 218.372C651.338 219.874 651.117 221.376 650.612 222.793C650.107 224.209 649.327 225.512 648.318 226.627C647.309 227.742 646.089 228.647 644.73 229.29V229.29Z" fill="#ACCBFA"/>
<path opacity="0.31" d="M721.68 238.44L719.32 239.55C718.979 239.709 718.594 239.745 718.229 239.652C717.864 239.559 717.543 239.343 717.32 239.04C715.375 236.406 712.928 234.184 710.12 232.5C709.814 232.307 709.582 232.017 709.462 231.675C709.342 231.334 709.341 230.962 709.46 230.62L710.61 227.23C710.732 226.832 710.697 226.402 710.51 226.03C710.324 225.657 710.002 225.371 709.61 225.23L702.72 222.74C702.33 222.609 701.904 222.634 701.532 222.809C701.159 222.984 700.868 223.296 700.72 223.68L699.44 227.06C699.316 227.385 699.088 227.659 698.791 227.84C698.494 228.021 698.146 228.098 697.8 228.06C694.498 227.783 691.174 228.009 687.94 228.73C687.57 228.816 687.183 228.79 686.827 228.657C686.471 228.523 686.162 228.288 685.94 227.98L684.44 224.81C684.06 224.01 683.44 222.81 682.63 223.21L675.97 226.37C675.17 226.75 674.87 228.37 675.25 229.16L676.75 232.34C676.922 232.649 676.98 233.008 676.914 233.355C676.848 233.702 676.663 234.015 676.39 234.24C674.044 236.153 672.019 238.429 670.39 240.98C670.2 241.289 669.909 241.522 669.566 241.641C669.223 241.759 668.85 241.755 668.51 241.63L665.34 240.44C665.139 240.366 664.926 240.334 664.712 240.344C664.499 240.355 664.29 240.409 664.097 240.502C663.905 240.595 663.734 240.727 663.593 240.888C663.453 241.049 663.346 241.237 663.28 241.44L660.88 248.24C660.749 248.629 660.772 249.054 660.945 249.426C661.118 249.798 661.428 250.09 661.81 250.24L665.29 251.59C665.621 251.717 665.9 251.952 666.081 252.257C666.262 252.561 666.336 252.918 666.29 253.27C665.819 256.52 665.999 259.831 666.82 263.01C666.908 263.37 666.872 263.75 666.718 264.088C666.564 264.425 666.3 264.701 665.97 264.87L662.97 266.27C662.564 266.437 662.236 266.752 662.05 267.15C661.865 267.548 661.836 268.002 661.97 268.42L665.12 275.07C665.5 275.87 666.54 275.84 667.34 275.46L670.34 274.06C670.688 273.926 671.071 273.908 671.43 274.007C671.79 274.106 672.109 274.317 672.34 274.61C674.322 277.043 676.662 279.16 679.28 280.89C679.583 281.097 679.809 281.399 679.921 281.749C680.034 282.098 680.026 282.475 679.9 282.82L678.83 285.66C678.754 285.863 678.721 286.078 678.73 286.294C678.74 286.51 678.793 286.722 678.886 286.917C678.98 287.112 679.111 287.287 679.273 287.43C679.436 287.573 679.625 287.682 679.83 287.75L686.52 290.1C686.721 290.171 686.934 290.201 687.146 290.189C687.359 290.177 687.567 290.123 687.759 290.03C687.95 289.937 688.122 289.807 688.263 289.647C688.404 289.488 688.511 289.302 688.58 289.1L689.49 286.28C689.611 285.927 689.851 285.627 690.168 285.43C690.485 285.233 690.86 285.152 691.23 285.2C694.303 285.579 697.417 285.454 700.45 284.83C700.797 284.765 701.156 284.822 701.466 284.992C701.776 285.161 702.018 285.433 702.15 285.76L703.59 288.76C703.97 289.56 705.02 289.51 705.82 289.13L712.47 285.98C713.27 285.6 713.16 285.21 712.78 284.41L711.34 281.41C711.234 281.035 711.246 280.637 711.372 280.269C711.499 279.901 711.736 279.58 712.05 279.35C714.678 277.267 716.965 274.787 718.83 272C719.038 271.698 719.339 271.471 719.687 271.354C720.035 271.237 720.411 271.235 720.76 271.35L723.84 272.35C724.238 272.472 724.668 272.437 725.04 272.25C725.413 272.064 725.699 271.742 725.84 271.35L728.29 264.57C728.364 264.368 728.397 264.153 728.386 263.938C728.376 263.723 728.322 263.513 728.229 263.319C728.136 263.125 728.005 262.952 727.844 262.809C727.682 262.667 727.494 262.558 727.29 262.49L724.59 261.64C724.238 261.533 723.933 261.307 723.729 261.001C723.525 260.694 723.433 260.326 723.47 259.96C723.785 256.824 723.624 253.658 722.99 250.57C722.912 250.209 722.951 249.833 723.1 249.495C723.249 249.158 723.501 248.876 723.82 248.69L726 247.61C726.8 247.23 726.67 246.83 726.29 246.03L723.13 239.38C722.78 238.61 722.48 238.06 721.68 238.44ZM700.93 270.61C698.168 271.918 695.081 272.377 692.058 271.93C689.036 271.483 686.214 270.15 683.948 268.099C681.683 266.048 680.077 263.372 679.333 260.408C678.589 257.445 678.741 254.327 679.768 251.45C680.796 248.572 682.654 246.064 685.107 244.242C687.56 242.421 690.498 241.367 693.55 241.215C696.602 241.063 699.63 241.82 702.252 243.389C704.874 244.958 706.972 247.269 708.28 250.03C710.032 253.734 710.243 257.982 708.864 261.841C707.486 265.7 704.632 268.854 700.93 270.61V270.61Z" fill="#ACCBFA"/>
<path opacity="0.4" d="M69.3401 623.33C63.9701 622.46 58.4801 622.09 53.4501 620.04C47.4501 617.57 42.0201 611.52 43.2801 605.11C44.3701 599.59 50.0701 595.96 55.6601 595.3C61.2501 594.64 66.8301 596.3 72.2801 597.67C81.5486 600.031 90.967 601.758 100.47 602.84C114.24 604.41 129.19 605 139.98 613.71C147.13 619.48 152.35 628.71 161.38 630.43C163.28 630.628 165.167 630.938 167.03 631.36C168.85 631.93 170.61 633.29 170.87 635.19C171.41 639.09 161.87 639.53 159.11 640.28C151.21 642.44 143.73 645.28 135.96 647.55C127.79 649.9 118.96 649.2 110.65 648.44C102.34 647.68 92.7901 646.3 87.9201 639.44C85.3801 635.86 84.4801 631.19 81.3801 628.09C79.0601 625.77 75.8101 624.65 72.6101 623.95C71.5301 623.7 70.4401 623.51 69.3401 623.33Z" fill="#2F7FEA"/>
<path d="M46.2699 589.61C45.3872 593.554 46.107 597.687 48.2711 601.1C50.4352 604.513 53.8663 606.926 57.8099 607.81C59.7631 608.283 61.7926 608.349 63.7725 608.005C65.7525 607.661 67.6406 606.914 69.3199 605.81L153.23 623.91L158 602.61L73.9098 584.47C70.7998 580.81 67.7099 578.67 64.4599 577.95C60.5016 577.085 56.3616 577.827 52.9505 580.013C49.5393 582.2 47.1363 585.652 46.2699 589.61V589.61ZM57.8599 588.9C57.9399 588.9 58.0098 588.79 58.0998 588.75C58.4418 588.59 58.8007 588.469 59.1699 588.39L59.3799 588.32C60.1692 588.181 60.9785 588.201 61.7599 588.38H61.8399C62.855 588.698 63.7371 589.341 64.3498 590.211C64.9626 591.08 65.2718 592.127 65.2298 593.19C65.1648 594.243 64.7635 595.248 64.0848 596.056C63.4062 596.865 62.4861 597.434 61.4599 597.68H61.3899L62.1299 597.41C61.028 597.907 59.778 597.963 58.6362 597.566C57.4944 597.17 56.5474 596.352 55.9899 595.28C54.9999 593.15 55.4899 589.95 57.8599 588.85V588.9Z" fill="black"/>
<path d="M70.3101 599.3L154.22 617.41" stroke="white" stroke-miterlimit="10"/>
<path d="M72.25 590.96L156.16 609.07" stroke="white" stroke-miterlimit="10"/>
<path d="M143.36 612.15C142.767 614.779 142.702 617.499 143.169 620.153C143.636 622.807 144.626 625.341 146.08 627.61C146.3 627.963 146.53 628.297 146.77 628.61C149.638 632.566 153.824 635.367 158.575 636.509C163.325 637.652 168.327 637.06 172.68 634.84L175.46 633.42L159.91 622.69L168.33 610.49L183.63 621.05L183.82 617.74C184.111 612.601 182.457 607.54 179.187 603.565C175.917 599.59 171.271 596.991 166.172 596.285C161.073 595.58 155.896 596.819 151.669 599.756C147.442 602.694 144.476 607.115 143.36 612.14V612.15Z" fill="white" stroke="black" stroke-miterlimit="10"/>
<path opacity="0.4" d="M203.39 599.46C192.88 598.27 180.3 594.46 178 584.18C176 575.18 183.81 566.52 192.6 563.91C201.39 561.3 210.8 563.07 219.88 564.38C233.25 566.31 328.88 567.61 326.17 586.53C324.81 596.07 279.17 598.07 270.3 599.01C248.08 601.36 225.62 601.96 203.39 599.46Z" fill="#2F7FEA"/>
<path d="M283.78 569.17L282.23 575.25L209.77 562.54L211.32 556.47L283.78 569.17Z" fill="black"/>
<path d="M336.32 570.61C336.47 570.8 336.61 570.99 336.75 571.19C337.672 572.501 338.323 573.983 338.667 575.549C339.01 577.115 339.038 578.733 338.75 580.31C338.108 583.553 336.215 586.413 333.481 588.271C330.747 590.129 327.392 590.836 324.14 590.24L253.58 578.3L257.2 555.03L328.27 565.9C331.448 566.408 334.32 568.089 336.32 570.61V570.61Z" fill="white" stroke="black" stroke-miterlimit="10"/>
<path d="M224.17 547.55L233.5 560.84L231.71 566.25L219.63 574.4L192.19 562.84L195 547.48L224.17 547.55Z" fill="white" stroke="black" stroke-miterlimit="10"/>
<path d="M273.92 565.75L338.94 576.16" stroke="black" stroke-miterlimit="10"/>
<path d="M272.51 573.8L337.53 584.21" stroke="black" stroke-miterlimit="10"/>
<path d="M259.34 579.25L263.94 555.68" stroke="black" stroke-miterlimit="10"/>
<path d="M200.8 562.19L216.13 568.05" stroke="black" stroke-miterlimit="10"/>
<path d="M257.47 263.02C250.19 262.02 242.68 264.24 235.73 265.35L227.2 267.02C223.65 267.75 219.93 268.25 216.61 269.81C211.56 272.19 207.94 276.81 205.08 281.61C202.242 286.573 199.697 291.699 197.46 296.96C193.66 305.44 190.28 313.96 186.78 322.53C186.727 322.651 186.698 322.781 186.696 322.913C186.693 323.044 186.717 323.176 186.765 323.298C186.814 323.421 186.886 323.533 186.978 323.627C187.069 323.722 187.179 323.798 187.3 323.85C192.46 326.24 197.52 328.85 202.54 331.54C202.593 331.569 202.651 331.587 202.712 331.59C202.772 331.594 202.832 331.584 202.888 331.56C202.944 331.537 202.994 331.502 203.034 331.457C203.074 331.412 203.104 331.358 203.12 331.3C204.48 327 221.88 298.48 225.99 296.48C228.13 295.43 231.31 295.3 233.64 294.62C238.908 293.099 244.044 291.156 249 288.81C253.555 286.642 257.941 284.135 262.12 281.31C263.538 280.378 264.673 279.074 265.4 277.54C268.62 270.33 265 264.06 257.47 263.02Z" fill="white" stroke="black" stroke-miterlimit="10"/>
<path d="M478.25 365.28C476.738 362.878 475.353 360.397 474.1 357.85C473.513 356.296 472.626 354.872 471.49 353.66C469.71 352.04 467.15 351.66 464.76 351.33C461.27 350.87 457.67 350.42 454.25 351.26C452.81 351.561 451.482 352.253 450.41 353.26C447.52 356.2 450.27 361.43 453.1 363.43C456.16 365.6 459.83 366.05 462.8 368.5C465.77 370.95 467.53 374.5 469.16 377.88L474 387.81C474.229 388.474 474.71 389.02 475.34 389.33C475.716 389.435 476.114 389.435 476.49 389.33C480.57 388.41 483 383.93 483.14 379.74C483.3 374.15 480.89 369.71 478.25 365.28Z" fill="white" stroke="black" stroke-miterlimit="10"/>
<path d="M225.49 291.06C228.094 293.496 231.205 295.327 234.6 296.42C238.27 297.48 242.68 296.77 245.08 293.8C247.28 291.07 248.08 286.48 251.54 285.97C252.561 285.888 253.588 286.042 254.54 286.42C259.38 288.02 264.2 290.7 269.25 289.96C272.497 289.377 275.437 287.675 277.56 285.15C280.06 282.34 281.69 278.5 280.96 274.81C279.5 267.39 269.96 265.81 263.82 265.46C255.57 264.97 247.12 265.06 239.06 263.25C233.06 261.9 228.06 262.18 223.3 267.09C218.85 271.72 218.06 279.22 220.81 285.03C221.972 287.319 223.561 289.366 225.49 291.06V291.06Z" fill="white" stroke="black" stroke-miterlimit="10"/>
<path d="M271.88 245.25C262.02 246.25 258.88 252.81 253.8 260.25C249.58 266.43 245.62 275.58 251.06 282.06C255.45 287.28 261.24 289.63 266.95 292.93C271.8 295.72 275.7 297.93 281.86 297.62C296.86 297.01 311.95 298.69 327.09 298.62C336.76 298.56 346.09 298.62 355.36 295.71C363.5 293.14 366.45 285.22 368.59 277.36C370.77 269.36 371.91 257.83 366.32 250.78C365.589 249.85 364.746 249.014 363.81 248.29C362.364 247.243 360.783 246.395 359.11 245.77C355.95 244.47 352.51 243.34 349.19 244.12C348.44 244.29 347.72 244.56 346.98 244.79C340.305 246.656 333.468 247.882 326.56 248.45C318.62 249.29 310.42 248.53 302.56 247.72C292.48 246.69 282 244.22 271.88 245.25Z" fill="white" stroke="black" stroke-miterlimit="10"/>
<path d="M457.19 360.42C457.64 357.8 458.55 350.76 456.78 349.02C455.01 347.28 452.78 347.21 450.62 346.73C447.83 346.09 445.07 345.13 442.32 344.34C436.64 342.7 430.973 341.033 425.32 339.34C416.169 336.592 407.175 333.344 398.38 329.61C386.38 324.61 373.85 318.98 360.9 320.29C357.82 320.61 354.97 321.76 351.99 322.41C348.55 323.053 345.286 324.416 342.41 326.41C338.19 329.56 337.14 335.06 338.95 339.86C343.34 351.52 355.3 352.09 365.62 354.86C370.96 356.29 376.62 356.57 382.17 357.04C400.67 358.633 419.103 360.81 437.47 363.57C442.137 364.237 446.777 364.973 451.39 365.78C452.66 365.99 454.28 366.49 455.8 366.64C456.33 364.61 456.83 362.51 457.19 360.42Z" fill="#062146"/>
<path d="M346.35 348.48C347.152 348.695 347.997 348.695 348.8 348.48C358.61 345.98 367.16 337.23 373.04 329.48C382.49 317.01 388.23 302.39 397.11 289.66C399.84 285.75 403.5 283.05 405.77 278.86C409.77 271.42 411.77 261.46 410.16 253.12C407.16 237 388.48 232.26 374.28 234.63C364.97 236.19 356.67 241.63 347.39 243.33C346.208 243.437 345.069 243.828 344.07 244.47C343.722 244.816 343.485 245.258 343.39 245.74C343.39 257.03 343.47 268.31 343.31 279.62C343.21 286.62 344.02 295.67 343.08 301.44C342.5 304.99 339.69 308.92 338.57 312.44C335.93 320.73 335.1 329.61 338.02 337.96C339.21 341.36 342.3 347.39 346.35 348.48Z" fill="#062146"/>
<path d="M296 275.76L296.54 276.84Z" fill="#262525"/>
<path d="M293 263.81C296.383 258.232 299.235 252.35 301.52 246.24C304.528 238.347 306.544 230.11 307.52 221.72C308.3 214.32 307.86 206.86 307.41 199.43C306.1 177.65 305.77 155.52 303.41 133.84C301.17 134.97 284.98 136.47 285.05 135.93C282.09 160.07 279.127 184.203 276.16 208.33C275.46 214.03 274.75 219.76 272.9 225.19C270.98 230.81 267.9 235.94 265 241.14C260.1 249.99 248.71 265.64 250.91 275.86" fill="white"/>
<path d="M293 263.81C296.383 258.232 299.235 252.35 301.52 246.24C304.528 238.347 306.544 230.11 307.52 221.72C308.3 214.32 307.86 206.86 307.41 199.43C306.1 177.65 305.77 155.52 303.41 133.84C301.17 134.97 284.98 136.47 285.05 135.93C282.09 160.07 279.127 184.203 276.16 208.33C275.46 214.03 274.75 219.76 272.9 225.19C270.98 230.81 267.9 235.94 265 241.14C260.1 249.99 248.71 265.64 250.91 275.86" stroke="black" stroke-miterlimit="10"/>
<path d="M343.82 299.69C349.94 287.962 357.317 276.934 365.82 266.8" stroke="white" stroke-miterlimit="10"/>
<path d="M297.72 271.97C297.34 268.84 296.72 265.84 296.4 262.69C296.291 261.138 296.03 259.601 295.62 258.1C295.581 257.963 295.53 257.829 295.47 257.7C292.42 264 286.93 268.85 281.32 272.99L297.05 281.82C298.52 282.61 297.86 273.1 297.72 271.97Z" fill="black"/>
<path d="M242.15 274.78C241.985 275.878 241.474 276.894 240.69 277.68C249.88 282.31 251.51 301.07 250.61 309.94C250.01 315.94 248.26 321.76 247.77 327.75C247.03 336.64 249.32 346.08 255.41 352.61C262.8 360.53 275.22 362.95 285.41 359.12C295.6 355.29 303.09 345.76 305.31 335.12C310.78 309.12 285.4 286.12 269.2 269.29C262.81 262.67 254.71 258.01 245.2 258.39C242.342 258.558 239.507 258.993 236.73 259.69C229.63 261.32 223.18 263.89 219.5 270.4C217.28 274.33 213.33 277.32 212.15 281.67C211.713 283.29 211.722 284.997 212.174 286.613C212.626 288.229 213.506 289.692 214.72 290.85C215.978 291.961 217.547 292.658 219.214 292.846C220.882 293.033 222.567 292.703 224.04 291.9C230.39 288.12 228.33 274.15 236.89 274.57C236.84 274.183 236.92 273.79 237.117 273.454C237.314 273.117 237.618 272.855 237.98 272.71C238.715 272.441 239.502 272.345 240.28 272.43C240.621 272.422 240.961 272.479 241.28 272.6C242 272.96 242.14 274.08 242.15 274.78Z" fill="#062146"/>
<path d="M237.32 294.35C237.002 293.34 236.948 292.266 237.163 291.23C237.378 290.193 237.856 289.229 238.55 288.43" fill="white"/>
<path d="M237.32 294.35C237.002 293.34 236.948 292.266 237.163 291.23C237.378 290.193 237.856 289.229 238.55 288.43" stroke="black" stroke-miterlimit="10"/>
<path d="M408.14 269.51C404.47 278.87 397.29 286.51 393.74 295.95" stroke="white" stroke-miterlimit="10"/>
<path opacity="0.4" d="M786.34 588.09C785.545 589.503 785.157 591.11 785.22 592.73C785.35 595.9 787.75 598.63 790.62 599.97C793.573 601.15 796.762 601.623 799.93 601.35C809.93 601 819.62 598.2 828.85 594.51C837.02 591.25 846.78 587.95 853.13 581.68C854.72 580.11 855.81 577.52 854.57 575.68C853.66 574.29 851.85 573.86 850.22 573.58C837.798 571.484 825.074 572.016 812.87 575.14C806 576.86 790.62 580.35 786.34 588.09Z" fill="#2F7FEA"/>
<path opacity="0.8" d="M838.09 493.83C838.106 493.495 838.143 493.161 838.2 492.83C838.79 489.22 841.64 486.47 843.58 483.37C845.474 480.336 846.552 476.864 846.71 473.29C846.99 466.62 846.8 458.07 849.71 451.9C852.29 446.33 858.45 443.31 861.6 438.08C863.35 435.2 863.89 431.77 864.66 428.49C865.9 423.27 867.88 418.1 871.38 414.03C874.11 410.86 877.63 408.5 881.1 406.19C884.387 403.791 887.962 401.812 891.74 400.3C896.74 398.52 902.35 397.94 904.74 403.12C906.62 407.31 905.67 413.24 903.68 417.18C901.96 420.61 899.22 423.4 896.68 426.25C892.215 431.198 888.13 436.476 884.46 442.04C883.33 443.511 882.553 445.221 882.19 447.04C881.97 448.82 882.51 450.61 882.73 452.4C883.88 461.47 880.13 468.81 873.13 474.33C867.59 478.7 864.13 481.17 862.75 488.72C861.89 493.39 861.5 498.36 858.9 502.34C857.761 503.911 856.521 505.408 855.19 506.82C850.508 512.361 847.642 519.206 846.98 526.43C846.66 530.02 845.9 538.11 840.14 536.43C833.14 534.43 833.94 513.83 836.01 508.95C836.89 506.88 838.21 504.95 838.63 502.74C839.07 499.87 837.93 496.82 838.09 493.83Z" fill="#4AD579"/>
<path opacity="0.73" d="M808.22 508.85C808.168 506.072 808.591 503.306 809.47 500.67C810.58 497.23 812.41 493.8 811.86 490.23C810.95 484.33 804.15 481.11 802.03 475.53C799.14 467.88 805.95 460.21 807.47 452.18C808.77 445.36 806.16 438.51 804.4 431.8C803.64 428.91 799.34 412.43 807.89 415.06C809.205 415.642 810.237 416.72 810.76 418.06C814.91 425.95 815.96 435.95 822.58 442.44C825.29 445.1 828.79 446.87 831.36 449.67C835.44 454.11 836.63 460.67 835.71 466.61C834.09 477.03 823.82 483.99 827.92 494.61C829.63 499.05 832.55 502.89 834.92 507C839.92 515.52 849.92 549.69 829.66 537.88C818.93 531.61 808.49 521.44 808.22 508.85Z" fill="white" stroke="#4AD579" stroke-miterlimit="10"/>
<path opacity="0.73" d="M848.27 509.61C848.38 509.38 848.49 509.15 848.61 508.93C851.14 504.1 854.51 499.76 857.11 494.93C859.22 491.05 860.82 486.93 863.17 483.15C865.52 479.37 868.8 476 873.03 474.71C875.65 473.91 879.87 474.4 881.91 476.35C882.58 476.98 883.09 477.77 883.74 478.43C885.008 479.521 886.405 480.451 887.9 481.2C895.22 485.63 898.36 493.96 901.03 501.65C903.95 510.07 907.49 517.22 908.67 526.07C908.93 528.07 909.11 530.36 907.73 531.82C907.098 532.39 906.32 532.773 905.483 532.927C904.646 533.081 903.783 532.999 902.99 532.69C901.418 532.042 899.998 531.075 898.82 529.85C897.126 528.422 895.704 526.702 894.62 524.77C893.79 523.1 893.42 521.22 892.48 519.6C891.35 517.67 889.48 516.29 887.82 514.83C882.9 510.6 879.89 505.5 876.38 500.19C872.84 501.64 869.38 506.25 865.55 508.28C862.22 510.06 856.63 510.7 854.77 514.4C852.91 518.1 853.77 523.34 852.48 527.33C849.55 536.23 842.69 534.97 843.64 525.49C844.204 519.959 845.773 514.578 848.27 509.61V509.61Z" fill="white" stroke="#4AD579" stroke-miterlimit="10"/>
<path d="M869.89 526.56H804.29V534.76H809.55L817.27 578.49H856.9L864.62 534.76H869.89V526.56Z" fill="#062146"/>
<path d="M807.7 535.44H866.47" stroke="white" stroke-miterlimit="10"/>
<path d="M807.49 471.72C808.374 471.72 809.09 471.004 809.09 470.12C809.09 469.236 808.374 468.52 807.49 468.52C806.606 468.52 805.89 469.236 805.89 470.12C805.89 471.004 806.606 471.72 807.49 471.72Z" fill="#FC614F"/>
<path d="M823.49 476.52C823.49 476.836 823.396 477.146 823.22 477.409C823.045 477.672 822.795 477.877 822.502 477.998C822.21 478.119 821.888 478.151 821.578 478.089C821.268 478.027 820.982 477.875 820.759 477.651C820.535 477.428 820.383 477.143 820.321 476.832C820.259 476.522 820.291 476.2 820.412 475.908C820.533 475.615 820.738 475.365 821.001 475.19C821.264 475.014 821.574 474.92 821.89 474.92C822.314 474.92 822.721 475.089 823.021 475.389C823.321 475.689 823.49 476.096 823.49 476.52V476.52Z" fill="#FC614F"/>
<path d="M820.29 494.12C820.29 494.436 820.196 494.746 820.02 495.009C819.845 495.272 819.595 495.477 819.302 495.598C819.01 495.719 818.688 495.751 818.378 495.689C818.067 495.628 817.782 495.475 817.559 495.251C817.335 495.028 817.182 494.742 817.121 494.432C817.059 494.122 817.091 493.8 817.212 493.508C817.333 493.215 817.538 492.965 817.801 492.79C818.064 492.614 818.373 492.52 818.69 492.52C819.114 492.52 819.521 492.689 819.821 492.989C820.121 493.289 820.29 493.696 820.29 494.12V494.12Z" fill="#FC614F"/>
<path d="M829.89 458.92C829.89 459.236 829.796 459.546 829.62 459.809C829.445 460.072 829.195 460.277 828.902 460.398C828.61 460.519 828.288 460.551 827.978 460.489C827.668 460.428 827.382 460.275 827.159 460.051C826.935 459.828 826.782 459.542 826.721 459.232C826.659 458.922 826.691 458.6 826.812 458.308C826.933 458.015 827.138 457.765 827.401 457.59C827.664 457.414 827.974 457.32 828.29 457.32C828.714 457.32 829.121 457.489 829.421 457.789C829.721 458.089 829.89 458.496 829.89 458.92V458.92Z" fill="#FC614F"/>
<path d="M810.69 426.93C810.688 427.246 810.593 427.554 810.416 427.816C810.238 428.078 809.988 428.281 809.695 428.401C809.403 428.521 809.081 428.551 808.772 428.488C808.462 428.425 808.178 428.272 807.955 428.048C807.732 427.824 807.581 427.539 807.52 427.228C807.459 426.918 807.491 426.597 807.613 426.305C807.734 426.014 807.939 425.764 808.202 425.589C808.465 425.414 808.774 425.32 809.09 425.32C809.301 425.32 809.51 425.362 809.705 425.443C809.899 425.524 810.076 425.642 810.225 425.792C810.374 425.942 810.491 426.119 810.571 426.315C810.651 426.51 810.691 426.719 810.69 426.93Z" fill="#FC614F"/>
<path d="M831.49 514.92C832.374 514.92 833.09 514.204 833.09 513.32C833.09 512.436 832.374 511.72 831.49 511.72C830.606 511.72 829.89 512.436 829.89 513.32C829.89 514.204 830.606 514.92 831.49 514.92Z" fill="#FC614F"/>
<path d="M818.69 510.12C818.69 510.436 818.596 510.746 818.42 511.009C818.245 511.272 817.995 511.477 817.702 511.598C817.41 511.719 817.088 511.751 816.778 511.689C816.467 511.628 816.182 511.475 815.959 511.251C815.735 511.028 815.582 510.742 815.521 510.432C815.459 510.122 815.491 509.8 815.612 509.508C815.733 509.215 815.938 508.965 816.201 508.79C816.464 508.614 816.773 508.52 817.09 508.52C817.514 508.52 817.921 508.689 818.221 508.989C818.521 509.289 818.69 509.696 818.69 510.12V510.12Z" fill="#FC614F"/>
<path d="M817.09 450.92C817.09 451.236 816.996 451.546 816.82 451.809C816.644 452.072 816.395 452.277 816.102 452.398C815.81 452.519 815.488 452.551 815.178 452.489C814.867 452.428 814.582 452.275 814.359 452.051C814.135 451.828 813.982 451.542 813.921 451.232C813.859 450.922 813.891 450.6 814.012 450.308C814.133 450.015 814.338 449.765 814.601 449.59C814.864 449.414 815.174 449.32 815.49 449.32C815.914 449.32 816.321 449.489 816.621 449.789C816.921 450.089 817.09 450.496 817.09 450.92V450.92Z" fill="#FC614F"/>
<path opacity="0.4" d="M388.13 677.1C377.27 674.92 366.51 672.18 355.84 669.22C345.84 666.44 335.27 663.09 328.52 655.17C308.26 631.4 341.3 606.87 358.79 596.62C373.07 588.25 390.09 578.44 407.14 580.9C416.82 582.3 425.92 586.25 434.82 590.3C464.5 603.81 494.16 619.02 526.47 623.39C533.24 624.3 589.4 625.79 586.82 634.94C586.218 636.512 585.146 637.859 583.75 638.8C571.94 648.37 557.23 653.47 542.83 658.3C506.46 670.51 469.12 682.3 430.76 681.92C416.431 681.645 402.159 680.031 388.13 677.1V677.1Z" fill="#2F7FEA"/>
<path d="M408.1 605.53C403.38 614.15 410.75 620.37 416.89 626.16C418.507 627.812 420.403 629.166 422.49 630.16C426.16 631.73 430.34 631.36 434.3 630.92C462.8 627.76 491.84 623.92 519.86 617.92C526.46 616.5 532.98 614.77 539.55 613.29C548.09 611.36 557.01 607.63 565.16 604.38C573.471 601.062 581.186 596.411 588 590.61L588.36 590.3C589.61 589.586 590.646 588.55 591.36 587.3C594.88 583.3 597.31 578.3 595.28 573.6C592.95 568.21 586.13 566.67 580.28 566.21C562.81 564.83 545.28 566.71 528.02 569.31C516.37 571.06 504.83 573.54 493.13 574.98C481.23 576.45 469.89 575.13 458.06 575.4C437.6 575.83 418 587.54 408.1 605.53Z" fill="black"/>
<path d="M458.85 562.99C451.62 560.14 444.16 562.81 440.18 554.58C438.74 551.58 438.07 548.33 437.01 545.2C433.631 535.426 426.609 527.334 417.41 522.61C424.53 515.9 434.07 512.56 442.75 508.04C450.715 503.889 458.076 498.671 464.63 492.53C470.63 486.87 479.98 474.74 474.99 465.94C470.99 458.86 460.99 461.07 454.56 462.71C445.56 465 437.75 465.43 429.66 470.71C421.87 475.8 415.44 482.71 409.15 489.55C399.32 500.26 377.88 521.21 391.9 536.25C399.83 544.77 408.01 552.92 417.59 559.58C420.251 561.519 423.094 563.193 426.08 564.58C432.03 567.21 434.33 572.05 440.28 574.72C445.208 577.054 450.53 578.445 455.97 578.82C459.97 579.02 466.55 578.08 466.97 573.23C467.3 568.61 462.64 564.49 458.85 562.99Z" fill="white" stroke="black" stroke-miterlimit="10"/>
<path d="M560 549.85C556.48 554.5 550.6 557.56 545 556.24C539 554.85 535.12 549.31 531.92 544.1C526.84 535.81 522.09 527.19 519.54 517.81C516.74 507.48 515.42 491.05 525.67 484.19C532.96 479.31 544.88 482.08 550.52 488.32C562.68 501.79 570.73 531.15 561.34 547.87C560.937 548.558 560.489 549.22 560 549.85V549.85Z" fill="white" stroke="black" stroke-miterlimit="10"/>
<path d="M541.39 467.35C532.39 457.8 521.65 450.79 507.6 451.14C503.82 451.23 500.06 451.85 496.28 451.98C483 452.45 469.84 449.14 457.04 454.25C443.38 459.71 430.73 467.51 418.74 475.97C417.74 476.65 441.15 508.7 443.63 511.61C453.3 504.52 450.98 537.9 450.82 542.42C450.45 553.66 450.16 565.02 452.47 576.09C452.942 575.243 453.706 574.596 454.62 574.27C455.76 574.02 456.48 575.4 457.49 575.65C459.66 576.19 462.7 575.65 464.95 575.65C469.25 575.65 473.54 575.65 477.84 575.65C487.74 575.57 497.66 575.53 507.48 574.16C512.544 573.308 517.666 572.85 522.8 572.79C525.49 563.47 524.54 552.24 524.8 542.97C525.08 534.05 524.36 525.32 525.04 516.44C537.699 513.326 550.12 509.316 562.21 504.44C562.94 504.15 556.43 489.33 555.71 487.9C552.963 482.308 549.577 477.053 545.62 472.24C544.26 470.5 542.85 468.89 541.39 467.35Z" fill="#062146"/>
<path d="M471 633.79C469.16 635.62 430.53 644.1 430.53 644.1L428.72 624.46L464.62 611.61L471 633.79Z" fill="white" stroke="black" stroke-miterlimit="10"/>
<path d="M568.69 610.33C573.123 607.631 577.764 605.29 582.57 603.33C587.71 601.4 593.42 600.21 597.39 596.39C601.58 592.39 602.91 586.26 604.03 580.55C605.359 574.013 605.181 567.258 603.51 560.8C601.03 551.88 593.81 544.39 584.7 542.33C579.16 541.086 573.36 541.793 568.28 544.33C564.58 546.2 561.4 548.98 557.74 550.93C554.617 552.422 551.408 553.728 548.13 554.84C538.33 558.65 529.32 564.36 520.39 569.76C511.46 575.16 503.39 582 494.71 587.86C491.29 590.17 455.3 607.64 455.31 607.66C459.97 618.05 464.05 628.73 468.31 639.33C491.58 636.18 514.01 628.86 536.64 622.78C541.13 621.57 545.3 619.78 549.79 618.78C554.83 617.498 559.667 615.519 564.16 612.9C565.69 612.05 567.19 611.19 568.69 610.33Z" fill="#062146"/>
<path d="M429.19 646.16C422.06 647.57 414.92 646.05 407.19 645.22C401.19 644.57 395.06 645.68 389.11 644.76C381.16 643.54 374.99 637.91 374.4 629.97C374.07 625.5 373.91 620.5 376.86 617.12C379.27 614.36 383.26 613.44 386.92 613.77C390.58 614.1 394.03 615.51 397.5 616.7C403.457 618.671 409.528 620.277 415.68 621.51C420.68 622.57 424.93 625.04 429.85 622.6C429.97 622.515 430.107 622.455 430.251 622.424C430.396 622.393 430.545 622.392 430.69 622.42C430.99 622.52 431.13 622.86 431.24 623.15C433 628.09 434.58 633.09 435.98 638.15C436.7 640.77 437.91 642.29 435.76 643.91C434.1 645.19 431.23 645.76 429.19 646.16Z" fill="#062146"/>
<path d="M506.16 633.79C508 635.62 546.62 644.1 546.62 644.1L548.44 624.46L512.5 611.61L506.16 633.79Z" fill="white" stroke="black" stroke-miterlimit="10"/>
<path d="M407.12 612.61C399.663 609.859 392.47 606.438 385.63 602.39C383.268 601.123 381.162 599.427 379.42 597.39C377.1 594.39 376.32 590.51 375.61 586.78C372.98 572.89 369.24 562.31 379.3 550.52C387.5 540.91 400.65 537.19 411.79 544.12C419 548.61 423.89 556.81 431.93 559.61C436.26 561.14 441.21 560.83 445.4 562.77C449.25 564.55 453.05 567.5 456.72 569.77C465.72 575.19 473.72 582.01 482.4 587.87C485.83 590.18 521.82 607.65 521.81 607.67C517.14 618.06 513.07 628.74 508.81 639.34C485.54 636.19 463.11 628.87 440.48 622.79C429.26 619.77 418 616.72 407.12 612.61Z" fill="#062146"/>
<path d="M547.93 646.16C555.05 647.57 562.2 646.05 569.93 645.22C575.93 644.57 582.06 645.68 588.02 644.76C595.54 643.6 604.12 636.13 604.46 628.15C604.49 625.645 603.982 623.162 602.97 620.87C602.502 619.642 601.866 618.484 601.08 617.43C600.128 616.294 598.958 615.36 597.639 614.685C596.32 614.01 594.878 613.607 593.4 613.5C588.89 613.08 584.4 614.5 580.1 615.78C575.8 617.06 571.64 617.78 567.37 619.61C561.86 621.974 555.814 622.807 549.87 622.02C548.353 621.671 546.78 621.64 545.25 621.93C541.91 622.93 542.25 627.93 541.99 630.7C541.6 634.86 541.4 639.13 539.73 643.01C542.264 644.52 545.037 645.585 547.93 646.16V646.16Z" fill="#062146"/>
<path d="M530.71 484.7C530.705 484.647 530.705 484.593 530.71 484.54C530.61 482.91 530.51 481.28 530.42 479.65C530.33 478.812 530.33 477.968 530.42 477.13C530.83 474.59 532.85 472.65 534.75 470.92C536.19 469.61 548.33 457.76 549.26 458.45C553.05 461.32 555.38 458.75 558.15 455.8C559.098 454.988 559.696 453.842 559.82 452.6C559.82 451.36 558.3 450.21 557.31 450.94C559.503 448.5 561.64 446.013 563.72 443.48C565.55 441.24 567.36 439.87 566.11 436.91C564.11 432.15 559.92 428.56 555.28 426.29C551.6 424.49 545.72 421.98 541.54 422.29C536.93 422.64 534.54 426.52 531.09 428.89C530.951 429.012 530.775 429.082 530.59 429.09C530.374 429.041 530.181 428.921 530.04 428.75C529.348 428.229 528.501 427.955 527.634 427.971C526.768 427.988 525.932 428.293 525.26 428.84C523.942 429.968 522.969 431.445 522.45 433.1C521.967 434.104 521.773 435.222 521.89 436.33C521.969 436.881 522.242 437.385 522.66 437.752C523.078 438.119 523.614 438.324 524.17 438.33C523.3 438.46 521.87 445.03 521.63 445.87C520.46 450.04 517.89 452.39 514.97 455.61C512.34 458.52 509.16 461.61 505.24 461.49C503.51 461.42 501.34 460.83 500.34 462.26C500.038 462.765 499.876 463.342 499.87 463.93C499.17 472.53 504.7 480.15 511.62 484.67C515.27 487.02 531 493.49 530.71 484.7Z" fill="white" stroke="black" stroke-miterlimit="10"/>
<path d="M528.29 586.01L476 597.29L429.42 586.01C428.57 586.007 427.757 585.668 427.157 585.066C426.557 584.465 426.22 583.65 426.22 582.8V523.16C426.22 522.31 426.557 521.495 427.157 520.894C427.757 520.292 428.57 519.953 429.42 519.95L479 532.29L528.29 519.95C528.712 519.95 529.129 520.033 529.518 520.194C529.908 520.356 530.262 520.592 530.56 520.89C530.858 521.188 531.094 521.542 531.256 521.932C531.417 522.321 531.5 522.738 531.5 523.16V582.8C531.5 583.651 531.162 584.468 530.56 585.07C529.958 585.672 529.141 586.01 528.29 586.01V586.01Z" fill="#FC614F"/>
<path d="M575.56 425.24C575.464 424.59 575.297 423.953 575.06 423.34C574.468 421.697 573.299 420.325 571.77 419.48C570.55 418.921 569.232 418.605 567.89 418.55C566.331 418.412 564.763 418.388 563.2 418.48C561.699 418.635 560.189 418.695 558.68 418.66C556.341 418.389 554.055 417.769 551.9 416.82C549.74 415.879 547.457 415.249 545.12 414.95C540.25 414.57 536.8 418.28 533.87 421.71C530.698 425.648 527.959 429.916 525.7 434.44C521.07 443.03 519.65 453.67 528.38 460.35C539.81 469.1 553.38 457.16 561.96 449.86C563.71 448.37 565.69 447.38 567.26 445.62C568.946 443.644 570.386 441.472 571.55 439.15C572.775 436.946 573.815 434.645 574.66 432.27C575.517 430.032 575.826 427.622 575.56 425.24V425.24ZM536.66 454.16C534.822 453.832 533.072 453.127 531.52 452.09C530.52 451.28 531.68 449.59 532.68 450.42C534.04 451.316 535.567 451.929 537.17 452.22C538.29 452.52 537.77 454.42 536.66 454.16V454.16ZM563.91 439.09C563.509 440.332 562.874 441.486 562.04 442.49C558.43 447.26 553.2 453.28 547.95 456.26L547.35 456.58C545.93 451.67 544.15 446.82 539.65 443.93C535.65 441.39 531.04 441 526.51 441.6C528.13 434.8 533.32 424.38 541.27 424.28C544.232 424.409 547.081 425.458 549.42 427.28C551.84 428.97 553.99 431.02 556.42 432.62C559.25 434.44 565.06 434.77 563.91 439.09V439.09Z" fill="#062146"/>
<path d="M547 461.82C547.24 461.22 547.5 460.63 547.77 460.06C549.92 455.59 554.67 453.74 558.36 450.57C560.64 448.57 562.97 447.07 565.36 445.25C566.5 444.38 567.43 443.06 568.62 442.33C568.987 442.071 569.426 441.932 569.875 441.932C570.324 441.932 570.763 442.071 571.13 442.33C571.603 442.864 571.856 443.557 571.84 444.27C572.14 448.87 569.58 452.43 567.33 456.13C565.33 459.37 562.33 461.4 560.24 464.54C558.15 467.68 558.55 471.64 558.96 475.31C559.627 481.47 560.293 487.627 560.96 493.78C561.59 499.55 563.04 504.39 564.42 509.98C566.55 518.56 566.42 528.53 566.57 537.32C566.72 546.11 560.9 556.73 551.73 558.58C533.31 562.3 537.32 536.27 536.82 525.82C536.43 517.5 538.42 509 540.31 500.98C542.31 492.6 542.48 483.98 543.71 475.43C544.259 470.778 545.364 466.209 547 461.82V461.82Z" fill="white" stroke="black" stroke-miterlimit="10"/>
<path d="M546.89 549.32C546.924 550.046 546.883 550.773 546.77 551.49C546.684 552.304 546.351 553.073 545.814 553.692C545.278 554.311 544.564 554.75 543.77 554.95C542.04 555.22 540.47 553.95 539.29 552.65C534.657 547.49 532.155 540.764 532.29 533.83C532.165 531.845 532.643 529.869 533.66 528.16C534.8 526.55 537.14 525.64 538.82 526.68C539.875 527.512 540.627 528.668 540.96 529.97L545.64 542.61C546.387 544.772 546.808 547.034 546.89 549.32V549.32Z" fill="white"/>
<path d="M553.42 550.93C552.577 551.549 551.544 551.853 550.5 551.79C549.71 551.71 549.6 552.92 550.32 553.13C551.04 553.393 551.826 553.416 552.56 553.194C553.294 552.972 553.936 552.518 554.39 551.9C554.83 551.33 554 550.61 553.42 550.93Z" fill="black"/>
<path d="M394.51 527.17C394.1 526.813 393.783 526.361 393.587 525.854C393.39 525.347 393.319 524.8 393.38 524.26C393.474 523.871 393.415 523.46 393.216 523.113C393.018 522.765 392.693 522.506 392.31 522.39C391.922 522.285 391.508 522.338 391.158 522.536C390.808 522.735 390.55 523.063 390.44 523.45C390.25 524.511 390.326 525.602 390.661 526.627C390.996 527.651 391.58 528.577 392.36 529.32C393.78 530.66 395.94 528.51 394.51 527.17Z" fill="black"/>
<path d="M452.55 627.61C462.17 629.963 471.873 631.917 481.66 633.47" stroke="white" stroke-miterlimit="10"/>
<path d="M517.25 618.43C518.583 615.377 519.963 612.35 521.39 609.35C508.86 602.35 506.9 601.03 494.5 593.79" stroke="white" stroke-miterlimit="10"/>
<path d="M436.52 621.18C427.4 618.989 418.456 616.124 409.76 612.61" stroke="white" stroke-miterlimit="10"/>
<path opacity="0.46" d="M713 71.29C737 69.8 737 84.29 737 84.29C737 84.29 739 83.29 749 89.29C759 95.29 730 105.29 714 104.29C698 103.29 663 100.29 664 88.29C665 76.29 690 81.29 690 81.29C690 81.29 697 72.29 713 71.29Z" fill="#F2F2F2"/>
<path opacity="0.46" d="M79 124.29C103 122.8 103 137.29 103 137.29C103 137.29 105 136.29 115 142.29C125 148.29 96 158.29 80 157.29C64 156.29 29 153.29 30 141.29C31 129.29 56 134.29 56 134.29C56 134.29 63 125.29 79 124.29Z" fill="#F2F2F2"/>
<path opacity="0.46" d="M125 161.29C149 159.8 149 174.29 149 174.29C149 174.29 151 173.29 161 179.29C171 185.29 142 195.29 126 194.29C110 193.29 75 190.29 76 178.29C77 166.29 102 171.29 102 171.29C102 171.29 109 162.29 125 161.29Z" fill="#F2F2F2"/>
<path d="M262.261 49.8086H269.363V55.1172H262.261V67H255.722V55.1172H232.413V51.2852L255.335 15.8125H262.261V49.8086ZM239.796 49.8086H255.722V24.707L254.948 26.1133L239.796 49.8086ZM307.331 45.168C307.331 52.7852 306.031 58.4453 303.429 62.1484C300.827 65.8516 296.761 67.7031 291.23 67.7031C285.769 67.7031 281.726 65.8984 279.101 62.2891C276.476 58.6562 275.116 53.2422 275.023 46.0469V37.3633C275.023 29.8398 276.323 24.25 278.925 20.5938C281.527 16.9375 285.605 15.1094 291.159 15.1094C296.667 15.1094 300.722 16.8789 303.323 20.418C305.925 23.9336 307.261 29.3711 307.331 36.7305V45.168ZM300.827 36.2734C300.827 30.7656 300.054 26.7578 298.507 24.25C296.96 21.7188 294.511 20.4531 291.159 20.4531C287.831 20.4531 285.406 21.707 283.882 24.2148C282.359 26.7227 281.573 30.5781 281.527 35.7812V46.1875C281.527 51.7188 282.323 55.8086 283.917 58.457C285.534 61.082 287.972 62.3945 291.23 62.3945C294.441 62.3945 296.82 61.1523 298.366 58.668C299.937 56.1836 300.757 52.2695 300.827 46.9258V36.2734ZM343.12 49.8086H350.222V55.1172H343.12V67H336.581V55.1172H313.273V51.2852L336.195 15.8125H343.12V49.8086ZM320.656 49.8086H336.581V24.707L335.808 26.1133L320.656 49.8086Z" fill="black"/>
</svg>
