<svg width="221" height="199" viewBox="0 0 221 199" fill="none" xmlns="http://www.w3.org/2000/svg">
<g clip-path="url(#clip0)">
<path d="M212.091 78.8831C212.091 113.405 189.901 142.746 158.995 153.441C146.555 157.721 133.246 158.847 120.262 156.718C119.03 156.517 117.807 156.286 116.592 156.025C114.946 155.676 113.32 155.274 111.713 154.82C78.5324 145.488 54.2126 115.024 54.2126 78.8831C54.2126 35.3169 89.5547 0 133.152 0C176.749 0 212.091 35.3169 212.091 78.8831Z" fill="#E6E6E6"/>
<path d="M83.7096 103.23C83.5706 103.304 83.4668 103.431 83.421 103.581C83.3751 103.732 83.391 103.895 83.4651 104.034L113.144 159.584C113.219 159.722 113.345 159.826 113.496 159.872C113.647 159.918 113.81 159.902 113.949 159.828L155.903 137.445C156.042 137.37 156.146 137.244 156.192 137.093C156.237 136.942 156.221 136.78 156.147 136.641L126.468 81.0909C126.394 80.952 126.267 80.8483 126.117 80.8025C125.966 80.7567 125.803 80.7725 125.664 80.8466L83.7096 103.23Z" fill="#3F3D56"/>
<path d="M87.6094 104.853L114.769 155.686L152.003 135.821L124.844 84.9878L87.6094 104.853ZM85.25 106.112L85.2552 106.109L85.2494 106.112L85.25 106.112Z" fill="white"/>
<path d="M96.9975 110.442C96.419 110.75 96.2959 111.651 96.7225 112.45C97.1491 113.248 97.9668 113.647 98.5452 113.339L125.815 98.7894C126.394 98.4808 126.517 97.5799 126.09 96.7814C125.664 95.9829 124.846 95.584 124.268 95.8926L96.9975 110.442Z" fill="#2F80ED"/>
<path d="M100.357 116.73C99.7789 117.039 99.6557 117.94 100.082 118.738C100.509 119.537 101.327 119.936 101.905 119.627L129.175 105.078C129.754 104.769 129.877 103.869 129.45 103.07C129.024 102.272 128.206 101.873 127.628 102.181L100.357 116.73Z" fill="#2F80ED"/>
<path d="M103.717 123.019C103.139 123.328 103.016 124.229 103.442 125.027C103.869 125.826 104.686 126.225 105.265 125.916L132.535 111.367C133.114 111.058 133.237 110.157 132.81 109.359C132.384 108.56 131.566 108.161 130.987 108.47L103.717 123.019Z" fill="#2F80ED"/>
<path d="M107.077 129.308C106.499 129.616 106.376 130.517 106.802 131.316C107.229 132.114 108.046 132.513 108.625 132.205L135.895 117.655C136.474 117.347 136.597 116.446 136.17 115.647C135.744 114.849 134.926 114.45 134.347 114.759L107.077 129.308Z" fill="#2F80ED"/>
<path d="M110.437 135.596C109.859 135.905 109.735 136.806 110.162 137.604C110.589 138.403 111.406 138.802 111.985 138.493L139.255 123.944C139.834 123.635 139.957 122.735 139.53 121.936C139.103 121.138 138.286 120.739 137.707 121.047L110.437 135.596Z" fill="#2F80ED"/>
<path d="M115.733 79.2303L140.443 80.7381L147.363 60.1156L125.689 55.5395L115.733 79.2303Z" fill="#2F2E41"/>
<path d="M133.553 74.0156C139.011 74.0156 143.436 69.5941 143.436 64.14C143.436 58.6858 139.011 54.2644 133.553 54.2644C128.095 54.2644 123.671 58.6858 123.671 64.14C123.671 69.5941 128.095 74.0156 133.553 74.0156Z" fill="#FFB8B8"/>
<path d="M149.61 83.977L133.589 86.5967L129.365 69.8595L140.58 68.8408L149.61 83.977Z" fill="#FFB8B8"/>
<path d="M158.931 152.672L158.995 153.441C146.555 157.721 133.246 158.847 120.262 156.718L120.178 158.083C120.131 158.815 119.912 159.525 119.539 160.156C119.166 160.788 118.65 161.322 118.032 161.718C117.414 162.113 116.712 162.357 115.982 162.43C115.252 162.504 114.515 162.405 113.831 162.141L116.592 156.025L120.085 148.286L122.374 143.212L121.55 125.66L121.463 123.844L121.355 121.526L122.846 121.518L133.449 121.454L143.554 121.39L145.095 121.381C154.757 133.257 162.729 142.909 158.931 152.672Z" fill="#2F2E41"/>
<path d="M144.949 121.235L121.355 123.855L120.481 107.555C117.712 100.498 119.54 94.1986 125.287 88.546L126.455 83.9248C126.761 82.7119 127.395 81.6062 128.287 80.728C129.178 79.8498 130.294 79.2327 131.512 78.9439C135.374 76.7304 139.749 75.6754 144.658 75.8267C146.618 76.5917 148.281 77.9664 149.399 79.7478C150.518 81.5293 151.033 83.6229 150.869 85.7196C149.854 98.53 148.032 110.522 144.949 121.235Z" fill="#2F80ED"/>
<path d="M138.249 93.8738L138.06 95.303L135.045 118.034L133.449 121.454L132.928 122.571L120.772 148.597L120.262 156.718L120.178 158.083C120.137 158.763 119.948 159.425 119.624 160.024C119.3 160.623 118.849 161.144 118.303 161.55C117.756 161.956 117.127 162.237 116.46 162.375C115.793 162.512 115.104 162.502 114.441 162.345C113.778 162.188 113.157 161.888 112.623 161.466C112.088 161.045 111.653 160.511 111.346 159.903C111.04 159.295 110.871 158.627 110.85 157.947C110.829 157.266 110.958 156.59 111.227 155.964L111.713 154.82L114.364 148.597L121.55 125.66L122.141 123.768L122.846 121.518L124.85 115.123L128.043 95.4572L128.346 93.5827L138.249 93.8738Z" fill="#FFB8B8"/>
<path d="M139.997 95.9113C135.419 94.2675 131.028 94.0927 126.889 95.9113L128.24 84.2113C128.191 82.7502 128.717 81.328 129.706 80.2506C130.694 79.1732 132.067 78.5265 133.528 78.4497C134.262 78.4111 134.996 78.5176 135.689 78.7632C136.381 79.0088 137.019 79.3886 137.564 79.8809C138.109 80.3731 138.552 80.9681 138.867 81.6317C139.182 82.2954 139.363 83.0146 139.399 83.7481L139.997 95.9113Z" fill="#2F80ED"/>
<path d="M126.077 52.472C126.077 52.472 120.967 54.3355 120.836 61.1103C120.829 62.2504 120.981 63.3858 121.289 64.4837C121.62 65.7289 121.886 68.4305 119.658 72.0318C118.202 74.3693 116.885 76.7909 115.715 79.2838L121.469 79.8386L122.421 70.3072C122.882 65.6861 124.022 61.1581 125.803 56.8688L125.84 56.7793C125.84 56.7793 128.48 61.3639 133.497 61.2227L131.654 59.4826C131.654 59.4826 137.938 61.8473 141.355 62.322C141.745 62.3763 142.113 62.5358 142.419 62.7835C142.725 63.0311 142.957 63.3575 143.091 63.7274C143.225 64.0973 143.256 64.4968 143.179 64.8828C143.103 65.2687 142.923 65.6266 142.658 65.9178C142.638 65.9397 142.618 65.9617 142.597 65.9838C140.507 68.1929 136.348 73.3273 138.968 77.1958C141.587 81.0642 139.468 82.199 139.468 82.199L143.349 79.9395L145.11 78.8147L145.151 80.2471L154.438 78.9106C154.438 78.9106 156.936 78.4819 151.389 72.5455C151.389 72.5455 149.903 70.2215 150.466 68.1651C150.933 66.6011 151.021 64.9487 150.722 63.3443C149.329 56.665 144.228 43.4515 126.077 52.472Z" fill="#2F2E41"/>
<path d="M133.152 198.272C152.779 198.272 168.689 197.36 168.689 196.235C168.689 195.109 152.779 194.197 133.152 194.197C113.525 194.197 97.6147 195.109 97.6147 196.235C97.6147 197.36 113.525 198.272 133.152 198.272Z" fill="#E6E6E6"/>
<path d="M0.216351 93.8833C0.141744 93.9032 0.0781041 93.9519 0.039394 94.0187C0.000683841 94.0855 -0.00993185 94.1649 0.00987661 94.2395L7.95919 124.054C7.97915 124.129 8.02789 124.192 8.09472 124.231C8.16155 124.27 8.24101 124.28 8.31565 124.26L30.8332 118.265C30.9078 118.245 30.9715 118.196 31.0102 118.13C31.0489 118.063 31.0595 117.984 31.0397 117.909L23.0904 88.0944C23.0704 88.0199 23.0217 87.9563 22.9549 87.9176C22.888 87.8789 22.8086 87.8683 22.7339 87.8881L0.216351 93.8833Z" fill="#F2F2F2"/>
<path d="M5.74945 98.8072C5.43898 98.8899 5.27952 99.3059 5.39379 99.7345C5.50805 100.163 5.85353 100.445 6.164 100.362L20.8004 96.4651C21.1109 96.3825 21.2704 95.9664 21.1561 95.5378C21.0418 95.1093 20.6963 94.8277 20.3859 94.9103L5.74945 98.8072Z" fill="white"/>
<path d="M6.64936 102.182C6.33889 102.265 6.17943 102.681 6.29369 103.11C6.40795 103.538 6.75343 103.82 7.0639 103.737L21.7003 99.8404C22.0108 99.7577 22.1703 99.3416 22.056 98.9131C21.9417 98.4845 21.5962 98.2029 21.2858 98.2856L6.64936 102.182Z" fill="white"/>
<path d="M7.54938 105.558C7.23891 105.64 7.07945 106.056 7.19371 106.485C7.30798 106.913 7.65346 107.195 7.96393 107.112L22.6003 103.216C22.9108 103.133 23.0703 102.717 22.956 102.288C22.8417 101.86 22.4963 101.578 22.1858 101.661L7.54938 105.558Z" fill="white"/>
<path d="M8.44928 108.933C8.13882 109.016 7.97935 109.432 8.09362 109.86C8.20788 110.289 8.55336 110.57 8.86383 110.488L23.5002 106.591C23.8107 106.508 23.9702 106.092 23.8559 105.664C23.7416 105.235 23.3962 104.953 23.0857 105.036L8.44928 108.933Z" fill="white"/>
<path d="M9.34918 112.308C9.03871 112.391 8.87926 112.807 8.99352 113.235C9.10778 113.664 9.45326 113.946 9.76373 113.863L24.4002 109.966C24.7106 109.883 24.8701 109.467 24.7558 109.039C24.6415 108.61 24.2961 108.329 23.9856 108.411L9.34918 112.308Z" fill="white"/>
<path d="M10.2491 115.683C9.93862 115.766 9.77916 116.182 9.89342 116.611C10.0077 117.039 10.3532 117.321 10.6636 117.238L25.3001 113.341C25.6105 113.259 25.77 112.843 25.6557 112.414C25.5415 111.985 25.196 111.704 24.8855 111.786L10.2491 115.683Z" fill="white"/>
<path d="M57.7616 198.933C57.7616 198.97 57.8922 199 58.0529 199H88.9295C89.0902 199 89.2208 198.97 89.2208 198.933V193.537C89.2208 193.5 89.0902 193.469 88.9295 193.469H58.0529C57.8922 193.469 57.7616 193.5 57.7616 193.537V198.933Z" fill="#F2F2F2"/>
<path d="M63.9474 197.988C63.9474 198.063 64.3086 198.123 64.7525 198.123C65.1963 198.123 65.5575 198.063 65.5575 197.988V194.481C65.5575 194.407 65.1963 194.346 64.7525 194.346C64.3086 194.346 63.9474 194.407 63.9474 194.481V197.988Z" fill="white"/>
<path d="M67.4429 197.988C67.4429 198.063 67.8041 198.123 68.248 198.123C68.6918 198.123 69.0531 198.063 69.0531 197.988V194.481C69.0531 194.407 68.6918 194.346 68.248 194.346C67.8041 194.346 67.4429 194.407 67.4429 194.481V197.988Z" fill="white"/>
<path d="M70.9384 197.988C70.9384 198.063 71.2996 198.123 71.7434 198.123C72.1873 198.123 72.5485 198.063 72.5485 197.988V194.481C72.5485 194.407 72.1873 194.346 71.7434 194.346C71.2996 194.346 70.9384 194.407 70.9384 194.481V197.988Z" fill="white"/>
<path d="M74.4338 197.988C74.4338 198.063 74.7951 198.123 75.2389 198.123C75.6827 198.123 76.044 198.063 76.044 197.988V194.481C76.044 194.407 75.6827 194.346 75.2389 194.346C74.7951 194.346 74.4338 194.407 74.4338 194.481V197.988Z" fill="white"/>
<path d="M77.9293 197.988C77.9293 198.063 78.2906 198.123 78.7344 198.123C79.1782 198.123 79.5395 198.063 79.5395 197.988V194.481C79.5395 194.407 79.1782 194.346 78.7344 194.346C78.2906 194.346 77.9293 194.407 77.9293 194.481V197.988Z" fill="white"/>
<path d="M81.4248 197.988C81.4248 198.063 81.7861 198.123 82.2299 198.123C82.6737 198.123 83.035 198.063 83.035 197.988V194.481C83.035 194.407 82.6737 194.346 82.2299 194.346C81.7861 194.346 81.4248 194.407 81.4248 194.481V197.988Z" fill="white"/>
<path d="M1.0423 72.3679C0.974209 72.4043 0.923356 72.4663 0.900901 72.5401C0.878447 72.614 0.886228 72.6937 0.922534 72.7618L15.4647 99.9801C15.5011 100.048 15.5631 100.099 15.637 100.121C15.7109 100.144 15.7907 100.136 15.8588 100.1L36.4156 89.1324C36.4837 89.096 36.5345 89.0341 36.557 88.9602C36.5794 88.8864 36.5716 88.8066 36.5353 88.7385L21.9932 61.5202C21.9567 61.4522 21.8948 61.4014 21.8209 61.3789C21.747 61.3565 21.6672 61.3643 21.599 61.4005L1.0423 72.3679Z" fill="#E6E6E6"/>
<path d="M2.95309 73.1633L16.2606 98.0704L34.5047 88.337L21.1972 63.4297L2.95309 73.1633ZM1.79704 73.78L1.7996 73.7787L1.79675 73.7801L1.79704 73.78Z" fill="white"/>
<path d="M7.55318 75.9015C7.26976 76.0528 7.20942 76.4942 7.41845 76.8854C7.62748 77.2767 8.02811 77.4721 8.31154 77.3209L21.6734 70.1922C21.9568 70.041 22.0172 69.5995 21.8082 69.2083C21.5991 68.817 21.1985 68.6216 20.9151 68.7728L7.55318 75.9015Z" fill="#2F80ED"/>
<path d="M9.19943 78.9829C8.916 79.1341 8.85566 79.5755 9.06469 79.9668C9.27371 80.358 9.67435 80.5535 9.95778 80.4023L23.3197 73.2735C23.6031 73.1223 23.6634 72.6808 23.4544 72.2896C23.2454 71.8983 22.8447 71.7029 22.5613 71.8541L9.19943 78.9829Z" fill="#2F80ED"/>
<path d="M10.8457 82.0642C10.5622 82.2154 10.5019 82.6568 10.7109 83.0481C10.92 83.4393 11.3206 83.6348 11.604 83.4836L24.9659 76.3548C25.2493 76.2036 25.3097 75.7621 25.1007 75.3709C24.8916 74.9797 24.491 74.7842 24.2076 74.9354L10.8457 82.0642Z" fill="#2F80ED"/>
<path d="M12.492 85.1455C12.2086 85.2967 12.1483 85.7381 12.3573 86.1294C12.5663 86.5206 12.967 86.7161 13.2504 86.5649L26.6123 79.4361C26.8957 79.2849 26.956 78.8435 26.747 78.4522C26.538 78.061 26.1373 77.8655 25.8539 78.0167L12.492 85.1455Z" fill="#2F80ED"/>
<path d="M14.1383 88.2268C13.8548 88.378 13.7945 88.8195 14.0035 89.2107C14.2126 89.602 14.6132 89.7974 14.8966 89.6462L28.2585 82.5174C28.5419 82.3662 28.6023 81.9248 28.3933 81.5335C28.1842 81.1423 27.7836 80.9468 27.5002 81.098L14.1383 88.2268Z" fill="#2F80ED"/>
<path d="M15.7845 91.3081C15.5011 91.4594 15.4407 91.9008 15.6498 92.292C15.8588 92.6833 16.2594 92.8788 16.5429 92.7275L29.9048 85.5987C30.1882 85.4475 30.2485 85.0061 30.0395 84.6149C29.8305 84.2236 29.4298 84.0281 29.1464 84.1793L15.7845 91.3081Z" fill="#2F80ED"/>
<path d="M200.795 141.924C200.728 141.885 200.649 141.874 200.574 141.893C200.5 141.912 200.435 141.96 200.396 142.027L184.688 168.59C184.648 168.656 184.637 168.736 184.656 168.81C184.676 168.885 184.724 168.949 184.79 168.988L204.852 180.835C204.919 180.875 204.998 180.886 205.073 180.867C205.148 180.847 205.212 180.799 205.251 180.733L220.96 154.17C220.999 154.103 221.01 154.024 220.991 153.949C220.972 153.874 220.923 153.81 220.857 153.771L200.795 141.924Z" fill="#E6E6E6"/>
<path d="M201.108 143.969L186.734 168.276L204.539 178.791L218.913 154.483L201.108 143.969ZM199.98 143.302L199.983 143.304L199.98 143.302L199.98 143.302Z" fill="white"/>
<path d="M201.159 149.319C200.882 149.156 200.473 149.334 200.248 149.715C200.022 150.097 200.063 150.541 200.34 150.704L213.38 158.405C213.656 158.568 214.065 158.39 214.291 158.008C214.517 157.626 214.476 157.183 214.199 157.019L201.159 149.319Z" fill="#2F80ED"/>
<path d="M199.38 152.326C199.104 152.163 198.695 152.341 198.469 152.723C198.244 153.104 198.285 153.548 198.561 153.711L211.602 161.412C211.878 161.575 212.287 161.397 212.513 161.015C212.739 160.634 212.697 160.19 212.421 160.027L199.38 152.326Z" fill="#2F80ED"/>
<path d="M197.602 155.333C197.326 155.17 196.917 155.348 196.691 155.73C196.465 156.112 196.506 156.555 196.783 156.718L209.823 164.419C210.1 164.582 210.509 164.404 210.734 164.023C210.96 163.641 210.919 163.197 210.642 163.034L197.602 155.333Z" fill="#2F80ED"/>
<path d="M195.824 158.34C195.547 158.177 195.138 158.355 194.913 158.737C194.687 159.119 194.728 159.562 195.005 159.726L208.045 167.426C208.322 167.59 208.73 167.412 208.956 167.03C209.182 166.648 209.141 166.204 208.864 166.041L195.824 158.34Z" fill="#2F80ED"/>
<path d="M194.046 161.348C193.769 161.184 193.36 161.362 193.134 161.744C192.909 162.126 192.95 162.569 193.226 162.733L206.267 170.433C206.543 170.597 206.952 170.419 207.178 170.037C207.404 169.655 207.362 169.211 207.086 169.048L194.046 161.348Z" fill="#2F80ED"/>
<path d="M192.267 164.355C191.991 164.191 191.582 164.369 191.356 164.751C191.13 165.133 191.171 165.577 191.448 165.74L204.488 173.441C204.765 173.604 205.174 173.426 205.399 173.044C205.625 172.662 205.584 172.219 205.308 172.055L192.267 164.355Z" fill="#2F80ED"/>
</g>
<defs>
<clipPath id="clip0">
<rect width="221" height="199" fill="white"/>
</clipPath>
</defs>
</svg>
