<svg width="261" height="192" viewBox="0 0 261 192" fill="none" xmlns="http://www.w3.org/2000/svg">
<path d="M137.276 190.374H135.094L135.821 147.527H136.549L137.276 190.374Z" fill="#E6E6E6"/>
<path d="M138.997 120.513L142.514 115.056C141.471 112.163 140.267 109.332 138.906 106.576L136.632 108.42L138.433 105.626C136.717 102.235 135.367 100.098 135.367 100.098C135.367 100.098 128.314 111.257 125.957 123.072L130.47 130.074L125.474 126.023C125.296 127.399 125.205 128.785 125.2 130.173C125.2 144.166 129.752 155.51 135.367 155.51C140.981 155.51 145.533 144.166 145.533 130.173C145.533 125.835 144.556 121.297 143.207 117.099L138.997 120.513Z" fill="#E6E6E6"/>
<path d="M82.0081 190.374H79.826L80.5535 147.527H81.2806L82.0081 190.374Z" fill="#E6E6E6"/>
<path d="M84.5479 120.513L88.0646 115.056C87.0217 112.163 85.8171 109.332 84.4567 106.576L82.1827 108.42L83.9832 105.626C82.2673 102.235 80.9171 100.098 80.9171 100.098C80.9171 100.098 73.8642 111.257 71.5079 123.072L76.0206 130.074L71.0248 126.023C70.8469 127.399 70.7553 128.785 70.7507 130.173C70.7507 144.166 75.3023 155.51 80.9171 155.51C86.5318 155.51 91.0834 144.166 91.0834 130.173C91.0834 125.835 90.1059 121.297 88.7576 117.099L84.5479 120.513Z" fill="#E6E6E6"/>
<path d="M109.128 190.241H104.763L106.218 102.113H107.673L109.128 190.241Z" fill="#E6E6E6"/>
<path d="M112.922 46.5496L120.173 35.2981C118.022 29.3341 115.539 23.4966 112.734 17.8134L108.045 21.6158L111.757 15.855C108.219 8.86217 105.435 4.45631 105.435 4.45631C105.435 4.45631 90.893 27.4652 86.0346 51.8264L95.3394 66.2648L85.0385 57.9112C84.6716 60.749 84.4829 63.6072 84.4734 66.4688C84.4734 95.3206 93.8584 118.71 105.435 118.71C117.012 118.71 126.397 95.3206 126.397 66.4688C126.397 57.5244 124.382 48.1667 121.602 39.5105L112.922 46.5496Z" fill="#E6E6E6"/>
<path d="M87.939 40.4122C99.0536 40.4122 108.064 31.3656 108.064 20.2061C108.064 9.04658 99.0536 0 87.939 0C76.8244 0 67.8142 9.04658 67.8142 20.2061C67.8142 31.3656 76.8244 40.4122 87.939 40.4122Z" fill="#E6E6E6"/>
<path d="M261 190.12H0V190.781H261V190.12Z" fill="#3F3D56"/>
<path d="M234.909 86.2957C235.018 86.2957 235.126 86.2742 235.227 86.2323C235.327 86.1905 235.419 86.1291 235.496 86.0518C235.573 85.9745 235.634 85.8827 235.676 85.7817C235.717 85.6807 235.739 85.5724 235.739 85.463V76.5814C235.74 76.4479 235.709 76.316 235.648 76.1971C235.588 76.0783 235.499 75.976 235.39 75.8991C235.282 75.8222 235.156 75.773 235.024 75.7557C234.892 75.7384 234.758 75.7535 234.633 75.7998V65.757C234.633 65.3925 234.562 65.0316 234.423 64.6949C234.284 64.3581 234.08 64.0521 233.823 63.7944C233.567 63.5367 233.262 63.3323 232.927 63.1928C232.591 63.0533 232.232 62.9815 231.869 62.9815H141.475C141.112 62.9815 140.753 63.0533 140.417 63.1928C140.082 63.3323 139.777 63.5367 139.52 63.7944C139.264 64.0521 139.06 64.3581 138.921 64.6949C138.782 65.0316 138.711 65.3925 138.711 65.757V187.601C138.711 188.338 139.002 189.043 139.52 189.564C140.039 190.085 140.742 190.377 141.475 190.377H231.869C232.602 190.377 233.305 190.085 233.823 189.564C234.342 189.043 234.633 188.338 234.633 187.601V98.7344C234.758 98.7807 234.892 98.7958 235.024 98.7785C235.156 98.7612 235.281 98.712 235.39 98.6351C235.499 98.5582 235.588 98.4559 235.648 98.3371C235.709 98.2182 235.74 98.0863 235.739 97.9528V89.0712C235.74 88.9376 235.709 88.8057 235.648 88.6869C235.588 88.568 235.499 88.4658 235.39 88.3889C235.281 88.312 235.156 88.2627 235.024 88.2454C234.892 88.2281 234.758 88.2433 234.633 88.2895V86.2447C234.722 86.2775 234.815 86.2948 234.909 86.2957Z" fill="#3F3D56"/>
<path d="M226.34 68.3937C226.703 68.3937 227.063 68.4655 227.398 68.605C227.733 68.7445 228.038 68.9489 228.295 69.2066C228.551 69.4644 228.755 69.7703 228.894 70.1071C229.033 70.4438 229.104 70.8047 229.104 71.1692V182.189C229.104 182.925 228.813 183.631 228.295 184.152C227.776 184.672 227.073 184.965 226.34 184.965H147.004C146.271 184.965 145.568 184.672 145.049 184.152C144.531 183.631 144.24 182.925 144.24 182.189V71.1692C144.24 70.4331 144.531 69.7272 145.049 69.2067C145.568 68.6861 146.271 68.3937 147.004 68.3937H226.34Z" fill="white"/>
<path d="M186.672 66.8672C187.283 66.8672 187.778 66.3701 187.778 65.757C187.778 65.1438 187.283 64.6468 186.672 64.6468C186.061 64.6468 185.566 65.1438 185.566 65.757C185.566 66.3701 186.061 66.8672 186.672 66.8672Z" fill="white"/>
<path d="M219.501 82.9575H151.556V89.737H219.501V82.9575Z" fill="#2F80ED"/>
<path d="M219.501 98.9269H151.556V101.495H219.501V98.9269Z" fill="#E6E6E6"/>
<path d="M219.501 106.764H151.556V109.332H219.501V106.764Z" fill="#E6E6E6"/>
<path d="M186.663 114.701H151.556V117.269H186.663V114.701Z" fill="#E6E6E6"/>
<path d="M219.501 122.779H151.556V125.347H219.501V122.779Z" fill="#E6E6E6"/>
<path d="M219.501 130.856H151.556V133.424H219.501V130.856Z" fill="#E6E6E6"/>
<path d="M185.487 138.934H151.556V141.502H185.487V138.934Z" fill="#E6E6E6"/>
<path d="M219.501 147.012H151.556V149.579H219.501V147.012Z" fill="#E6E6E6"/>
<path d="M219.501 155.089H151.556V157.657H219.501V155.089Z" fill="#E6E6E6"/>
<path d="M219.582 164.997H198.126V172.08H219.582V164.997Z" fill="#2F80ED"/>
<path d="M78.7545 108.033H78.2711V91.8687C78.2711 89.3768 77.2852 86.9869 75.5302 85.2248C73.7752 83.4627 71.3949 82.4728 68.913 82.4728H34.6193C33.3904 82.4728 32.1735 82.7158 31.0382 83.188C29.9028 83.6602 28.8711 84.3523 28.0022 85.2248C27.1332 86.0973 26.4439 87.1331 25.9736 88.2731C25.5033 89.413 25.2612 90.6349 25.2612 91.8687V180.981C25.2612 182.215 25.5033 183.437 25.9736 184.577C26.4439 185.717 27.1332 186.752 28.0022 187.625C28.8711 188.497 29.9028 189.19 31.0382 189.662C32.1735 190.134 33.3904 190.377 34.6193 190.377H68.913C71.3949 190.377 73.7752 189.387 75.5302 187.625C77.2852 185.863 78.2711 183.473 78.2711 180.981V119.519H78.7545V108.033Z" fill="#3F3D56"/>
<path d="M76.1765 91.2243V180.771C76.1765 182.633 75.4402 184.417 74.1295 185.733C72.8188 187.049 71.0412 187.789 69.1877 187.789H34.8281C32.9745 187.789 31.1969 187.049 29.8862 185.733C28.5756 184.417 27.8392 182.633 27.8392 180.771V91.2243C27.8392 89.5468 28.5029 87.9381 29.6843 86.7519C30.8656 85.5658 32.4679 84.8994 34.1386 84.8994H38.9897C38.8065 85.3595 38.7249 85.8539 38.7505 86.3487C38.7762 86.8435 38.9085 87.3268 39.1383 87.7652C39.418 88.2494 39.8142 88.6554 40.2906 88.9461C40.767 89.2368 41.3084 89.4029 41.8653 89.4291H61.8557C62.4126 89.4029 62.9541 89.2368 63.4305 88.946C63.9069 88.6553 64.3031 88.2493 64.5828 87.765C64.8125 87.3266 64.9447 86.8433 64.9704 86.3486C64.996 85.8539 64.9144 85.3594 64.7312 84.8994H69.8771C71.5478 84.8994 73.1501 85.5658 74.3314 86.7519C75.5128 87.9381 76.1765 89.5468 76.1765 91.2243Z" fill="white"/>
<path d="M115.99 66.9195C115.99 66.9195 112.345 65.6124 110.001 70.8409C107.658 76.0694 104.013 81.8208 104.013 81.8208L106.096 82.3436C106.096 82.3436 106.616 78.6837 107.918 78.1608L107.397 82.8665C107.397 82.8665 123.02 88.3564 130.05 82.3436L129.79 80.5137C129.79 80.5137 130.831 80.7751 130.831 82.3436L131.612 81.5594C131.612 81.5594 130.831 79.9908 128.488 77.8994C126.95 76.5267 126.421 73.9151 126.239 72.2823C126.103 70.9189 125.56 69.6287 124.681 68.5807C123.123 66.7686 120.286 64.8427 115.99 66.9195Z" fill="#2F2E41"/>
<path d="M94.5813 111.773L97.9899 116.128L100.159 113.639L98.3 110.528L94.5813 111.773Z" fill="#FBBEBE"/>
<path d="M93.3419 178.666L92.1024 185.2L95.2012 186.756L97.3703 185.2V178.666H93.3419Z" fill="#FBBEBE"/>
<path d="M115.033 178.666L116.273 185.2L113.174 186.756L111.005 185.2V178.666H115.033Z" fill="#FBBEBE"/>
<path d="M102.328 119.862L97.9899 150.975L91.7924 179.289L99.2297 180.222L105.117 153.775L112.554 131.374L111.625 158.131L110.076 180.222H115.653L119.682 150.353L124.136 128.146L124.02 119.862H102.328Z" fill="#2F2E41"/>
<path d="M94.2715 184.578C94.2715 184.578 92.7221 182.711 91.7924 183.644C90.8628 184.578 88.6936 188.311 88.6936 188.311C88.6936 188.311 83.7355 191.111 87.764 191.734C91.7924 192.356 93.0319 191.734 93.0319 191.423C93.0319 191.111 93.6517 190.178 93.6517 190.178L95.2011 190.489L97.3703 189.867C97.3703 189.867 98.2999 184.134 97.3703 184.356C96.4406 184.578 94.5813 185.511 94.2715 184.578Z" fill="#2F2E41"/>
<path d="M114.104 184.578C114.104 184.578 115.653 182.711 116.583 183.644C117.513 184.578 119.682 188.311 119.682 188.311C119.682 188.311 124.64 191.111 120.611 191.734C116.583 192.356 115.343 191.734 115.343 191.423C115.343 191.111 114.724 190.178 114.724 190.178L113.174 190.489L111.005 189.867C111.005 189.867 110.075 184.134 111.005 184.356C111.935 184.578 113.794 185.511 114.104 184.578Z" fill="#2F2E41"/>
<path d="M117.048 82.9926C120.471 82.9926 123.245 80.2066 123.245 76.7699C123.245 73.3332 120.471 70.5472 117.048 70.5472C113.625 70.5472 110.85 73.3332 110.85 76.7699C110.85 80.2066 113.625 82.9926 117.048 82.9926Z" fill="#FBBEBE"/>
<path d="M121.231 80.6591C121.231 80.6591 120.611 85.9483 120.921 87.1929C121.231 88.4374 121.851 90.3042 121.851 90.3042L111.935 88.4374C111.935 88.4374 114.724 82.5259 114.104 81.5925C113.484 80.6591 121.231 80.6591 121.231 80.6591Z" fill="#FBBEBE"/>
<path d="M122.161 88.1263L111.935 85.9483L106.047 122.04C108.701 121.312 111.513 121.421 114.104 122.351C118.442 123.907 124.33 122.351 124.33 122.351L123.09 88.4374L122.161 88.1263Z" fill="#2F80ED"/>
<path d="M114.018 83.0899L110.385 85.0149L105.737 85.9483L100.779 97.7714L101.399 106.172C101.399 106.172 96.1308 115.817 95.511 121.106C95.511 121.106 96.1307 129.196 106.357 128.885L113.174 109.906C113.174 109.906 115.963 95.5935 113.174 91.5488C113.174 91.5487 115.171 83.965 114.018 83.0899Z" fill="#2F2E41"/>
<path d="M107.596 85.9484L106.593 85.7765L105.737 85.9484C105.737 85.9484 103.568 86.2595 101.089 88.4374C98.6098 90.6154 90.243 97.4603 89.6232 99.3271C89.0035 101.194 89.3133 104.305 90.243 106.172C91.1726 108.039 93.0319 110.528 93.0319 110.528L93.9616 112.706L99.2295 111.15C99.2295 111.15 95.8208 104.616 96.1307 101.816L102.328 96.838L107.596 85.9484Z" fill="#2F2E41"/>
<path d="M120.888 84.4965L125.57 90.3042L128.049 93.4155L124.95 103.994L123.4 113.017C123.4 113.017 127.119 127.329 124.02 131.685C124.02 131.685 122.161 133.863 121.541 131.374C120.921 128.885 120.921 117.062 120.921 117.062C120.921 117.062 118.442 101.505 119.682 97.4603C120.921 93.4156 119.615 85.2226 120.888 84.4965Z" fill="#2F2E41"/>
<path d="M125.26 129.507V132.618C125.26 132.618 124.64 142.886 127.739 141.641C130.837 140.397 128.668 132.618 128.668 132.618L128.358 129.196L125.26 129.507Z" fill="#FBBEBE"/>
<path d="M110.139 77.1017C112.496 75.389 114.404 73.4165 115.666 71.07C115.666 71.07 119.991 75.8953 122.635 76.1366C125.278 76.3779 122.875 70.3462 122.875 70.3462L118.069 69.1398L113.503 69.6224L109.899 72.035L110.139 77.1017Z" fill="#2F2E41"/>
<path d="M125.569 92.482L128.048 93.4154L128.358 96.5267L129.598 115.506L128.978 129.818L124.33 130.129L122.78 114.261L122.161 96.8381L125.569 92.482Z" fill="#2F2E41"/>
<path d="M70.7737 110.278H33.1067V114.036H70.7737V110.278Z" fill="#2F80ED"/>
<path d="M70.7737 119.131H33.1067V120.555H70.7737V119.131Z" fill="#E6E6E6"/>
<path d="M70.7737 123.476H33.1067V124.9H70.7737V123.476Z" fill="#E6E6E6"/>
<path d="M52.5692 127.876H33.1067V129.299H52.5692V127.876Z" fill="#E6E6E6"/>
<path d="M70.7737 132.354H33.1067V133.778H70.7737V132.354Z" fill="#E6E6E6"/>
<path d="M70.7737 136.832H33.1067V138.256H70.7737V136.832Z" fill="#E6E6E6"/>
<path d="M51.9174 141.31H33.1067V142.734H51.9174V141.31Z" fill="#E6E6E6"/>
<path d="M70.7737 145.788H33.1067V147.212H70.7737V145.788Z" fill="#E6E6E6"/>
<path d="M70.7737 150.266H33.1067V151.69H70.7737V150.266Z" fill="#E6E6E6"/>
<path d="M70.8187 155.759H58.924V159.685H70.8187V155.759Z" fill="#2F80ED"/>
</svg>
