<svg width="391" height="343" viewBox="0 0 391 343" fill="none" xmlns="http://www.w3.org/2000/svg">
<g clip-path="url(#clip0)">
<path opacity="0.1" d="M229.308 57.9653C204.567 57.0162 181 48.2046 158.5 38.562C136 28.9194 113.714 18.2349 89.5656 13.1268C74.034 9.84086 56.27 9.37687 43.7583 18.5639C31.713 27.422 27.8215 42.6704 25.7305 56.8349C24.1556 67.4898 23.2305 78.7015 27.5463 88.6774C30.5395 95.6035 35.8568 101.425 39.5304 108.081C52.325 131.162 43.2843 159.626 29.4194 182.163C22.9208 192.738 15.371 202.832 10.3557 214.078C5.3403 225.323 3.0161 238.226 7.40455 249.708C11.7586 261.097 22.1296 269.634 33.3606 275.645C56.1782 287.857 83.0556 291.349 109.283 293.328C167.323 297.71 225.669 295.812 283.861 293.914C305.398 293.209 327.027 292.497 348.213 288.823C359.979 286.781 372.123 283.546 380.667 275.725C391.508 265.8 394.196 248.991 386.933 236.548C374.742 215.672 341.06 210.488 332.528 188.081C327.841 175.752 332.658 162.018 339.47 150.578C354.088 126.046 378.588 104.521 379.88 76.4786C380.767 57.2145 368.985 37.9293 350.774 28.8139C331.687 19.2262 305.211 20.441 291.136 36.2547C276.633 52.5492 251.151 58.8005 229.308 57.9653Z" fill="#6C63FF"/>
<path d="M166.459 291.261L35.616 290.556L22.615 256.908L68.5867 253.226L60.5744 216.334L151.501 203.33L64.4314 169.931L72.1227 167.915L212.129 193.118L204.418 250.691L193.398 282.331L166.459 291.261Z" fill="#6C63FF"/>
<path d="M37.6229 276.464C37.6229 276.464 45.6506 275.046 50.4672 281.306C50.4672 281.306 46.935 284.377 39.3355 280.125L37.6229 276.464Z" fill="#6C63FF"/>
<path d="M36.7819 276.324C36.7819 276.324 31.6595 283.28 34.1825 291.024C34.1825 291.024 38.3569 289.181 38.8118 279.792L36.7819 276.324Z" fill="#6C63FF"/>
<path d="M32.1794 264.889C32.1794 264.889 35.3905 258.389 48.2347 267.487C48.2347 267.487 46.5221 271.857 40.8493 271.503C35.1764 271.149 33.6779 268.314 32.1794 264.889Z" fill="#6C63FF"/>
<path d="M31.3499 264.421C31.3499 264.421 24.6869 263.577 24.0409 280.407C24.0409 280.407 28.265 281.373 31.2658 276.05C34.2666 270.727 33.0357 267.74 31.3499 264.421Z" fill="#6C63FF"/>
<path d="M27.4699 250.995C27.4699 250.995 31.2161 239.538 44.8096 247.688C44.8096 247.688 41.7056 258.199 28.8613 254.892L27.4699 250.995Z" fill="#6C63FF"/>
<path d="M23.2955 233.869C23.2955 233.869 30.3598 222.294 42.8829 233.025C42.8829 233.025 38.4945 243.891 24.3658 237.986L23.2955 233.869Z" fill="#6C63FF"/>
<path d="M21.797 217.57C21.797 217.57 30.0387 206.936 42.4395 217.57C42.4395 217.57 34.6259 226.901 21.797 220.287V217.57Z" fill="#6C63FF"/>
<path d="M20.5125 201.74C20.5125 201.74 28.8613 190.638 40.7422 201.149C40.7422 201.149 31.3231 210.952 20.5125 204.338V201.74Z" fill="#6C63FF"/>
<path d="M21.2618 187.685C21.2618 187.685 30.054 173.394 41.1704 183.079C41.1704 183.079 31.7513 195.362 21.2618 190.401V187.685Z" fill="#6C63FF"/>
<path d="M23.2955 171.268C23.2955 171.268 32.6075 157.095 43.4181 167.961C43.4181 167.961 32.3935 180.244 23.2955 173.866V171.268Z" fill="#6C63FF"/>
<path d="M26.3995 156.593C26.3995 156.593 37.4241 143.272 47.042 148.579C47.042 148.579 35.5548 162.726 25.9178 160.128L26.3995 156.593Z" fill="#6C63FF"/>
<path d="M30.2527 142.682C30.2527 142.682 42.9747 126.366 50.3754 131.816C50.3754 131.816 41.0022 144.47 29.3506 145.736L30.2527 142.682Z" fill="#6C63FF"/>
<path d="M35.8148 126.548C35.8148 126.548 46.9503 113.227 55.0849 116.534C55.0849 116.534 45.5588 130.352 34.3201 130.707L35.8148 126.548Z" fill="#6C63FF"/>
<path d="M40.8493 111.455C40.8493 111.455 53.1583 98.6996 58.5101 100.944C58.5101 100.944 49.6262 115.117 40.3141 114.29L40.8493 111.455Z" fill="#6C63FF"/>
<path d="M45.7729 97.5185C45.7729 97.5185 56.3694 82.2785 62.1531 83.4596C62.1531 83.4596 55.7272 97.0461 45.7729 99.0666V97.5185Z" fill="#6C63FF"/>
<path d="M51.117 78.7269C51.117 78.7269 60.4826 67.0469 65.5438 67.0722C65.5438 67.0722 58.1508 82.6792 50.7309 82.5358L51.117 78.7269Z" fill="#6C63FF"/>
<path d="M54.2822 66.2159L63.3305 41.8859C63.3305 41.8859 63.7816 63.8791 53.1316 70.7293L54.2822 66.2159Z" fill="#6C63FF"/>
<path d="M57.9558 39.3845C57.9558 39.3845 59.4543 19.0659 58.491 17.4124C58.491 17.4124 64.959 34.3059 57.8946 48.3606L57.9558 39.3845Z" fill="#6C63FF"/>
<path d="M27.1181 250.725C27.1181 250.725 17.7373 244.309 11.663 260.004C11.663 260.004 20.0118 266.121 28.2229 254.728L27.1181 250.725Z" fill="#6C63FF"/>
<path d="M22.9935 233.215C22.9935 233.215 11.4872 227.424 5.90605 243.811C5.90605 243.811 14.7938 250.56 24.0409 237.357L22.9935 233.215Z" fill="#6C63FF"/>
<path d="M21.2618 218.545C21.2618 218.545 13.0201 207.911 0.619278 218.545C0.619278 218.545 8.43286 227.875 21.2618 221.261V218.545Z" fill="#6C63FF"/>
<path d="M20.2297 201.74C20.2297 201.74 11.8809 190.638 0 201.149C0 201.149 9.41911 210.952 20.2297 204.338V201.74Z" fill="#6C63FF"/>
<path d="M21.2618 188.09C21.2618 188.09 15.4054 172.082 2.67589 178.966C2.67589 178.966 9.55673 193.16 20.7419 190.747L21.2618 188.09Z" fill="#6C63FF"/>
<path d="M24.0332 171.188C24.0332 171.188 18.2113 154.902 5.30207 162.452C5.30207 162.452 13.2074 177.38 23.4598 173.702L24.0332 171.188Z" fill="#6C63FF"/>
<path d="M27.6419 156.673C27.6419 156.673 25.3483 138.818 14.6447 137.219C14.6447 137.219 16.9154 156.049 26.2007 159.892L27.6419 156.673Z" fill="#6C63FF"/>
<path d="M30.5242 142.716C30.5242 142.716 29.6297 121.203 20.7802 120.452C20.7802 120.452 21.0783 136.781 29.5265 145.761L30.5242 142.716Z" fill="#6C63FF"/>
<path d="M36.7322 125.944C36.7322 125.944 34.0946 108.055 25.6464 105.87C25.6464 105.87 26.6939 123.194 35.8951 130.335L36.7322 125.944Z" fill="#6C63FF"/>
<path d="M41.8508 111.603C41.8508 111.603 41.7629 92.9672 36.6023 90.2296C36.6023 90.2296 33.4027 107.102 40.3561 113.982L41.8508 111.603Z" fill="#6C63FF"/>
<path d="M46.1666 97.3076C46.1666 97.3076 45.4441 78.1195 40.1 75.4156C40.1 75.4156 38.2728 90.6009 45.3677 98.5647L46.1666 97.3076Z" fill="#6C63FF"/>
<path d="M51.8624 80.258C51.8624 80.258 51.8318 64.651 48.0168 60.9897C48.0168 60.9897 44.2247 78.0857 49.8708 83.3963L51.8624 80.258Z" fill="#6C63FF"/>
<path d="M53.8349 65.4482L50.1231 39.4731C50.1231 39.4731 45.081 60.7577 54.0108 70.1388L53.8349 65.4482Z" fill="#6C63FF"/>
<path d="M54.5574 39.6291C54.5574 39.6291 45.0313 22.1662 45.2262 20.2258C45.2262 20.2258 46.2393 38.5282 58.2234 47.6436L54.5574 39.6291Z" fill="#6C63FF"/>
<path d="M55.6737 34.4704C55.6737 34.4704 46.6827 9.66792 42.6153 7.6601C42.6153 7.6601 55.4596 14.8646 56.4229 33.7618L55.6737 34.4704Z" fill="#6C63FF"/>
<path d="M50.685 82.6834L50.0696 82.4768C57.6576 55.1729 59.5499 37.7648 55.4022 33.399L55.8419 32.8844C60.2418 37.4906 58.4566 54.7089 50.685 82.6834Z" fill="#444053"/>
<path d="M29.7902 146.613L28.8804 146.255C29.687 143.753 30.5548 141.214 31.4646 138.713C39.3852 116.93 46.1284 96.6665 50.4519 81.1101L51.2432 80.6883C46.9121 96.2742 40.2873 117.314 32.3591 139.126C31.4531 141.581 30.5892 144.108 29.7902 146.613Z" fill="#444053"/>
<path d="M48.9343 296.896C48.8119 296.748 36.5143 281.466 27.94 255.377C22.916 240.103 20.12 224.046 19.6563 207.805C19.0676 187.504 22.9285 164.835 29.5418 144.243L30.2604 145.171C15.4131 191.388 21.3115 230.992 29.1366 254.841C37.6191 280.694 49.7791 295.808 49.8976 295.96L48.9343 296.896Z" fill="#444053"/>
<path d="M241.108 264.45C241.108 264.45 232.442 276.122 239.323 293.766L170.133 326.878L163.493 328.414L160.434 313.65L162.48 295.019V284.836L241.108 264.45Z" fill="#D5D6DB"/>
<path d="M22.615 256.908L118.381 237.644L245.275 259.95L166.459 291.261L22.615 256.908Z" fill="#6C63FF"/>
<path d="M22.615 256.908L118.381 237.644L245.275 259.95L166.459 291.261L22.615 256.908Z" fill="#6C63FF"/>
<path d="M22.615 256.904C22.615 256.904 13.6585 275.628 23.9797 292.923L165.993 326.878C165.993 326.878 157.178 311.963 166.448 291.261L22.615 256.904Z" fill="#6C63FF"/>
<path opacity="0.1" d="M22.615 256.904C22.615 256.904 13.6585 275.628 23.9797 292.923L165.993 326.878C165.993 326.878 157.178 311.963 166.448 291.261L22.615 256.904Z" fill="black"/>
<path opacity="0.1" d="M26.8468 263.396C26.8468 263.396 21.7282 277.096 26.8468 285.963V263.396Z" fill="black"/>
<path d="M165.993 326.878L245.275 289.548C245.275 289.548 249.71 290.603 246.843 294.188C243.976 297.773 167.522 330.464 167.522 330.464L23.9797 292.923L165.993 326.878Z" fill="#6C63FF"/>
<path opacity="0.1" d="M165.993 326.878L245.275 289.548C245.275 289.548 249.71 290.603 246.843 294.188C243.976 297.773 167.522 330.464 167.522 330.464L23.9797 292.923L165.993 326.878Z" fill="black"/>
<path opacity="0.1" d="M159.494 295.032C159.494 295.032 151.849 305.155 159.494 320.34V295.032Z" fill="black"/>
<path opacity="0.1" d="M196.508 294.86L162.215 307.485L162.336 307.885L196.629 295.261L196.508 294.86Z" fill="black"/>
<path opacity="0.1" d="M203.377 293.604L162.204 310.88L162.34 311.274L203.513 293.998L203.377 293.604Z" fill="black"/>
<path opacity="0.1" d="M209.685 293.544L162.434 314.885L162.579 315.275L209.83 293.934L209.685 293.544Z" fill="black"/>
<path opacity="0.1" d="M216.545 291.716L162.986 318.413L163.143 318.797L216.702 292.101L216.545 291.716Z" fill="black"/>
<path opacity="0.1" d="M222.308 291.725L163.41 320.132L163.563 320.519L222.461 292.111L222.308 291.725Z" fill="black"/>
<path opacity="0.1" d="M234.913 289.363L164.298 323.017L164.449 323.404L235.064 289.75L234.913 289.363Z" fill="black"/>
<path opacity="0.3" d="M58.1928 258.967L125.472 243.36L166.459 252.007L111.328 271.621L58.1928 258.967Z" fill="white"/>
<path d="M245.275 259.95C245.275 259.95 248.754 261.498 246.713 263.889C244.671 266.281 166.448 291.261 166.448 291.261L245.275 259.95Z" fill="#6C63FF"/>
<path d="M279.064 223.881C279.064 223.881 270.402 235.548 277.283 253.196L208.092 286.309L201.452 287.852L198.394 273.089L200.47 254.462V244.267L279.064 223.881Z" fill="#D5D6DB"/>
<path d="M60.5743 216.334L156.337 197.074L283.235 219.38L204.418 250.691L60.5743 216.334Z" fill="#3A3768"/>
<path d="M60.559 216.334C60.559 216.334 51.5987 235.059 61.9199 252.353L203.933 286.309C203.933 286.309 195.122 271.381 204.403 250.687L60.559 216.334Z" fill="#3A3768"/>
<path opacity="0.1" d="M60.559 216.334C60.559 216.334 51.5987 235.059 61.9199 252.353L203.933 286.309C203.933 286.309 195.122 271.381 204.403 250.687L159.494 239.96L60.559 216.334Z" fill="black"/>
<path opacity="0.1" d="M64.8022 222.826C64.8022 222.826 59.6875 236.522 64.8022 245.393V222.826Z" fill="black"/>
<path d="M203.948 286.309L283.235 248.978C283.235 248.978 287.665 250.033 284.798 253.618C281.931 257.204 205.477 289.894 205.477 289.894L61.9352 252.353L203.948 286.309Z" fill="#3A3768"/>
<path opacity="0.1" d="M203.948 286.309L283.235 248.978C283.235 248.978 287.665 250.033 284.798 253.618C281.931 257.204 205.477 289.894 205.477 289.894L61.9352 252.353L203.948 286.309Z" fill="black"/>
<path opacity="0.1" d="M197.45 254.462C197.45 254.462 189.804 264.585 197.45 279.771V254.462Z" fill="black"/>
<path opacity="0.1" d="M234.467 254.295L200.174 266.92L200.295 267.32L234.588 254.695L234.467 254.295Z" fill="black"/>
<path opacity="0.1" d="M241.34 253.037L200.168 270.313L200.303 270.707L241.476 253.431L241.34 253.037Z" fill="black"/>
<path opacity="0.1" d="M247.643 252.97L200.392 274.312L200.537 274.702L247.787 253.361L247.643 252.97Z" fill="black"/>
<path opacity="0.1" d="M254.507 251.144L200.948 277.841L201.105 278.225L254.664 251.528L254.507 251.144Z" fill="black"/>
<path opacity="0.1" d="M260.264 251.147L201.366 279.554L201.519 279.941L260.417 251.534L260.264 251.147Z" fill="black"/>
<path opacity="0.1" d="M272.872 248.785L202.257 282.439L202.409 282.827L273.024 249.172L272.872 248.785Z" fill="black"/>
<path opacity="0.45" d="M96.1521 218.397L163.431 202.79L204.418 211.437L149.287 231.051L96.1521 218.397Z" fill="white"/>
<path d="M283.235 219.38C283.235 219.38 286.709 220.928 284.672 223.315C282.634 225.703 204.418 250.687 204.418 250.687L283.235 219.38Z" fill="#3A3768"/>
<path d="M282.657 177.469C282.657 177.469 273.991 198.42 280.872 216.064L211.681 239.897L205.057 241.445L201.999 226.681L204.044 208.05V197.855L282.657 177.469Z" fill="#D5D6DB"/>
<path d="M64.1791 169.927L159.945 150.663L286.843 172.968L208.023 204.279L64.1791 169.927Z" fill="#6C63FF"/>
<path d="M64.1792 169.922C64.1792 169.922 55.2073 188.647 65.5286 205.941L207.541 239.897C207.541 239.897 198.726 224.969 208.008 204.279L64.1792 169.922Z" fill="#6C63FF"/>
<path opacity="0.1" d="M64.1792 169.922C64.1792 169.922 55.2073 188.647 65.5286 205.941L207.541 239.897C207.541 239.897 198.726 224.969 208.008 204.279L64.1792 169.922Z" fill="black"/>
<path opacity="0.1" d="M68.4108 176.414C68.4108 176.414 63.2923 190.115 68.4108 198.981V176.414Z" fill="black"/>
<path d="M207.557 239.897L286.839 211.846C286.839 211.846 291.274 212.901 288.407 216.486C285.54 220.072 209.086 243.482 209.086 243.482L65.5438 205.941L207.557 239.897Z" fill="#6C63FF"/>
<path opacity="0.1" d="M207.557 239.897L286.839 211.846C286.839 211.846 291.274 212.901 288.407 216.486C285.54 220.072 209.086 243.482 209.086 243.482L65.5438 205.941L207.557 239.897Z" fill="black"/>
<path opacity="0.1" d="M201.058 208.05C201.058 208.05 193.413 218.173 201.058 233.359V208.05Z" fill="black"/>
<path opacity="0.1" d="M238.076 207.882L203.783 220.507L203.904 220.907L238.197 208.283L238.076 207.882Z" fill="black"/>
<path opacity="0.1" d="M244.947 206.626L203.775 223.902L203.91 224.296L245.083 207.021L244.947 206.626Z" fill="black"/>
<path opacity="0.1" d="M251.246 206.562L203.995 227.903L204.14 228.293L251.391 206.952L251.246 206.562Z" fill="black"/>
<path opacity="0.1" d="M258.116 204.732L204.557 231.428L204.714 231.813L258.273 205.116L258.116 204.732Z" fill="black"/>
<path opacity="0.1" d="M263.875 204.739L204.977 233.146L205.13 233.533L264.028 205.125L263.875 204.739Z" fill="black"/>
<path opacity="0.1" d="M276.482 202.38L205.867 236.034L206.018 236.421L276.634 202.767L276.482 202.38Z" fill="black"/>
<path opacity="0.3" d="M99.7569 171.985L167.036 156.378L208.023 165.025L152.892 184.639L99.7569 171.985Z" fill="white"/>
<path d="M286.839 172.968C286.839 172.968 290.318 174.516 288.277 176.908C286.235 179.299 208.023 204.279 208.023 204.279L286.839 172.968Z" fill="#6C63FF"/>
<path d="M118.664 44.9229C118.664 44.9229 104.138 43.9569 105.835 55.2024C105.835 55.2024 105.495 57.1892 107.127 58.0918C107.127 58.0918 107.154 57.2482 108.618 57.5393C109.14 57.6383 109.672 57.6666 110.2 57.6236C110.913 57.5698 111.591 57.2619 112.131 56.7463C112.131 56.7463 116.217 54.8819 117.808 47.5086C117.808 47.5086 118.985 45.9015 118.954 45.4881L116.493 46.6439C116.493 46.6439 117.33 48.5969 116.672 50.2208C116.672 50.2208 116.592 46.7156 116.118 46.7957C116.022 46.7957 114.845 47.4749 114.845 47.4749C114.845 47.4749 116.286 50.8789 115.197 53.3507C115.197 53.3507 115.61 49.1579 114.394 47.7195L112.666 48.8331C112.666 48.8331 114.352 52.3468 113.209 55.2151C113.209 55.2151 113.503 50.8156 112.303 49.103L110.736 50.4528C110.736 50.4528 112.322 53.9159 111.355 56.2949C111.355 56.2949 111.229 51.1741 110.399 50.7861C110.399 50.7861 109.027 52.119 108.821 52.6673C108.821 52.6673 109.906 55.1982 109.23 56.51C109.23 56.51 108.821 53.0976 108.465 53.0807C108.465 53.0807 107.1 55.3416 106.959 56.877C107.025 55.4456 107.43 54.0582 108.132 52.8529C107.346 53.0171 106.62 53.4322 106.045 54.0467C106.045 54.0467 106.255 52.448 108.473 52.3088C108.473 52.3088 109.6 50.592 109.902 50.4908C109.902 50.4908 107.697 50.2841 106.363 50.9379C106.363 50.9379 107.54 49.4321 110.304 50.0943L111.833 48.7023C111.833 48.7023 108.935 48.2805 107.704 48.7487C107.704 48.7487 109.123 47.4158 112.249 48.386L113.935 47.2766C113.935 47.2766 111.462 46.6903 109.99 46.9012C109.99 46.9012 111.542 45.9774 114.428 46.9771L115.629 46.3824C115.629 46.3824 113.821 45.9901 113.289 45.9268C112.758 45.8635 112.731 45.7032 112.731 45.7032C113.879 45.4953 115.056 45.6412 116.133 46.1251C116.133 46.1251 118.714 45.1001 118.664 44.9229Z" fill="#6C63FF"/>
<path opacity="0.1" d="M323.025 91.145C323.025 91.145 308.499 90.179 310.196 101.425C310.196 101.425 309.856 103.411 311.488 104.314C311.488 104.314 311.515 103.47 312.979 103.761C313.502 103.858 314.033 103.886 314.561 103.846C315.268 103.788 315.938 103.481 316.473 102.968C316.473 102.968 320.563 101.104 322.149 93.7307C322.149 93.7307 323.327 92.1236 323.296 91.7102L320.842 92.866C320.842 92.866 321.679 94.8189 321.022 96.4429C321.022 96.4429 320.942 92.9377 320.471 93.0178C320.376 93.0178 319.195 93.6969 319.195 93.6969C319.195 93.6969 320.636 97.1009 319.55 99.5728C319.55 99.5728 319.963 95.38 318.743 93.9416L317.016 95.0552C317.016 95.0552 318.701 98.5688 317.558 101.437C317.558 101.437 317.853 97.0377 316.652 95.3251L315.089 96.6749C315.089 96.6749 316.672 100.138 315.704 102.517C315.704 102.517 315.578 97.3962 314.749 97.0081C314.749 97.0081 313.38 98.3411 313.17 98.8894C313.17 98.8894 314.256 101.42 313.583 102.732C313.583 102.732 313.17 99.3197 312.818 99.3028C312.818 99.3028 311.454 101.564 311.312 103.099C311.378 101.667 311.784 100.279 312.49 99.075C311.702 99.2396 310.975 99.6545 310.399 100.269C310.399 100.269 310.613 98.6701 312.826 98.5309C312.826 98.5309 313.954 96.8141 314.256 96.7087C314.256 96.7087 312.054 96.5062 310.716 97.16C310.716 97.16 311.893 95.6541 314.657 96.3164L316.186 94.9244C316.186 94.9244 313.285 94.5026 312.058 94.9708C312.058 94.9708 313.472 93.6379 316.603 94.608L318.285 93.4987C318.285 93.4987 315.811 92.9124 314.34 93.1233C314.34 93.1233 315.892 92.1995 318.778 93.1992L319.982 92.6044C319.982 92.6044 318.17 92.2122 317.639 92.1489C317.107 92.0856 317.081 91.9253 317.081 91.9253C318.228 91.7147 319.406 91.8607 320.483 92.3471C320.483 92.3471 323.071 91.3221 323.025 91.145Z" fill="#6C63FF"/>
<path opacity="0.1" d="M143.129 114.395C143.129 114.395 136.799 99.9144 128.741 107.051C128.741 107.051 127.001 107.693 127.085 109.705C127.085 109.705 127.754 109.321 128.232 110.873C128.411 111.422 128.647 111.946 128.936 112.434C129.327 113.096 129.902 113.599 130.575 113.868C130.575 113.868 134.043 116.897 140.652 114.83C140.652 114.83 142.498 115.18 142.8 114.935L140.69 113.134C140.69 113.134 139.543 114.893 137.946 115.049C137.946 115.049 140.683 113.265 140.388 112.851C140.327 112.767 139.241 111.953 139.241 111.953C139.241 111.953 137.25 115.003 134.765 115.159C134.765 115.159 138.282 113.514 138.825 111.637L137.105 110.515C137.105 110.515 135.144 113.855 132.319 114.151C132.319 114.151 135.942 112.29 136.711 110.299L134.884 109.456C134.884 109.456 132.915 112.67 130.56 112.902C130.56 112.902 134.551 110.283 134.452 109.291C134.452 109.291 132.728 108.625 132.192 108.688C132.192 108.688 130.732 110.962 129.356 110.962C129.356 110.962 131.852 108.899 131.699 108.566C131.699 108.566 129.245 108.355 127.953 108.988C129.117 108.349 130.413 108.058 131.711 108.144C131.196 107.466 130.513 106.97 129.746 106.714C129.746 106.714 131.114 106.14 132.303 108.203C132.303 108.203 134.215 108.452 134.44 108.692C134.44 108.692 133.527 106.474 132.361 105.508C132.361 105.508 134.127 105.9 134.933 108.882L136.787 109.692C136.787 109.692 135.721 106.689 134.738 105.74C134.738 105.74 136.481 106.453 137.242 109.958L138.939 111.038C138.939 111.038 138.202 108.368 137.315 107.056C137.315 107.056 138.802 108.102 139.417 111.367L140.476 112.236C140.476 112.236 139.903 110.299 139.712 109.76C139.521 109.22 139.616 109.11 139.616 109.11C140.343 110.111 140.804 111.316 140.946 112.59C140.946 112.59 142.992 114.522 143.129 114.395Z" fill="#6C63FF"/>
<path opacity="0.1" d="M289.836 70.6871C289.836 70.6871 283.51 56.2063 275.448 63.3434C275.448 63.3434 273.712 63.9845 273.792 65.9966C273.792 65.9966 274.465 65.6169 274.939 67.165C275.117 67.716 275.355 68.2413 275.646 68.7299C276.036 69.3904 276.611 69.8925 277.283 70.1598C277.283 70.1598 280.754 73.1884 287.359 71.1258C287.359 71.1258 289.206 71.4717 289.511 71.227L287.413 69.4217C287.413 69.4217 286.266 71.1848 284.672 71.3409C284.672 71.3409 287.405 69.5524 287.111 69.1391C287.05 69.0547 285.964 68.2406 285.964 68.2406C285.964 68.2406 283.976 71.2903 281.488 71.4464C281.488 71.4464 285.008 69.8013 285.551 67.9285L283.804 66.8149C283.804 66.8149 281.847 70.1514 279.018 70.4509C279.018 70.4509 282.642 68.5865 283.414 66.5955L281.583 65.7519C281.583 65.7519 279.614 68.9703 277.263 69.1981C277.263 69.1981 281.251 66.5787 281.151 65.5916C281.151 65.5916 279.431 64.921 278.896 64.9884C278.896 64.9884 277.436 67.2578 276.056 67.2578C276.056 67.2578 278.556 65.1951 278.403 64.8619C278.403 64.8619 275.948 64.651 274.653 65.2837C275.817 64.645 277.112 64.3541 278.41 64.4401C277.897 63.7622 277.216 63.265 276.449 63.0101C276.449 63.0101 277.818 62.4365 279.007 64.4991C279.007 64.4991 280.918 64.7522 281.144 64.9927C281.144 64.9927 280.23 62.7697 279.06 61.8038C279.06 61.8038 280.826 62.2003 281.633 65.1993L283.491 66.0092C283.491 66.0092 282.424 63.0017 281.442 62.0526C281.442 62.0526 283.185 62.7655 283.942 66.2707L285.643 67.3506C285.643 67.3506 284.901 64.6847 284.014 63.3687C284.014 63.3687 285.505 64.4148 286.117 67.6796L287.176 68.5485C287.176 68.5485 286.606 66.6124 286.411 66.0725C286.216 65.5326 286.316 65.4271 286.316 65.4271C287.041 66.4295 287.5 67.6341 287.642 68.9071C287.642 68.9071 289.718 70.8221 289.836 70.6871Z" fill="#6C63FF"/>
<path opacity="0.1" d="M310.055 142.315C310.055 142.315 303.728 127.83 295.654 134.967C295.654 134.967 293.919 135.608 293.999 137.62C293.999 137.62 294.672 137.24 295.146 138.789C295.323 139.339 295.559 139.865 295.849 140.353C296.239 141.014 296.814 141.516 297.486 141.783C297.486 141.783 300.957 144.816 307.566 142.749C307.566 142.749 309.409 143.099 309.714 142.851L307.604 141.049C307.604 141.049 306.457 142.813 304.86 142.969C304.86 142.969 307.593 141.18 307.298 140.767C307.237 140.682 306.152 139.868 306.152 139.868C306.152 139.868 304.164 142.918 301.675 143.078C301.675 143.078 305.196 141.429 305.739 139.556L304.015 138.434C304.015 138.434 302.057 141.775 299.229 142.07C299.229 142.07 302.853 140.206 303.625 138.215L301.794 137.371C301.794 137.371 299.825 140.585 297.474 140.817C297.474 140.817 301.465 138.198 301.366 137.207C301.366 137.207 299.642 136.536 299.106 136.604C299.106 136.604 297.646 138.873 296.266 138.873C296.266 138.873 298.766 136.81 298.613 136.477C298.613 136.477 296.159 136.266 294.863 136.899C296.029 136.26 297.326 135.97 298.625 136.055C298.111 135.376 297.428 134.879 296.66 134.625C296.66 134.625 298.028 134.047 299.217 136.114C299.217 136.114 301.129 136.363 301.354 136.604C301.354 136.604 300.44 134.385 299.275 133.415C299.275 133.415 301.041 133.811 301.847 136.81L303.701 137.62C303.701 137.62 302.635 134.613 301.652 133.668C301.652 133.668 303.395 134.376 304.152 137.886L305.853 138.961C305.853 138.961 305.112 136.296 304.225 134.98C304.225 134.98 305.716 136.026 306.331 139.295L307.39 140.138C307.39 140.138 306.817 138.202 306.626 137.662C306.434 137.122 306.53 137.017 306.53 137.017C307.257 138.018 307.716 139.223 307.857 140.497C307.857 140.497 309.936 142.441 310.055 142.315Z" fill="#6C63FF"/>
<path opacity="0.1" d="M77.1992 330.767C82.0529 330.767 85.9876 330.282 85.9876 329.683C85.9876 329.085 82.0529 328.599 77.1992 328.599C72.3455 328.599 68.4108 329.085 68.4108 329.683C68.4108 330.282 72.3455 330.767 77.1992 330.767Z" fill="#6C63FF"/>
<path opacity="0.1" d="M19.5875 312.343C24.4411 312.343 28.3758 311.857 28.3758 311.259C28.3758 310.66 24.4411 310.175 19.5875 310.175C14.7338 310.175 10.7991 310.66 10.7991 311.259C10.7991 311.857 14.7338 312.343 19.5875 312.343Z" fill="#6C63FF"/>
<path opacity="0.1" d="M121.114 343.004C125.968 343.004 129.903 342.519 129.903 341.92C129.903 341.321 125.968 340.836 121.114 340.836C116.261 340.836 112.326 341.321 112.326 341.92C112.326 342.519 116.261 343.004 121.114 343.004Z" fill="#6C63FF"/>
<path opacity="0.1" d="M346.156 316.35C351.01 316.35 354.944 315.865 354.944 315.266C354.944 314.667 351.01 314.182 346.156 314.182C341.302 314.182 337.368 314.667 337.368 315.266C337.368 315.865 341.302 316.35 346.156 316.35Z" fill="#6C63FF"/>
<path opacity="0.1" d="M273.024 311.09C277.878 311.09 281.812 310.605 281.812 310.006C281.812 309.407 277.878 308.922 273.024 308.922C268.17 308.922 264.236 309.407 264.236 310.006C264.236 310.605 268.17 311.09 273.024 311.09Z" fill="#6C63FF"/>
<path opacity="0.1" d="M225.715 336.745C231.455 336.745 236.108 335.863 236.108 334.775C236.108 333.687 231.455 332.805 225.715 332.805C219.974 332.805 215.321 333.687 215.321 334.775C215.321 335.863 219.974 336.745 225.715 336.745Z" fill="#6C63FF"/>
<path d="M230.351 314.975C230.351 314.975 215.879 323.225 223.356 332.944C223.356 332.944 224.059 335.053 226.093 334.905C226.093 334.905 225.688 334.087 227.24 333.433C227.792 333.198 228.317 332.89 228.803 332.518C229.461 332.017 229.952 331.292 230.202 330.455C230.202 330.455 233.161 326.085 230.868 317.999C230.868 317.999 231.166 315.713 230.906 315.342L229.147 318.003C229.147 318.003 230.963 319.349 231.173 321.327C231.173 321.327 229.262 318.008 228.88 318.375C228.796 318.451 228.008 319.83 228.008 319.83C228.008 319.83 231.158 322.188 231.391 325.25C231.391 325.25 229.618 320.96 227.702 320.349L226.605 322.508C226.605 322.508 230.046 324.82 230.428 328.296C230.428 328.296 228.429 323.888 226.387 322.998L225.581 325.28C225.581 325.28 228.899 327.608 229.205 330.502C229.205 330.502 226.429 325.664 225.432 325.815C225.432 325.815 224.805 327.958 224.889 328.62C224.889 328.62 227.232 330.35 227.274 332.05C227.274 332.05 225.111 329.034 224.778 329.232C224.778 329.232 224.64 332.265 225.306 333.842C225.306 333.842 224.159 331.59 224.346 329.232C223.676 329.886 223.193 330.743 222.958 331.695C222.958 331.695 222.335 330.029 224.388 328.494C224.388 328.494 224.583 326.136 224.82 325.845C224.82 325.845 222.599 327.043 221.655 328.511C221.655 328.511 222.003 326.322 225.015 325.233L225.78 322.922C225.78 322.922 222.767 324.331 221.838 325.571C221.838 325.571 222.507 323.398 226.017 322.357L227.056 320.248C227.056 320.248 224.38 321.243 223.073 322.357C223.073 322.357 224.086 320.488 227.377 319.627L228.222 318.299C228.222 318.299 226.28 319.062 225.737 319.336C225.195 319.611 225.088 319.476 225.088 319.476C226.08 318.549 227.285 317.945 228.57 317.729C228.57 317.729 230.485 315.118 230.351 314.975Z" fill="#6C63FF"/>
<path d="M273.307 159.145C270.807 151.65 257.045 150.945 251.074 152.856C246.831 154.218 237.886 155.754 233.108 156.526L232.798 156.201C233.417 155.998 233.433 155.501 233.356 154.763C233.312 153.79 233.324 152.815 233.394 151.844C236.323 152.847 238.93 150.473 238.93 150.473C242.37 148.785 241.445 141.564 242.102 139.59C242.596 138.114 243.127 129.416 243.364 125.08H243.414L243.44 123.624C243.475 122.996 243.49 122.629 243.49 122.629C243.49 122.629 243.826 112.025 244.484 109.878C245.096 107.904 245.593 97.9572 245.669 96.3796C245.669 96.2447 245.669 96.173 245.669 96.173L245.619 95.2534C245.654 94.5827 245.669 93.8361 245.665 93.0515C245.665 89.4451 245.325 84.9022 245.283 84.1682C245.283 84.0628 245.283 83.9362 245.283 83.7844C245.31 82.2447 245.134 74.534 239.19 71.6193C236.999 70.5395 234.365 69.253 231.816 68.0002C231.158 61.7363 229.656 55.5061 229.786 49.1958C229.786 48.2468 229.862 47.2977 229.946 46.3528C229.946 46.627 229.92 46.9054 229.916 47.1964C229.916 47.8081 229.916 48.4239 229.916 49.0355C230.141 41.1435 232.844 33.2092 232.592 25.4858C232.569 26.2409 232.519 27.0001 232.454 27.7594C232.586 25.147 232.338 22.5282 231.72 20.0023C231.491 19.1123 231.181 18.1927 230.52 17.598C229.895 17.119 229.178 16.8057 228.425 16.6826C226.616 16.1717 224.778 15.7941 222.924 15.5522C222.642 14.6005 222.224 13.7047 221.685 12.899C217.809 7.02737 212.068 1.51008 205.278 0.244646C201.872 -0.388071 197.954 0.139192 195.638 2.82613C195.396 3.06217 195.168 3.31582 194.957 3.58539C193.711 5.22623 193.176 7.38169 191.899 9.01832C191.815 9.12799 191.719 9.22923 191.628 9.33468C189.128 11.8023 185.232 12.3169 182.453 14.5314C181.963 14.9289 181.504 15.3705 181.081 15.8517C179.961 17.0761 178.957 18.423 178.084 19.8715C176.834 21.8119 175.549 23.8323 175.152 26.1481C174.353 30.788 177.216 35.1875 177.747 39.8569C178.932 50.3052 168.454 59.5766 170.438 69.8857C170.968 72.4183 172.137 74.7335 173.81 76.5629C169.724 80.6461 166.245 84.6069 166.245 84.6069V84.8431H165.599L165.664 85.6867H165.599L165.954 90.2634L165.599 96.928C165.599 96.928 165.599 96.9997 165.599 97.1347V97.1684V97.3498C165.599 97.3498 165.599 97.4215 165.599 97.5565H165.622C165.74 99.9988 166.211 108.781 166.769 110.633C167.426 112.78 167.759 123.384 167.759 123.384C167.759 123.384 168.485 138.371 169.15 140.353C169.815 142.336 168.871 149.536 172.323 151.236C173.333 152.091 174.529 152.638 175.79 152.822C175.614 154.4 175.725 155.543 176.295 155.901C176.539 156.06 176.815 156.147 177.098 156.154C176.863 156.538 176.655 156.94 176.474 157.357C175.104 157.199 173.758 156.849 172.468 156.315C168.76 154.628 156.455 150.831 152.881 153.501C149.307 156.171 140.706 158.593 144.677 169.34C148.649 180.088 150.499 180.358 150.499 180.358C151.722 181.337 152.794 182.526 153.676 183.88C154.869 185.858 165.981 190.384 168.76 190.384C169.942 190.364 171.123 190.429 172.296 190.579C172.296 190.579 169.28 193.497 169.682 195.193C170.083 196.889 168.764 210.463 168.764 210.463C168.764 210.463 171.822 213.862 173.13 209.404L173.175 209.471C173.42 209.838 174.743 211.496 177.231 209.404C178.25 208.551 179.332 207.795 180.465 207.143L192.514 205.262C193.771 205.175 195.03 205.165 196.287 205.232C198.199 205.405 200.076 204.157 201.257 203.191C203.753 204.237 206.559 205.38 207.893 205.797C210.6 206.641 223.039 210.323 225.948 209.172C226.552 208.907 227.09 208.484 227.515 207.94L230.29 208.037L228.991 208.324C228.991 208.324 231.521 208.371 234.962 208.421L234.816 208.514L239.132 208.472C245.447 208.535 252.542 208.556 253.475 208.324C254.935 207.966 262.523 208.219 264.76 208.324H265.383C265.383 208.324 273.72 206.489 270.279 197.155C267.634 189.984 259.503 187.9 255.895 187.326C256.912 187.103 257.787 186.93 258.368 186.829C260.887 186.407 265.78 183.876 266.178 183.011C266.575 182.146 270.677 179.637 271.736 178.207C272.795 176.777 275.819 166.641 273.307 159.145ZM204.25 180.122L203.841 180.269L203.566 180.371L203.038 180.944C202.618 180.632 202.167 180.303 201.697 179.966C202.526 180.021 203.379 180.075 204.25 180.122Z" fill="url(#paint0_linear)"/>
<path d="M228.624 135.646C228.624 135.646 234.472 152.519 237.798 150.831C241.124 149.144 240.222 141.973 240.856 140.008C241.491 138.042 242.194 123.135 242.194 123.135C242.194 123.135 242.515 112.59 243.15 110.455C243.739 108.494 244.216 98.6026 244.297 97.0461C244.297 96.9111 244.297 96.8394 244.297 96.8394L243.666 84.6069L240.095 83.6241L231.816 86.9986L230.669 94.2242L230.221 97.0461L230.03 98.2483L228.624 135.646Z" fill="#BE6F72"/>
<path opacity="0.1" d="M230.55 132.82C230.55 132.82 236.131 137.861 237.813 138.303C239.495 138.746 240.527 142.678 240.527 142.678" fill="black"/>
<path d="M182.885 136.384C182.885 136.384 177.036 153.257 173.711 151.569C170.385 149.882 171.287 142.711 170.653 140.746C170.018 138.78 169.315 123.873 169.315 123.873C169.315 123.873 168.993 113.328 168.359 111.194C167.77 109.232 167.292 99.3408 167.212 97.7843C167.212 97.6493 167.212 97.5776 167.212 97.5776L167.847 85.3451L171.417 84.3622L179.697 87.7367L180.844 94.9624L181.291 97.7843L181.482 98.9864L182.885 136.384Z" fill="#BE6F72"/>
<path d="M220.971 46.0913H207.916V68.5443H220.971V46.0913Z" fill="#3E373A"/>
<path opacity="0.1" d="M220.971 46.0913H207.916V68.5443H220.971V46.0913Z" fill="black"/>
<path d="M180.592 153.189C180.592 153.189 176.13 158.601 177.786 159.584C179.441 160.567 190.148 178.987 190.148 178.987C190.148 178.987 225.317 183.766 231.949 176.595C238.582 169.425 238.448 156.614 238.448 156.614C238.448 156.614 233.119 157.88 232.538 157.192C231.957 156.505 228.765 153.189 228.765 153.189C228.765 153.189 183.65 150.169 180.592 153.189Z" fill="#4B4B5B"/>
<path opacity="0.02" d="M180.592 153.189C180.592 153.189 176.13 158.601 177.786 159.584C179.441 160.567 190.148 178.987 190.148 178.987C190.148 178.987 225.317 183.766 231.949 176.595C238.582 169.425 238.448 156.614 238.448 156.614C238.448 156.614 233.119 157.88 232.538 157.192C231.957 156.505 228.765 153.189 228.765 153.189C228.765 153.189 183.65 150.169 180.592 153.189Z" fill="black"/>
<path d="M243.903 84.7841L232.435 94.9075L228.968 95.1859L227.695 95.2872L206.314 97.0166L184.143 95.2281L180.844 94.9624L176.639 94.6249L167.847 85.3451C167.847 85.3451 174.07 77.9887 179.521 73.024C181.67 71.0625 183.699 69.4765 185.179 68.8522L185.431 68.7552C186.362 68.3548 187.192 67.7157 187.855 66.8908C192.159 61.9936 196.138 49.9087 196.138 49.9087C196.138 49.9087 215.126 39.085 212.832 53.2832C210.538 67.4814 221.368 63.9719 221.368 63.9719L224.939 65.7688L226.349 66.4817L229.946 68.2997L238.062 72.4081C244.43 75.6434 243.903 84.7841 243.903 84.7841Z" fill="#BE6F72"/>
<path opacity="0.1" d="M205.424 61.4706C214.854 61.4706 222.5 53.0346 222.5 42.6283C222.5 32.2219 214.854 23.7859 205.424 23.7859C195.993 23.7859 188.348 32.2219 188.348 42.6283C188.348 53.0346 195.993 61.4706 205.424 61.4706Z" fill="black"/>
<path opacity="0.1" d="M243.93 98.2061H167.212C167.212 98.0711 167.212 97.9994 167.212 97.9994L167.847 85.7669C167.847 85.7669 174.07 78.4105 179.521 73.4458L227.687 71.3367L229.927 68.7299L238.043 72.8384C244.415 76.0694 243.903 85.2101 243.903 85.2101C243.903 85.2101 244.774 95.8018 243.93 98.2061Z" fill="black"/>
<path d="M243.93 97.7843H167.212C167.212 97.6493 167.212 97.5776 167.212 97.5776L167.847 85.3451C167.847 85.3451 174.07 77.9887 179.521 73.024L227.687 70.9149L229.927 68.3081L238.043 72.4165C244.415 75.6476 243.903 84.7883 243.903 84.7883C243.903 84.7883 244.774 95.3799 243.93 97.7843Z" fill="#E7C7CA"/>
<path opacity="0.1" d="M193.126 63.4826C193.126 63.4826 205.229 80.4984 221.349 63.1325C237.469 45.7665 223.134 101.867 223.134 101.867L188.348 106.423L193.126 63.4826Z" fill="black"/>
<path d="M193.126 64.3262C193.126 64.3262 205.229 81.3421 221.349 63.9761C237.469 46.6101 223.134 102.711 223.134 102.711L188.348 107.267L193.126 64.3262Z" fill="#E7C7CA"/>
<path opacity="0.1" d="M226.33 67.3126L227.611 88.863L228.983 96.0338L230.03 101.517C230.03 101.517 232.706 143.698 231.942 145.807C231.177 147.917 232.324 149.604 232.484 150.726C232.645 151.848 232.324 154.666 232.45 155.931C232.576 157.196 232.45 157.757 229.522 157.306C226.594 156.855 222.511 156.07 222.511 156.07C222.511 156.07 212.19 156.914 208.623 155.509C205.057 154.105 198.302 154.1 198.302 154.1C198.302 154.1 188.107 154.383 184.796 153.961C181.486 153.539 179.697 158.462 177.533 157.053C175.37 155.644 180.079 142.011 181.608 138.071C183.137 134.132 179.571 124.152 179.571 124.152L184.158 96.0717L185.179 89.7066V69.6959L185.431 69.5988C186.362 69.1984 187.192 68.5593 187.855 67.7344L189.001 87.8717L224.935 89.2806V66.6166" fill="black"/>
<path d="M226.33 66.469L227.611 88.0194L228.983 95.1901L230.03 100.674C230.03 100.674 232.706 142.855 231.942 144.964C231.177 147.073 232.324 148.76 232.484 149.882C232.645 151.004 232.324 153.822 232.45 155.087C232.576 156.353 232.45 156.914 229.522 156.462C226.594 156.011 222.511 155.227 222.511 155.227C222.511 155.227 212.19 156.07 208.623 154.666C205.057 153.261 198.302 153.257 198.302 153.257C198.302 153.257 188.107 153.539 184.796 153.117C181.486 152.696 179.697 157.618 177.533 156.209C175.37 154.8 180.079 141.168 181.608 137.228C183.137 133.288 179.571 123.308 179.571 123.308L184.158 95.2281L185.179 88.863V68.8523L185.431 68.7552C186.362 68.3548 187.192 67.7157 187.855 66.8908L189.001 87.0281L224.935 88.4369V65.773" fill="#E7C7CA"/>
<path opacity="0.1" d="M230.462 21.4955C230.244 20.6139 229.942 19.6986 229.316 19.108C228.717 18.6337 228.025 18.3216 227.297 18.1969C225.554 17.691 223.781 17.3161 221.991 17.0749C221.736 16.1383 221.349 15.2516 220.844 14.447C217.098 8.60916 211.555 3.10452 205.034 1.86018C201.62 1.20637 197.664 1.79269 195.477 4.76224C194.277 6.39465 193.761 8.55854 192.549 10.1614C190.213 13.2744 185.997 13.6582 183.053 16.0668C181.482 17.3322 180.343 19.1671 179.231 20.9471C178.026 22.8748 176.788 24.8826 176.406 27.1857C175.641 31.7877 178.397 36.1745 178.906 40.8187C180.053 51.2079 169.961 60.4244 171.868 70.6745C172.981 76.6515 177.984 80.8612 183.16 82.9956C184.984 83.7506 187.067 84.5014 187.92 86.4333C188.302 87.2769 188.367 88.2513 188.726 89.1034C189.934 91.9464 193.906 92.0561 196.039 89.985C198.172 87.9139 198.845 84.5647 199.097 81.4391C200.122 67.7893 195.167 54.304 195.745 40.6204C195.917 36.4824 196.972 31.7877 200.332 29.9148C204.854 27.384 210.294 31.6021 215.271 30.7964C217.626 37.12 218.126 44.099 216.701 50.7523C215.909 54.3925 214.541 57.9231 214.441 61.6772C214.292 67.3928 217.087 72.6148 219.503 77.6681C220.021 78.613 220.368 79.6603 220.523 80.7515C220.561 81.8587 220.375 82.9612 219.977 83.9784C218.612 88.032 216.257 91.7945 215.99 96.1097C215.911 96.6134 216.014 97.131 216.276 97.5523C216.546 97.8334 216.893 98.0059 217.263 98.0416C221.391 98.8219 224.961 94.7852 226.976 90.7316C229.222 86.2544 230.531 81.279 230.806 76.1707C231.223 67.5826 228.432 59.1337 228.604 50.5372C228.803 40.7638 232.806 30.923 230.462 21.4955Z" fill="black"/>
<path d="M230.845 21.0737C230.627 20.1921 230.325 19.2768 229.698 18.6862C229.099 18.2119 228.408 17.8998 227.679 17.7751C225.936 17.2692 224.163 16.8943 222.374 16.6531C222.118 15.7165 221.731 14.8298 221.227 14.0252C217.48 8.18734 211.938 2.68271 205.416 1.43836C202.002 0.784557 198.046 1.37087 195.859 4.34043C194.659 5.97283 194.143 8.13673 192.931 9.73961C190.596 12.8526 186.379 13.2364 183.436 15.645C181.864 16.9104 180.725 18.7453 179.613 20.5253C178.409 22.453 177.17 24.4608 176.788 26.7639C176.023 31.3659 178.78 35.7527 179.288 40.3969C180.435 50.7861 170.343 60.0026 172.25 70.2527C173.363 76.2297 178.367 80.4394 183.543 82.5738C185.366 83.3288 187.449 84.0796 188.302 86.0115C188.684 86.8551 188.749 87.8295 189.108 88.6816C190.316 91.5246 194.288 91.6343 196.421 89.5632C198.554 87.4921 199.227 84.1429 199.479 81.0173C200.504 67.3675 195.55 53.8822 196.127 40.1986C196.299 36.0606 197.354 31.3659 200.714 29.493C205.236 26.9622 210.676 31.1803 215.653 30.3746C218.008 36.6981 218.508 43.6772 217.083 50.3305C216.292 53.9707 214.923 57.5013 214.824 61.2554C214.675 66.971 217.469 72.193 219.885 77.2463C220.403 78.1912 220.75 79.2385 220.906 80.3297C220.944 81.4369 220.757 82.5394 220.359 83.5566C218.994 87.6102 216.639 91.3727 216.372 95.6879C216.293 96.1916 216.396 96.7092 216.659 97.1305C216.928 97.4116 217.275 97.5841 217.645 97.6198C221.773 98.4001 225.344 94.3634 227.358 90.3098C229.604 85.8326 230.913 80.8572 231.189 75.7489C231.605 67.1608 228.815 58.7119 228.987 50.1154C229.186 40.342 233.188 30.5012 230.845 21.0737Z" fill="#3E373A"/>
<path d="M222.4 207.839L237.565 208.375L235.39 195.965L223.773 197.184L222.4 207.839Z" fill="#C3C7D9"/>
<path d="M269.389 178.426C268.368 179.831 264.419 182.362 264.037 183.205C263.655 184.049 258.941 186.58 256.518 187.002C254.094 187.423 246.453 189.254 245.05 190.237C244.044 190.945 235.975 193.19 230.673 194.434C229.236 194.809 227.783 195.097 226.318 195.299C224.025 195.438 198.925 186.019 198.925 186.019L203.765 180.535L204.032 180.434C205.401 179.924 211.723 177.566 215.233 176.444C219.185 175.178 223.773 169.977 223.773 169.977C223.773 169.977 230.523 167.446 231.418 167.164C232.312 166.881 229.124 157.323 229.124 157.323C229.124 157.323 243.777 155.079 249.511 153.177C255.245 151.274 268.498 151.979 270.918 159.432C273.338 166.885 270.425 177.022 269.389 178.426Z" fill="#4B4B5B"/>
<path d="M202.618 202.187C202.618 202.187 199.69 205.561 196.758 205.283C193.826 205.004 183.573 206.127 183.573 206.127C181.715 206.944 179.975 208.057 178.409 209.429C176.012 211.513 174.739 209.851 174.502 209.497L174.46 209.429C173.183 213.863 170.255 210.484 170.255 210.484C170.255 210.484 171.528 196.986 171.138 195.299C170.748 193.611 173.657 190.713 173.657 190.713L177.098 189.748L185.813 187.284L198.302 192.063L202.618 202.187Z" fill="#E7C7CA"/>
<path opacity="0.1" d="M177.082 189.748L174.502 209.497L174.46 209.429C173.183 213.863 170.255 210.484 170.255 210.484C170.255 210.484 171.528 196.986 171.138 195.299C170.748 193.611 173.657 190.713 173.657 190.713L177.082 189.748Z" fill="black"/>
<path opacity="0.1" d="M195.118 133.571C195.118 133.571 201.869 136.102 207.733 133.571H195.118Z" fill="black"/>
<path opacity="0.1" d="M218.165 138.354C218.165 138.354 220.967 139.898 223.134 138.354H218.165Z" fill="black"/>
<path opacity="0.1" d="M218.165 142.015C218.165 142.015 222.878 142.711 223.773 141.307L218.165 142.015Z" fill="black"/>
<path opacity="0.1" d="M216.636 149.882C216.636 149.882 225.489 148.617 227.687 146.93L216.636 149.882Z" fill="black"/>
<path opacity="0.1" d="M189.621 146.93C189.621 146.93 194.59 150.021 198.287 149.882L189.621 146.93Z" fill="black"/>
<path opacity="0.1" d="M230.669 194.434C229.233 194.809 227.779 195.097 226.315 195.299C224.021 195.438 198.921 186.019 198.921 186.019L203.761 180.535L204.028 180.434C204.793 181.029 205.42 181.539 205.867 181.927C207.973 183.758 210.007 181.366 210.772 181.366C211.536 181.366 218.161 187.411 218.161 187.411C218.161 187.411 224.277 188.959 225.298 190.363C226.319 191.768 229.885 191.49 230.52 192.472C230.711 192.776 230.734 193.523 230.669 194.434Z" fill="black"/>
<path d="M183.573 157.897C183.573 157.897 177.388 158.289 173.822 156.631C170.255 154.973 158.405 151.148 154.964 153.835C151.524 156.521 143.24 158.896 147.063 169.585C150.885 180.274 152.671 180.552 152.671 180.552C153.853 181.531 154.886 182.713 155.729 184.053C156.876 186.023 167.579 190.519 170.255 190.519C172.931 190.519 177.644 190.519 184.269 195.581C190.894 200.643 196.884 201.208 196.884 201.208C196.884 201.208 205.294 205.004 207.912 205.848C210.531 206.692 222.496 210.345 225.302 209.223C228.108 208.101 229.889 201.065 229.889 201.065C229.889 201.065 231.162 194.738 230.524 193.755C229.885 192.772 226.319 193.05 225.302 191.646C224.285 190.241 218.165 188.693 218.165 188.693C218.165 188.693 211.555 182.644 210.791 182.644C210.026 182.644 207.993 185.032 205.886 183.205C201.691 179.776 197.282 176.675 192.694 173.925C187.855 171.112 183.573 157.897 183.573 157.897Z" fill="#4B4B5B"/>
<path opacity="0.1" d="M171.138 161.976C172.239 161.727 173.378 161.763 174.464 162.08C175.551 162.396 176.557 162.986 177.403 163.802C180.462 166.615 190.752 172.263 190.752 172.263" fill="black"/>
<path opacity="0.1" d="M247.599 161.798C247.599 161.798 233.964 164.076 231.418 167.168L247.599 161.798Z" fill="black"/>
<path d="M263.272 208.375H262.672C260.516 208.29 253.211 208.037 251.804 208.375C250.149 208.797 228.23 208.375 228.23 208.375L232.515 207.392C232.515 207.392 230.925 201.242 231.934 200.732C231.934 200.732 226.2 196.564 230.523 193.751C234.847 190.937 239.507 192.122 239.507 192.122L250.359 188.065L252.443 187.284C252.443 187.284 264.675 187.989 267.986 197.268C271.296 206.548 263.272 208.375 263.272 208.375Z" fill="#E7C7CA"/>
<path opacity="0.1" d="M263.272 208.375H262.672C266.231 205.135 274.282 195.273 250.359 188.086L252.443 187.305C252.443 187.305 264.675 188.01 267.986 197.29C271.296 206.569 263.272 208.375 263.272 208.375Z" fill="black"/>
<path d="M240.784 197.441C241.153 197.441 241.453 197.111 241.453 196.703C241.453 196.296 241.153 195.965 240.784 195.965C240.414 195.965 240.115 196.296 240.115 196.703C240.115 197.111 240.414 197.441 240.784 197.441Z" fill="#4B4B5B"/>
<path d="M236.896 198.66C237.265 198.66 237.565 198.33 237.565 197.922C237.565 197.515 237.265 197.184 236.896 197.184C236.526 197.184 236.227 197.515 236.227 197.922C236.227 198.33 236.526 198.66 236.896 198.66Z" fill="#4B4B5B"/>
<g opacity="0.1">
<path opacity="0.1" d="M217.954 41.9323C218.103 37.2927 217.355 32.6714 215.76 28.3753C210.791 29.1936 205.347 24.9628 200.821 27.4937C197.472 29.3665 196.421 34.0613 196.234 38.1992C196.188 39.2917 196.18 40.3842 196.2 41.4767C196.2 41.0886 196.2 40.6964 196.234 40.3083C196.41 36.1703 197.461 31.4756 200.821 29.6027C205.347 27.0719 210.783 31.29 215.76 30.4843C217.111 34.1233 217.854 38.0016 217.954 41.9323Z" fill="black"/>
<path opacity="0.1" d="M179.445 41.1604C179.51 40.2412 179.494 39.3172 179.395 38.4017C178.99 34.6898 177.151 31.1423 176.819 27.5232C176.39 31.8889 178.91 36.0817 179.395 40.5108C179.445 40.7385 179.445 40.941 179.445 41.1604Z" fill="black"/>
<path opacity="0.1" d="M199.587 79.0137C199.349 82.1435 198.681 85.4885 196.528 87.5638C194.376 89.6391 190.412 89.5252 189.216 86.6822C188.833 85.8386 188.776 84.8558 188.405 84.0121C187.556 82.0802 185.469 81.3294 183.646 80.5744C178.466 78.4358 173.47 74.2472 172.357 68.2533C172.258 67.7103 172.19 67.1608 172.155 66.6082C172.061 67.8639 172.129 69.1279 172.357 70.3623C173.47 76.3394 178.474 80.5449 183.646 82.6834C185.469 83.4385 187.556 84.1893 188.405 86.1212C188.787 86.9648 188.852 87.9392 189.216 88.7913C190.42 91.6343 194.391 91.7439 196.528 89.6729C198.665 87.6018 199.33 84.2526 199.587 81.1227C199.703 79.4754 199.742 77.8225 199.705 76.1707C199.705 77.1282 199.655 78.073 199.587 79.0137Z" fill="black"/>
<path opacity="0.1" d="M229.113 48.116C229.113 48.7276 229.113 49.335 229.113 49.9425C229.327 42.0968 231.934 34.2089 231.678 26.5277C231.479 33.631 229.258 40.8946 229.113 48.116Z" fill="black"/>
<path opacity="0.1" d="M220.909 79.8531C221.003 79.3526 221.033 78.84 220.997 78.3303C220.843 77.2387 220.497 76.191 219.977 75.2469C217.767 70.607 215.248 65.8574 214.95 60.7071C214.95 60.9264 214.923 61.1289 214.919 61.3651C214.766 67.0764 217.561 72.3027 219.977 77.356C220.387 78.1386 220.701 78.9785 220.909 79.8531Z" fill="black"/>
<path opacity="0.1" d="M231.311 73.7495C231.026 78.8598 229.708 83.835 227.454 88.3104C225.436 92.364 221.869 96.4007 217.737 95.6204C217.366 95.5852 217.018 95.411 216.75 95.1269C216.673 95.0303 216.612 94.9187 216.571 94.7979C216.525 95.1269 216.487 95.4601 216.464 95.7975C216.385 96.2999 216.488 96.8165 216.75 97.2359C217.018 97.52 217.366 97.6942 217.737 97.7294C221.869 98.5098 225.436 94.4731 227.454 90.4195C229.708 85.944 231.026 80.9689 231.311 75.8585C231.357 74.8715 231.361 73.8887 231.334 72.9059C231.326 73.1885 231.326 73.4669 231.311 73.7495Z" fill="black"/>
</g>
<path opacity="0.1" d="M231.934 200.732C231.934 200.732 241.609 205.211 247.989 195.299" stroke="black" stroke-miterlimit="10"/>
<path opacity="0.1" d="M233.838 208.56C233.838 208.56 241.739 202.891 251.804 208.375" stroke="black" stroke-miterlimit="10"/>
<path opacity="0.1" d="M180.947 207.274C180.947 207.274 184.265 199.015 193.126 205.312" stroke="black" stroke-miterlimit="10"/>
<path opacity="0.1" d="M170.19 85.1342L176.956 78.3852C176.956 78.3852 203.191 76.487 204.277 86.3279C204.277 86.3279 213.577 74.6606 233.138 77.2589L241.414 84.531L218.539 95.6077L196.31 104.116L179.938 96.0295L170.19 85.1342Z" fill="black"/>
<path d="M170.19 85.556L176.956 78.807C176.956 78.807 203.191 76.9088 204.277 86.7497C204.277 86.7497 213.577 75.0824 233.138 77.6808L241.414 84.9528L218.539 96.0295L196.31 104.537L179.938 96.4513L170.19 85.556Z" fill="#D5D6DB"/>
<path opacity="0.1" d="M167.197 86.3996L170.19 125.911L201.918 127.67L200.542 88.3273L200.515 87.665L167.197 86.3996Z" fill="black"/>
<path d="M167.197 85.556L170.19 125.067L201.918 126.826L200.542 87.4836L200.515 86.8214L167.197 85.556Z" fill="#48D77A"/>
<path opacity="0.1" d="M242.867 85.556L210.137 90.972V130.66L242.122 125.561L242.867 85.556Z" fill="black"/>
<path d="M242.867 84.7123L210.137 90.1284V129.817L242.122 124.717L242.867 84.7123Z" fill="#48D77A"/>
<path opacity="0.3" d="M235.149 94.3971L217.469 96.5652L217.855 103.213L235.137 101.129L235.149 94.3971Z" fill="white"/>
<path d="M171.91 146.225L173.711 151.569C173.711 151.569 176.387 154.1 179.315 152.835C182.243 151.569 184.796 150.941 186.069 149.709C187.342 148.478 189.128 142.29 189.128 142.29C189.128 142.29 190.913 135.541 192.694 133.853C194.476 132.166 199.193 108.92 192.694 111.194C186.196 113.467 181.226 134.558 181.226 134.558C181.226 134.558 180.079 136.102 178.424 136.245C176.769 136.388 173.455 135.962 172.816 137.51C172.178 139.058 169.999 143.133 171.91 146.225Z" fill="#BE6F72"/>
<path opacity="0.1" d="M210.137 90.9678C208.461 91.3845 206.72 91.3627 205.054 90.9042C203.387 90.4457 201.841 89.5632 200.538 88.3273L201.918 127.665C201.918 127.665 205.168 131.546 210.137 130.66V90.9678Z" fill="#062146"/>
<path d="M210.137 90.1242C208.461 90.5408 206.72 90.5191 205.054 90.0606C203.387 89.6021 201.841 88.7196 200.538 87.4836L201.918 126.822C201.918 126.822 205.168 130.702 210.137 129.817V90.1242Z" fill="#062146"/>
<path opacity="0.1" d="M210.137 90.1242C208.461 90.5408 206.72 90.5191 205.054 90.0606C203.387 89.6021 201.841 88.7196 200.538 87.4836L201.918 126.822C201.918 126.822 205.168 130.702 210.137 129.817V90.1242Z" fill="#062146"/>
<path opacity="0.1" d="M210.902 85.691C210.902 85.691 224.216 81.1987 227.687 81.8314L210.902 85.691Z" fill="black"/>
<path opacity="0.1" d="M196.008 83.7295C196.008 83.7295 183.103 80.355 180.947 81.3125L196.008 83.7295Z" fill="black"/>
<path opacity="0.1" d="M219.296 86.2519C219.296 86.2519 228.199 82.6497 231.418 84.3622L219.296 86.2519Z" fill="black"/>
<path opacity="0.1" d="M214.812 176.617C216.192 175.473 217.66 174.467 219.201 173.609C221.494 172.39 225.699 169.226 225.699 169.226" fill="black"/>
<path opacity="0.1" d="M180.947 133.571C180.947 133.571 175.362 138.611 173.684 139.054C172.006 139.497 170.97 143.428 170.97 143.428" fill="black"/>
<path d="M239.583 145.474L237.802 150.831C237.802 150.831 235.126 153.362 232.194 152.097C229.262 150.831 226.716 150.203 225.439 148.971C224.163 147.739 222.381 141.551 222.381 141.551C222.381 141.551 220.6 134.802 218.815 133.115C217.029 131.428 212.316 108.182 218.815 110.455C225.313 112.729 230.283 133.82 230.283 133.82C230.283 133.82 231.429 135.363 233.085 135.507C234.74 135.65 238.054 135.224 238.693 136.772C239.331 138.32 241.495 142.395 239.583 145.474Z" fill="#BE6F72"/>
<path opacity="0.1" d="M236.46 135.621C236.46 135.621 240.111 138.211 240.095 141.307L236.46 135.621Z" fill="black"/>
<path d="M205.485 60.5468C214.916 60.5468 222.561 52.1108 222.561 41.7045C222.561 31.2982 214.916 22.8622 205.485 22.8622C196.054 22.8622 188.409 31.2982 188.409 41.7045C188.409 52.1108 196.054 60.5468 205.485 60.5468Z" fill="#BE6F72"/>
<path d="M194.762 36.647C196.834 36.2884 198.65 34.9597 200.63 34.1962C205.061 32.4795 209.961 33.6563 214.445 35.2044C216.165 35.7991 217.912 36.4698 219.717 36.4698C221.521 36.4698 223.436 35.6557 224.357 33.9389C225.206 32.3614 225.042 30.3114 224.327 28.6536C223.612 26.9959 222.416 25.663 221.208 24.406C217.232 20.2638 212.301 16.3916 206.846 16.8134C204.651 16.9863 202.553 17.8511 200.534 18.8086C197.993 20.0171 195.519 21.3918 193.126 22.9254C191.287 24.1023 187.881 25.6757 186.822 27.8269C184.414 32.6735 191.016 37.2966 194.762 36.647Z" fill="#3E373A"/>
<path opacity="0.1" d="M224.357 32.1673C223.436 33.8841 221.521 34.6982 219.717 34.6982C217.912 34.6982 216.165 34.0528 214.441 33.4581C209.957 31.91 205.061 30.729 200.626 32.45C198.65 33.2134 196.83 34.559 194.758 34.8965C191.738 35.4195 186.876 32.5175 186.348 28.8266C185.756 33.0911 191.394 36.744 194.758 36.1619C196.83 35.8034 198.65 34.4747 200.626 33.7154C205.061 31.9944 209.957 33.1755 214.441 34.7235C216.165 35.3183 217.909 35.989 219.717 35.9636C221.525 35.9383 223.436 35.1538 224.357 33.4328C224.835 32.4965 225.023 31.414 224.893 30.3493C224.833 30.9903 224.651 31.61 224.357 32.1673Z" fill="black"/>
<path d="M362.934 260.768C362.934 260.768 365.201 264.037 361.886 268.976C358.572 273.916 355.843 278.083 356.944 281.162C356.944 281.162 361.944 271.992 366.011 271.862C370.078 271.731 367.403 266.281 362.934 260.768Z" fill="#6C63FF"/>
<path opacity="0.1" d="M362.934 260.768C363.131 261.084 363.287 261.429 363.396 261.793C367.364 266.939 369.482 271.743 365.663 271.862C362.108 271.975 357.846 278.99 356.825 280.758C356.858 280.9 356.897 281.041 356.944 281.179C356.944 281.179 361.944 272.009 366.011 271.878C370.078 271.748 367.403 266.281 362.934 260.768Z" fill="black"/>
<path d="M367.139 264.935C367.139 266.087 367.02 267.019 366.879 267.019C366.737 267.019 366.615 266.087 366.615 264.935C366.615 263.784 366.76 264.328 366.906 264.328C367.051 264.328 367.139 263.784 367.139 264.935Z" fill="#FFD037"/>
<path d="M368.588 266.311C367.674 266.859 366.875 267.192 366.806 267.053C366.737 266.914 367.422 266.353 368.335 265.787C369.249 265.222 368.89 265.636 368.958 265.787C369.027 265.939 369.505 265.758 368.588 266.311Z" fill="#FFD037"/>
<path d="M350.953 260.768C350.953 260.768 348.687 264.037 352.001 268.976C355.315 273.916 358.045 278.083 356.94 281.162C356.94 281.162 351.944 271.992 347.872 271.862C343.801 271.731 346.496 266.281 350.953 260.768Z" fill="#6C63FF"/>
<path opacity="0.1" d="M350.953 260.768C350.756 261.084 350.6 261.429 350.491 261.793C346.523 266.939 344.405 271.743 348.224 271.862C351.775 271.975 356.041 278.99 357.062 280.758C357.03 280.901 356.989 281.042 356.94 281.179C356.94 281.179 351.944 272.009 347.872 271.878C343.801 271.748 346.496 266.281 350.953 260.768Z" fill="black"/>
<path d="M346.741 264.935C346.741 266.087 346.856 267.019 347.001 267.019C347.146 267.019 347.265 266.087 347.265 264.935C347.265 263.784 347.115 264.328 346.974 264.328C346.833 264.328 346.741 263.784 346.741 264.935Z" fill="#FFD037"/>
<path d="M345.296 266.311C346.21 266.859 347.008 267.192 347.077 267.053C347.146 266.914 346.462 266.353 345.548 265.787C344.635 265.222 344.994 265.636 344.925 265.787C344.856 265.939 344.378 265.758 345.296 266.311Z" fill="#FFD037"/>
<path opacity="0.1" d="M356.944 306.184C370.033 306.184 380.644 304.388 380.644 302.173C380.644 299.957 370.033 298.161 356.944 298.161C343.854 298.161 333.243 299.957 333.243 302.173C333.243 304.388 343.854 306.184 356.944 306.184Z" fill="#6C63FF"/>
<path d="M369.142 276.755L369.027 277.775L368.867 279.218L368.802 279.821L368.641 281.264L368.572 281.867L368.416 283.305L366.6 299.714C366.439 301.177 364.272 302.321 361.653 302.321H352.23C349.612 302.321 347.448 301.177 347.284 299.714L345.468 283.305L345.307 281.867L345.242 281.264L345.082 279.821L345.013 279.218L344.856 277.775L344.742 276.755C344.654 275.911 345.823 275.228 347.307 275.228H366.581C368.06 275.228 369.234 275.924 369.142 276.755Z" fill="#65617D"/>
<path d="M369.027 277.775L368.87 279.218H345.017L344.856 277.775H369.027Z" fill="#9D9CB5"/>
<path d="M368.802 279.821L368.645 281.264H345.242L345.082 279.821H368.802Z" fill="#9D9CB5"/>
<path d="M368.576 281.867L368.416 283.31H345.468L345.311 281.867H368.576Z" fill="#9D9CB5"/>
</g>
<defs>
<linearGradient id="paint0_linear" x1="208.964" y1="211.715" x2="208.964" y2="-6.21661e-06" gradientUnits="userSpaceOnUse">
<stop stop-color="#808080" stop-opacity="0.25"/>
<stop offset="0.54" stop-color="#808080" stop-opacity="0.12"/>
<stop offset="1" stop-color="#808080" stop-opacity="0.1"/>
</linearGradient>
<clipPath id="clip0">
<rect width="391" height="343" fill="white"/>
</clipPath>
</defs>
</svg>
