<svg width="142" height="78" viewBox="0 0 142 78" fill="none" xmlns="http://www.w3.org/2000/svg">
<path d="M128.06 70.1673C127.647 73.8912 116.886 76.7876 116.886 76.7876H50.2514L1 7.27461" stroke="#A6A6A6" stroke-width="2" stroke-linecap="round" stroke-linejoin="round"/>
<path d="M15.35 13.6568C14.4197 12.3315 15.3677 10.5078 16.9869 10.5078H92.8695C93.571 10.5078 94.2213 10.8753 94.5831 11.4764L128.664 68.0981C129.466 69.4311 128.506 71.1295 126.95 71.1295H56.732C56.0803 71.1295 55.4695 70.812 55.0951 70.2786L15.35 13.6568Z" fill="#C4C4C4"/>
<path d="M32.36 3.15316C31.4251 1.82831 32.3726 0 33.9941 0L98.7214 0C99.3585 0 99.9575 0.303532 100.334 0.817296L139.485 54.2059C140.453 55.527 139.51 57.3886 137.872 57.3886H71.6699C71.02 57.3886 70.4106 57.0728 70.0359 56.5418L32.36 3.15316Z" fill="#062146"/>
<rect x="52.9861" y="12.5078" width="44.5116" height="4" rx="2" fill="white"/>
<rect x="62" y="25" width="35" height="4" rx="2" fill="white"/>
<rect x="71.2186" y="37.7979" width="39.51" height="4" rx="2" fill="white"/>
</svg>
