<svg width="407" height="78" viewBox="0 0 407 78" fill="none" xmlns="http://www.w3.org/2000/svg">
<path d="M128.06 70.1673C127.647 73.8912 116.886 76.7876 116.886 76.7876H50.2514L1 7.27461" stroke="#A6A6A6" stroke-width="2" stroke-linecap="round" stroke-linejoin="round"/>
<path d="M15.35 13.6568C14.4197 12.3315 15.3677 10.5078 16.9869 10.5078H92.8695C93.571 10.5078 94.2213 10.8753 94.5831 11.4764L128.664 68.0981C129.466 69.4311 128.506 71.1295 126.95 71.1295H56.732C56.0803 71.1295 55.4695 70.812 55.0951 70.2786L15.35 13.6568Z" fill="#C4C4C4"/>
<path d="M32.36 3.15316C31.4251 1.82831 32.3726 0 33.9941 0L98.7214 0C99.3585 0 99.9575 0.303532 100.334 0.817296L139.485 54.2059C140.453 55.527 139.51 57.3886 137.872 57.3886H71.6699C71.02 57.3886 70.4106 57.0728 70.0359 56.5418L32.36 3.15316Z" fill="#062146"/>
<rect x="52.9861" y="12.5078" width="44.5116" height="4" rx="2" fill="white"/>
<rect x="62" y="25" width="35" height="4" rx="2" fill="white"/>
<rect x="71.2186" y="37.7979" width="39.51" height="4" rx="2" fill="white"/>
<path d="M166.966 42.686H160.548V57H152.491V17.8984H167.02C171.639 17.8984 175.202 18.9279 177.708 20.9868C180.215 23.0457 181.468 25.9551 181.468 29.7148C181.468 32.3825 180.886 34.6115 179.723 36.4019C178.577 38.1743 176.831 39.5887 174.486 40.645L182.945 56.624V57H174.298L166.966 42.686ZM160.548 36.1602H167.047C169.07 36.1602 170.637 35.6499 171.747 34.6294C172.857 33.591 173.412 32.1676 173.412 30.3594C173.412 28.5153 172.883 27.0651 171.827 26.0088C170.789 24.9525 169.186 24.4243 167.02 24.4243H160.548V36.1602Z" fill="#062247"/>
<path d="M197.182 57.5371C192.921 57.5371 189.448 56.2301 186.762 53.6162C184.094 51.0023 182.761 47.52 182.761 43.1694V42.4175C182.761 39.4992 183.325 36.8942 184.452 34.6025C185.58 32.293 187.174 30.5205 189.233 29.2852C191.31 28.0319 193.673 27.4053 196.323 27.4053C200.297 27.4053 203.421 28.6585 205.695 31.165C207.987 33.6715 209.133 37.2254 209.133 41.8267V44.9956H190.629C190.88 46.8934 191.632 48.4152 192.885 49.561C194.156 50.7069 195.759 51.2798 197.692 51.2798C200.682 51.2798 203.019 50.1966 204.701 48.0303L208.515 52.3003C207.351 53.9474 205.776 55.2365 203.788 56.1675C201.801 57.0806 199.599 57.5371 197.182 57.5371ZM196.296 33.6895C194.756 33.6895 193.503 34.2087 192.536 35.2471C191.587 36.2855 190.978 37.7715 190.71 39.7051H201.506V39.0874C201.47 37.3687 201.004 36.0438 200.109 35.1128C199.214 34.1639 197.943 33.6895 196.296 33.6895ZM227.102 57C226.744 56.3018 226.484 55.4334 226.323 54.395C224.443 56.4897 222 57.5371 218.992 57.5371C216.145 57.5371 213.782 56.7135 211.902 55.0664C210.04 53.4193 209.109 51.3424 209.109 48.8359C209.109 45.7565 210.246 43.3932 212.52 41.7461C214.811 40.099 218.115 39.2664 222.429 39.2485H226.001V37.5835C226.001 36.2407 225.652 35.1665 224.954 34.3608C224.273 33.5552 223.19 33.1523 221.704 33.1523C220.397 33.1523 219.368 33.4657 218.616 34.0923C217.882 34.7189 217.515 35.5783 217.515 36.6704H209.754C209.754 34.9875 210.273 33.4299 211.311 31.9976C212.35 30.5653 213.818 29.4463 215.715 28.6406C217.613 27.8171 219.744 27.4053 222.107 27.4053C225.688 27.4053 228.525 28.3094 230.62 30.1177C232.733 31.908 233.789 34.4325 233.789 37.6909V50.2861C233.807 53.0433 234.192 55.1291 234.944 56.5435V57H227.102ZM220.684 51.6021C221.83 51.6021 222.886 51.3514 223.853 50.8501C224.819 50.3309 225.536 49.6416 226.001 48.7822V43.7871H223.101C219.216 43.7871 217.148 45.1299 216.897 47.8154L216.87 48.272C216.87 49.2388 217.21 50.0355 217.891 50.6621C218.571 51.2887 219.502 51.6021 220.684 51.6021ZM235.243 42.2563C235.243 37.7267 236.254 34.1191 238.277 31.4336C240.318 28.748 243.102 27.4053 246.629 27.4053C249.458 27.4053 251.794 28.4616 253.639 30.5742V15.75H261.427V57H254.417L254.041 53.9116C252.108 56.3286 249.619 57.5371 246.576 57.5371C243.156 57.5371 240.408 56.1943 238.331 53.5088C236.272 50.8053 235.243 47.0545 235.243 42.2563ZM243.004 42.8203C243.004 45.5417 243.478 47.6274 244.427 49.0776C245.376 50.5278 246.755 51.2529 248.563 51.2529C250.962 51.2529 252.654 50.2414 253.639 48.2183V36.751C252.672 34.7279 250.998 33.7163 248.617 33.7163C244.875 33.7163 243.004 36.751 243.004 42.8203ZM342.137 57.5371C337.876 57.5371 334.403 56.2301 331.717 53.6162C329.049 51.0023 327.716 47.52 327.716 43.1694V42.4175C327.716 39.4992 328.28 36.8942 329.408 34.6025C330.535 32.293 332.129 30.5205 334.188 29.2852C336.265 28.0319 338.628 27.4053 341.278 27.4053C345.252 27.4053 348.376 28.6585 350.65 31.165C352.942 33.6715 354.088 37.2254 354.088 41.8267V44.9956H335.584C335.835 46.8934 336.587 48.4152 337.84 49.561C339.111 50.7069 340.714 51.2798 342.647 51.2798C345.637 51.2798 347.974 50.1966 349.657 48.0303L353.47 52.3003C352.306 53.9474 350.731 55.2365 348.743 56.1675C346.756 57.0806 344.554 57.5371 342.137 57.5371ZM341.251 33.6895C339.711 33.6895 338.458 34.2087 337.491 35.2471C336.542 36.2855 335.933 37.7715 335.665 39.7051H346.461V39.0874C346.425 37.3687 345.959 36.0438 345.064 35.1128C344.169 34.1639 342.898 33.6895 341.251 33.6895ZM372.057 57C371.699 56.3018 371.44 55.4334 371.278 54.395C369.399 56.4897 366.955 57.5371 363.947 57.5371C361.1 57.5371 358.737 56.7135 356.857 55.0664C354.995 53.4193 354.064 51.3424 354.064 48.8359C354.064 45.7565 355.201 43.3932 357.475 41.7461C359.766 40.099 363.07 39.2664 367.384 39.2485H370.956V37.5835C370.956 36.2407 370.607 35.1665 369.909 34.3608C369.228 33.5552 368.145 33.1523 366.659 33.1523C365.352 33.1523 364.323 33.4657 363.571 34.0923C362.837 34.7189 362.47 35.5783 362.47 36.6704H354.709C354.709 34.9875 355.228 33.4299 356.266 31.9976C357.305 30.5653 358.773 29.4463 360.671 28.6406C362.568 27.8171 364.699 27.4053 367.062 27.4053C370.643 27.4053 373.481 28.3094 375.575 30.1177C377.688 31.908 378.744 34.4325 378.744 37.6909V50.2861C378.762 53.0433 379.147 55.1291 379.899 56.5435V57H372.057ZM365.639 51.6021C366.785 51.6021 367.841 51.3514 368.808 50.8501C369.775 50.3309 370.491 49.6416 370.956 48.7822V43.7871H368.056C364.171 43.7871 362.103 45.1299 361.852 47.8154L361.825 48.272C361.825 49.2388 362.165 50.0355 362.846 50.6621C363.526 51.2887 364.457 51.6021 365.639 51.6021ZM380.198 42.2563C380.198 37.7267 381.209 34.1191 383.232 31.4336C385.273 28.748 388.057 27.4053 391.584 27.4053C394.413 27.4053 396.75 28.4616 398.594 30.5742V15.75H406.382V57H399.372L398.996 53.9116C397.063 56.3286 394.574 57.5371 391.531 57.5371C388.111 57.5371 385.363 56.1943 383.286 53.5088C381.227 50.8053 380.198 47.0545 380.198 42.2563ZM387.959 42.8203C387.959 45.5417 388.433 47.6274 389.382 49.0776C390.331 50.5278 391.71 51.2529 393.518 51.2529C395.917 51.2529 397.609 50.2414 398.594 48.2183V36.751C397.627 34.7279 395.953 33.7163 393.572 33.7163C389.83 33.7163 387.959 36.751 387.959 42.8203Z" fill="#555555"/>
<path d="M263.068 46.4727C263.068 44.6644 263.569 42.9904 264.572 41.4507C265.592 39.911 267.454 38.2012 270.158 36.3213C268.994 34.7637 268.081 33.3045 267.419 31.9438C266.756 30.5653 266.425 29.133 266.425 27.647C266.425 24.6034 267.383 22.1326 269.299 20.2349C271.232 18.3192 273.828 17.3613 277.087 17.3613C280.005 17.3613 282.395 18.2297 284.257 19.9663C286.137 21.703 287.077 23.8693 287.077 26.4653C287.077 29.5806 285.501 32.3288 282.35 34.71L279.342 36.8853L286.083 44.7271C287.14 42.6502 287.668 40.3586 287.668 37.8521H294.274C294.274 42.9367 293.101 47.0545 290.756 50.2056L296.611 57H287.802L285.788 54.6904C282.905 56.5882 279.593 57.5371 275.851 57.5371C271.984 57.5371 268.887 56.5256 266.559 54.5024C264.232 52.4614 263.068 49.7848 263.068 46.4727ZM276.227 51.3066C278.089 51.3066 279.853 50.7874 281.518 49.749L273.81 40.833L273.246 41.2358C271.653 42.5965 270.856 44.1989 270.856 46.043C270.856 47.6006 271.349 48.8717 272.333 49.8564C273.336 50.8232 274.634 51.3066 276.227 51.3066ZM273.381 27.5396C273.381 28.8823 274.168 30.5742 275.744 32.6152L277.812 31.2456C278.868 30.5653 279.593 29.9028 279.987 29.2583C280.399 28.6138 280.605 27.8439 280.605 26.9487C280.605 26.0535 280.273 25.2747 279.611 24.6123C278.949 23.9499 278.098 23.6187 277.06 23.6187C275.95 23.6187 275.055 23.9767 274.374 24.6929C273.712 25.409 273.381 26.3579 273.381 27.5396Z" fill="#48D77A"/>
<path d="M311.921 42.686H305.503V57H297.446V17.8984H311.975C316.594 17.8984 320.157 18.9279 322.664 20.9868C325.17 23.0457 326.423 25.9551 326.423 29.7148C326.423 32.3825 325.841 34.6115 324.678 36.4019C323.532 38.1743 321.786 39.5887 319.441 40.645L327.9 56.624V57H319.253L311.921 42.686ZM305.503 36.1602H312.002C314.025 36.1602 315.592 35.6499 316.702 34.6294C317.812 33.591 318.367 32.1676 318.367 30.3594C318.367 28.5153 317.839 27.0651 316.782 26.0088C315.744 24.9525 314.141 24.4243 311.975 24.4243H305.503V36.1602Z" fill="#072348"/>
</svg>
